<?xml version="1.0" encoding="UTF-8"?>
<!DOCTYPE svg PUBLIC "-//W3C//DTD SVG 1.1//EN" "http://www.w3.org/Graphics/SVG/1.1/DTD/svg11.dtd">
<!-- Creator: CorelDRAW X6 -->
<svg xmlns="http://www.w3.org/2000/svg" xml:space="preserve" width="185px" height="84px" version="1.1" shape-rendering="geometricPrecision" text-rendering="geometricPrecision" image-rendering="optimizeQuality" fill-rule="evenodd" clip-rule="evenodd"
viewBox="0 0 261118 118097"
 xmlns:xlink="http://www.w3.org/1999/xlink">
 <g id="Layer_x0020_1">
  <metadata id="CorelCorpID_0Corel-Layer"/>
  <g id="_671149808">
   <path id="svg_2" fill="#BDBFC1" d="M149114 118097c-1272,-6243 -3514,-11439 -6229,-16254 -2015,-3571 -4349,-6869 -6509,-10331 -720,-1156 -1342,-2378 -2035,-3578 -1384,-2400 -2507,-5182 -2437,-8791 70,-3526 1089,-6354 2560,-8666 2418,-3804 6471,-6922 11905,-7742 4444,-670 8611,461 11566,2190 2415,1411 4284,3298 5706,5520 1482,2320 2505,5062 2590,8636 43,1832 -256,3528 -678,4935 -428,1424 -1116,2615 -1727,3886 -1194,2483 -2692,4757 -4196,7032 -4475,6779 -8676,13691 -10516,23163l0 0z"/>
   <circle id="svg_4" fill="#BDBFC1" cx="149069" cy="79103" r="5860"/>
  </g>
  <path fill="#BDBFC1" fill-rule="nonzero" d="M21634 5625l15443 13516c1441,1261 2488,1895 3123,1895 1079,0 1619,-1154 1619,-3451 0,-2603 -158,-4382 -465,-5325 -308,-953 -964,-1672 -1959,-2149 -804,-391 -1376,-804 -1704,-1249 -328,-443 -498,-1016 -498,-1724 0,-1737 1196,-2848 3568,-3346 974,-212 2667,-316 5092,-316 3121,0 5281,190 6477,560 1905,583 2848,1674 2848,3293 0,1344 -773,2350 -2318,3038 -625,265 -1048,508 -1271,710 -233,212 -423,518 -593,931 -561,1366 -846,3947 -868,7758l0 10108c0,1546 12,3663 32,6352 22,3641 -200,6266 -656,7875 -550,2010 -1566,3006 -3038,3016 -635,-10 -1196,-138 -1661,-413 -456,-265 -1229,-889 -2308,-1852l-18386 -16471c-1281,-1153 -2350,-1736 -3196,-1736 -1259,0 -1895,1747 -1895,5240 0,2868 170,4837 488,5896 316,1048 973,1830 1969,2318 1386,688 2074,1576 2074,2667 0,2880 -3090,4319 -9272,4319 -2783,0 -4953,-370 -6499,-1101 -1534,-741 -2307,-1779 -2307,-3123 0,-698 148,-1228 433,-1577 286,-348 943,-824 1959,-1429 974,-581 1556,-1597 1767,-3070 350,-2667 530,-6499 530,-11506 0,-5335 -318,-9219 -931,-11664 -233,-889 -520,-1546 -868,-1979 -360,-435 -933,-848 -1737,-1239 -931,-455 -1576,-899 -1947,-1334 -360,-433 -540,-963 -540,-1587 0,-1979 1704,-3228 5123,-3748 1154,-168 3175,-253 6076,-253 1651,0 2858,137 3609,391 751,253 1651,846 2688,1757z"/>
  <path id="1" fill="#BDBFC1" fill-rule="nonzero" d="M73936 15543c3598,0 6647,909 9144,2730 1324,974 2255,2085 2785,3334 518,1249 783,2975 783,5165l-63 4615c0,3208 233,5281 688,6234 223,456 445,741 656,869 202,127 635,232 1302,338 656,105 984,540 984,1302 0,994 -391,2032 -1196,3101 -794,1079 -1820,1979 -3081,2698 -1556,911 -3175,1366 -4868,1366 -2170,0 -3884,-741 -5145,-2234 -433,-540 -836,-804 -1216,-804 -413,0 -953,255 -1642,773 -2064,1514 -4414,2265 -7039,2265 -2710,0 -4900,-581 -6572,-1736 -1091,-763 -1969,-1769 -2605,-2996 -645,-1228 -963,-2508 -963,-3852 0,-2159 868,-4054 2603,-5716 2710,-2603 6764,-3916 12164,-3937 1196,0 1947,-117 2265,-350 306,-243 455,-793 455,-1661 0,-2192 -223,-3779 -678,-4764 -455,-974 -1196,-1472 -2234,-1472 -625,0 -1174,192 -1662,561 -486,371 -1089,1048 -1809,2044 -1842,2625 -3769,3937 -5770,3937 -1016,0 -1842,-296 -2477,-899 -646,-593 -963,-1387 -963,-2350 0,-994 391,-1990 1196,-2985 793,-984 1874,-1852 3238,-2605 3738,-1979 7643,-2973 11719,-2973zm-2075 17951c-911,0 -1704,370 -2372,1123 -676,740 -1004,1629 -1004,2667 0,994 233,1789 710,2403 475,603 1099,909 1894,909 1651,0 2477,-1397 2477,-4181 0,-1143 -117,-1905 -360,-2297 -233,-391 -688,-603 -1344,-625z"/>
  <path id="2" fill="#BDBFC1" fill-rule="nonzero" d="M125199 13902c508,0 963,295 1366,878 391,593 581,1281 581,2064 0,848 -265,1810 -794,2890 -518,1069 -1153,1927 -1904,2573 -476,411 -710,740 -710,984 0,63 20,316 63,751 63,433 95,824 95,1174 0,2467 -836,4530 -2487,6203 -1482,1492 -3409,2647 -5748,3473 -2350,826 -4933,1238 -7738,1238 -688,0 -1354,-32 -2022,-117 -528,-63 -953,-95 -1238,-95 -1091,0 -1641,551 -1641,1641 0,710 360,1261 1069,1662 708,403 1682,603 2900,603 826,0 2042,-117 3663,-338 3386,-476 5884,-720 7505,-720 2433,0 4329,413 5673,1218 1069,613 1927,1481 2552,2603 635,1111 953,2318 953,3599 0,2085 -763,4107 -2298,6076 -1820,2317 -4499,4032 -8033,5143 -2773,868 -5969,1302 -9612,1302 -4594,0 -8308,-700 -11166,-2107 -1324,-656 -2372,-1534 -3166,-2603 -783,-1079 -1174,-2192 -1174,-3344 0,-816 223,-1557 666,-2234 445,-688 1006,-1176 1694,-1461 615,-255 933,-520 933,-804 0,-233 -265,-561 -784,-996 -1651,-1386 -2477,-2826 -2477,-4307 0,-996 403,-2022 1196,-3070 794,-1059 1779,-1874 2965,-2457 496,-243 741,-496 741,-740 0,-286 -308,-721 -933,-1302 -2127,-1969 -3196,-4256 -3196,-6890 0,-1377 381,-2700 1133,-3971 763,-1259 1810,-2328 3155,-3218 3323,-2169 7017,-3260 11061,-3260 1619,0 3419,212 5398,625 1884,370 3176,550 3874,550 2255,0 4499,-888 6732,-2657 498,-380 879,-560 1154,-560zm-16840 6414c-1038,0 -1864,391 -2498,1186 -635,783 -943,1820 -943,3121 0,2234 340,4022 1016,5366 688,1344 1589,2022 2700,2022 1101,0 1969,-423 2603,-1259 646,-836 964,-1959 964,-3366 0,-2212 -340,-3927 -1006,-5165 -678,-1229 -1619,-1864 -2836,-1905zm-6764 28220c-520,0 -773,306 -773,899 0,1218 656,2212 1979,2963 1324,751 3038,1133 5155,1133 2022,0 3609,-265 4754,-804 1153,-540 1726,-1291 1726,-2265 0,-518 -213,-953 -656,-1322 -435,-360 -964,-540 -1609,-540 -328,0 -804,42 -1429,127 -1154,180 -2445,275 -3874,275 -1049,0 -2065,-53 -3038,-148 -720,-63 -1312,-148 -1769,-253 -200,-43 -360,-63 -465,-63z"/>
  <path id="3" fill="#BDBFC1" fill-rule="nonzero" d="M159716 33621l-3726 8341c-635,1407 -1154,2350 -1546,2836 -401,488 -836,731 -1302,731 -455,0 -868,-192 -1218,-593 -222,-243 -751,-1154 -1566,-2720 -814,-1577 -1492,-2975 -2032,-4192l-4086 -9209c-561,-1281 -1154,-1927 -1769,-1927 -666,0 -1026,551 -1089,1652 -148,2433 -212,4689 -212,6752 0,2149 95,3609 306,4372 148,455 338,794 571,994 243,212 889,583 1937,1123 688,350 1028,953 1028,1820 0,2318 -2965,3483 -8902,3483 -5007,0 -7505,-1133 -7505,-3388 0,-571 127,-994 391,-1249 255,-263 921,-645 2000,-1164 678,-316 1144,-741 1376,-1269 245,-540 445,-1589 605,-3133 190,-1662 360,-4372 530,-8141 168,-3777 243,-7007 243,-9695 0,-3366 -255,-5653 -773,-6849 -180,-413 -391,-730 -636,-931 -232,-212 -688,-476 -1344,-804 -1471,-710 -2202,-1619 -2202,-2732 0,-730 276,-1386 816,-1989 550,-593 1281,-1016 2190,-1271 911,-265 2129,-498 3641,-698 1526,-192 2806,-296 3864,-296 2647,0 4520,222 5610,656 540,200 964,486 1271,836 318,348 763,1079 1334,2170l6456 11875c700,1302 1186,2095 1451,2392 275,286 646,435 1123,435 413,0 773,-158 1101,-466 316,-306 698,-889 1133,-1736l4370 -8531c540,-1091 889,-1810 1048,-2139 1018,-2064 2022,-3439 3018,-4129 1259,-888 3556,-1332 6880,-1332 5853,0 8774,1332 8774,4001 0,603 -117,1079 -338,1451 -233,360 -700,793 -1397,1312 -953,720 -1546,1767 -1800,3133 -476,2846 -708,6329 -708,10415 0,5271 243,9897 740,13867 128,973 318,1629 573,1979 263,360 931,878 2000,1587 751,498 1121,1154 1121,1980 0,1449 -963,2477 -2890,3070 -994,338 -2032,550 -3133,656 -1089,105 -2773,148 -5048,158 -3493,-10 -6098,-255 -7811,-751 -1905,-561 -2858,-1504 -2858,-2848 0,-496 127,-909 370,-1228 255,-318 889,-909 1927,-1757 540,-433 899,-1271 1101,-2508 190,-1239 296,-3344 296,-6329 0,-1652 -85,-2732 -233,-3250 -158,-520 -486,-773 -984,-773 -571,0 -1133,391 -1672,1184 -540,804 -1344,2382 -2413,4764z"/>
  <path id="4" fill="#BDBFC1" fill-rule="nonzero" d="M202785 15543c3598,0 6647,909 9144,2730 1324,974 2255,2085 2785,3334 518,1249 783,2975 783,5165l-63 4615c0,3208 233,5281 688,6234 223,456 445,741 656,869 202,127 635,232 1302,338 656,105 984,540 984,1302 0,994 -391,2032 -1196,3101 -794,1079 -1820,1979 -3081,2698 -1556,911 -3175,1366 -4868,1366 -2170,0 -3884,-741 -5145,-2234 -433,-540 -836,-804 -1216,-804 -413,0 -953,255 -1642,773 -2064,1514 -4414,2265 -7039,2265 -2710,0 -4900,-581 -6572,-1736 -1091,-763 -1969,-1769 -2605,-2996 -645,-1228 -963,-2508 -963,-3852 0,-2159 868,-4054 2603,-5716 2710,-2603 6764,-3916 12164,-3937 1196,0 1947,-117 2265,-350 306,-243 455,-793 455,-1661 0,-2192 -223,-3779 -678,-4764 -455,-974 -1196,-1472 -2234,-1472 -625,0 -1174,192 -1662,561 -486,371 -1089,1048 -1809,2044 -1842,2625 -3769,3937 -5770,3937 -1016,0 -1842,-296 -2477,-899 -646,-593 -963,-1387 -963,-2350 0,-994 391,-1990 1196,-2985 793,-984 1874,-1852 3238,-2605 3738,-1979 7643,-2973 11719,-2973zm-2075 17951c-911,0 -1704,370 -2372,1123 -676,740 -1004,1629 -1004,2667 0,994 233,1789 710,2403 475,603 1099,909 1894,909 1651,0 2477,-1397 2477,-4181 0,-1143 -117,-1905 -360,-2297 -233,-391 -688,-603 -1344,-625z"/>
  <path id="5" fill="#BDBFC1" fill-rule="nonzero" d="M236275 15733c1261,0 2044,107 2362,318 306,222 465,761 465,1629 0,763 243,1154 741,1154 202,0 899,-391 2075,-1186 889,-593 2022,-1101 3398,-1502 1376,-403 2613,-603 3736,-603 2625,0 4975,909 7039,2730 1567,1387 2795,3133 3663,5240 911,2212 1366,4540 1366,6975 0,5208 -1757,9505 -5271,12871 -2710,2625 -5789,3937 -9251,3937 -1757,0 -3558,-413 -5420,-1238 -371,-170 -678,-255 -899,-255 -625,0 -933,625 -933,1862 0,1642 551,2816 1641,3536 1018,688 1621,1143 1822,1387 190,232 285,635 285,1184 0,1249 -688,2202 -2074,2870 -1387,676 -3334,1016 -5864,1016 -4477,0 -8404,-899 -11782,-2700 -1714,-909 -2572,-2042 -2572,-3386 0,-615 127,-1091 391,-1409 255,-316 753,-656 1504,-1004 1069,-498 1726,-1397 1969,-2700 233,-1302 413,-5048 540,-11231 -148,-5080 -328,-7938 -561,-8553 -85,-212 -202,-338 -350,-401 -158,-63 -666,-180 -1534,-350 -666,-117 -1208,-423 -1619,-911 -413,-486 -615,-1068 -615,-1746 0,-836 286,-1556 868,-2192 571,-635 1514,-1249 2816,-1840 5070,-2298 9092,-3463 12065,-3504zm3070 11717l-465 8531c-22,350 -32,688 -32,1016 0,646 275,1166 836,1557 561,391 1301,593 2234,593 2858,0 4275,-2350 4275,-7040 0,-3048 -593,-5187 -1789,-6424 -751,-763 -1641,-1144 -2667,-1144 -1472,0 -2265,964 -2393,2911z"/>
  <path fill="#BDBFC1" fill-rule="nonzero" d="M22557 83886c-646,0 -1056,202 -1239,593 -175,393 -271,1301 -271,2732 0,2164 140,3856 411,5060 87,340 217,611 383,794 175,192 498,418 978,690 1021,566 1526,1307 1526,2224 0,1126 -706,1920 -2129,2392 -1422,471 -3829,706 -7224,706 -6307,0 -9457,-1196 -9457,-3586 0,-401 95,-733 278,-978 192,-251 620,-593 1282,-1038 751,-498 1257,-1083 1519,-1754 261,-671 445,-1832 550,-3489 87,-1204 130,-5541 130,-13010 0,-2363 -122,-3977 -358,-4833 -243,-846 -750,-1466 -1534,-1857 -751,-358 -1257,-690 -1511,-986 -253,-296 -383,-690 -383,-1169 0,-628 245,-1178 733,-1641 480,-471 1161,-819 2032,-1038 733,-193 1737,-280 3011,-280 566,0 1970,78 4222,253 418,35 1099,52 2015,52 1536,0 3578,-105 6134,-305 1622,-122 2757,-183 3403,-183 3646,0 6666,881 9047,2635 2145,1587 3220,3777 3220,6596 0,1562 -376,2993 -1126,4275 -751,1291 -1780,2260 -3090,2905 -550,271 -819,595 -819,969 0,496 420,898 1256,1204 1789,645 3098,1631 3936,2940 829,1309 1431,3324 1789,6029 148,1124 375,1857 663,2189 288,333 959,655 2015,961 331,95 601,313 819,645 228,341 331,708 331,1118 0,523 -200,1056 -610,1596 -411,533 -943,961 -1589,1266 -1431,663 -3384,994 -5879,994 -3316,0 -5698,-873 -7129,-2635 -646,-776 -1196,-1770 -1649,-2958 -453,-1194 -986,-3053 -1597,-5575 -391,-1622 -889,-2757 -1491,-3429 -611,-663 -1476,-1019 -2600,-1073zm-1484 -13035l-280 5959c0,52 0,122 0,227 0,611 88,1021 271,1231 175,200 541,305 1081,305 1501,0 2592,-385 3273,-1161 690,-776 1029,-2015 1029,-3724 0,-3289 -1169,-4930 -3508,-4930 -663,0 -1134,157 -1404,461 -271,306 -428,848 -463,1632z"/>
  <path id="1" fill="#BDBFC1" fill-rule="nonzero" d="M56356 63671l13130 0c2662,0 4599,-53 5819,-167 1223,-113 2408,-340 3569,-680 356,-97 636,-148 838,-148 889,0 1674,471 2355,1431 1126,1552 1684,3419 1684,5618 0,1109 -237,1980 -698,2627 -471,636 -1118,951 -1929,951 -566,0 -1003,-113 -1317,-340 -313,-227 -741,-751 -1264,-1544 -751,-1144 -1702,-1912 -2853,-2295 -1153,-385 -3036,-576 -5663,-576 -1964,0 -3150,358 -3578,1056 -227,375 -356,873 -401,1509 -35,628 -60,2234 -60,4825 0,1021 173,1657 515,1902 340,253 1229,375 2678,375 715,0 1239,-148 1562,-445 321,-305 531,-838 610,-1597 123,-994 245,-1666 375,-2032 123,-366 358,-690 700,-959 356,-306 776,-463 1256,-463 698,0 1291,331 1789,994 358,498 663,1371 908,2627 243,1248 375,2557 375,3917 0,2697 -420,4903 -1257,6622 -461,943 -1159,1404 -2094,1404 -585,0 -986,-148 -1204,-445 -218,-296 -391,-916 -515,-1849 -253,-1929 -1377,-2888 -3368,-2888 -768,0 -1291,235 -1571,723 -286,490 -426,1387 -426,2697 0,803 60,1840 165,3106 113,1274 227,2112 350,2522 130,506 558,863 1264,1056 708,200 1885,296 3543,296 2557,0 4475,-331 5776,-986 1291,-655 2347,-1840 3166,-3569 481,-986 908,-1649 1292,-1989 383,-340 881,-515 1491,-515 716,0 1309,315 1780,933 471,630 698,1406 698,2338 0,1021 -261,2303 -784,3839 -533,1536 -1179,2896 -1945,4092 -393,576 -716,959 -969,1161 -261,192 -585,288 -978,296 -321,-8 -784,-53 -1404,-158 -1091,-200 -2548,-331 -4370,-383l-21672 0c-873,0 -1546,-192 -2025,-576 -471,-383 -715,-924 -715,-1622 0,-498 105,-854 313,-1073 202,-218 673,-506 1406,-846 506,-218 889,-490 1134,-813 243,-331 436,-803 575,-1431 560,-2573 848,-6046 848,-10408 0,-6579 -411,-10723 -1231,-12450 -167,-340 -358,-576 -558,-716 -210,-130 -638,-296 -1282,-480 -969,-296 -1457,-943 -1457,-1945 0,-550 165,-1029 488,-1457 323,-426 751,-706 1274,-846 663,-148 1954,-227 3866,-227z"/>
  <path id="2" fill="#BDBFC1" fill-rule="nonzero" d="M105667 98535l-3419 27c-2408,35 -4162,87 -5270,157 -986,78 -1692,123 -2120,123 -1038,0 -1867,-263 -2478,-794 -601,-523 -898,-1153 -898,-1885 0,-480 113,-854 331,-1124 227,-280 759,-698 1614,-1282 488,-341 829,-873 1021,-1597 183,-725 393,-2277 611,-4667 321,-3709 488,-8289 488,-13724 0,-1990 -132,-3316 -393,-3971 -270,-663 -889,-1204 -1859,-1622 -1124,-480 -1684,-1178 -1684,-2104 0,-750 331,-1361 1004,-1840 680,-471 1544,-715 2600,-715 576,0 1317,25 2225,78 1501,70 3115,105 4850,105 1282,0 3796,-53 7547,-158 1169,-35 2244,-52 3195,-52 2267,0 4091,183 5478,550 1387,366 2600,986 3621,1859 1667,1412 2503,3306 2503,5671 0,1178 -243,2320 -741,3438 -496,1116 -1159,2005 -1997,2668 -595,481 -891,916 -891,1309 0,428 358,786 1074,1073 1396,560 2670,1511 3804,2836 1178,1379 1770,3115 1770,5192 0,2452 -899,4694 -2687,6717 -2365,2678 -5873,4014 -10505,4014 -630,0 -2182,-43 -4650,-122 -2252,-88 -3631,-140 -4146,-158zm1764 -27735l0 5270c0,836 103,1421 321,1762 210,340 585,515 1109,515 1264,0 2189,-393 2791,-1169 593,-776 889,-1989 889,-3639 0,-1604 -305,-2843 -916,-3716 -620,-881 -1482,-1317 -2608,-1317 -593,0 -1013,165 -1239,498 -235,331 -348,933 -348,1797zm0 14727l0 2425c0,2234 165,3718 488,4450 323,733 978,1099 1972,1099 2582,0 3882,-1519 3882,-4555 0,-3777 -1449,-5671 -4345,-5671 -750,0 -1274,167 -1562,490 -286,323 -435,908 -435,1762z"/>
  <path id="3" fill="#BDBFC1" fill-rule="nonzero" d="M189921 83886c-646,0 -1056,202 -1239,593 -175,393 -271,1301 -271,2732 0,2164 140,3856 411,5060 87,340 217,611 383,794 175,192 498,418 978,690 1021,566 1526,1307 1526,2224 0,1126 -706,1920 -2129,2392 -1422,471 -3829,706 -7224,706 -6307,0 -9457,-1196 -9457,-3586 0,-401 95,-733 278,-978 192,-251 620,-593 1282,-1038 751,-498 1257,-1083 1519,-1754 261,-671 445,-1832 550,-3489 87,-1204 130,-5541 130,-13010 0,-2363 -122,-3977 -358,-4833 -243,-846 -750,-1466 -1534,-1857 -751,-358 -1257,-690 -1511,-986 -253,-296 -383,-690 -383,-1169 0,-628 245,-1178 733,-1641 480,-471 1161,-819 2032,-1038 733,-193 1737,-280 3011,-280 566,0 1970,78 4222,253 418,35 1099,52 2015,52 1536,0 3578,-105 6134,-305 1622,-122 2757,-183 3403,-183 3646,0 6666,881 9047,2635 2145,1587 3220,3777 3220,6596 0,1562 -376,2993 -1126,4275 -751,1291 -1780,2260 -3090,2905 -550,271 -819,595 -819,969 0,496 420,898 1256,1204 1789,645 3098,1631 3936,2940 829,1309 1431,3324 1789,6029 148,1124 375,1857 663,2189 288,333 959,655 2015,961 331,95 601,313 819,645 228,341 331,708 331,1118 0,523 -200,1056 -610,1596 -411,533 -943,961 -1589,1266 -1431,663 -3384,994 -5879,994 -3316,0 -5698,-873 -7129,-2635 -646,-776 -1196,-1770 -1649,-2958 -453,-1194 -986,-3053 -1597,-5575 -391,-1622 -889,-2757 -1491,-3429 -611,-663 -1476,-1019 -2600,-1073zm-1484 -13035l-280 5959c0,52 0,122 0,227 0,611 88,1021 271,1231 175,200 541,305 1081,305 1501,0 2592,-385 3273,-1161 690,-776 1029,-2015 1029,-3724 0,-3289 -1169,-4930 -3508,-4930 -663,0 -1134,157 -1404,461 -271,306 -428,848 -463,1632z"/>
  <path id="4" fill="#BDBFC1" fill-rule="nonzero" d="M232487 64902l12730 11141c1186,1038 2050,1562 2573,1562 889,0 1336,-951 1336,-2845 0,-2147 -132,-3613 -385,-4389 -253,-786 -794,-1379 -1614,-1770 -663,-323 -1134,-665 -1404,-1031 -271,-366 -411,-836 -411,-1421 0,-1431 986,-2348 2941,-2758 803,-173 2199,-261 4196,-261 2575,0 4354,157 5340,463 1571,480 2347,1377 2347,2713 0,1108 -636,1937 -1910,2503 -515,218 -863,420 -1046,585 -193,175 -350,428 -490,768 -461,1126 -698,3255 -715,6396l0 8333c0,1272 8,3018 25,5235 18,3001 -165,5165 -540,6491 -455,1657 -1292,2478 -2505,2487 -523,-8 -986,-113 -1369,-341 -375,-217 -1013,-733 -1902,-1526l-15155 -13576c-1056,-951 -1937,-1431 -2635,-1431 -1038,0 -1562,1439 -1562,4319 0,2363 140,3987 401,4860 261,863 803,1509 1624,1910 1143,566 1709,1299 1709,2199 0,2373 -2547,3559 -7643,3559 -2293,0 -4082,-305 -5356,-908 -1264,-610 -1902,-1466 -1902,-2573 0,-576 122,-1013 358,-1301 235,-286 776,-680 1614,-1178 803,-480 1282,-1317 1457,-2530 288,-2199 436,-5356 436,-9484 0,-4397 -261,-7598 -768,-9615 -192,-733 -428,-1272 -716,-1631 -296,-358 -768,-698 -1431,-1021 -768,-375 -1299,-741 -1606,-1099 -296,-358 -445,-794 -445,-1309 0,-1631 1404,-2660 4222,-3088 951,-140 2618,-210 5008,-210 1361,0 2357,113 2976,323 618,210 1361,698 2215,1449z"/>
  <path fill="#201E1E" fill-rule="nonzero" d="M18131 2783l15443 13516c1441,1261 2488,1895 3123,1895 1079,0 1619,-1154 1619,-3451 0,-2603 -158,-4382 -465,-5325 -308,-953 -964,-1672 -1959,-2149 -804,-391 -1376,-804 -1704,-1249 -328,-443 -498,-1016 -498,-1724 0,-1737 1196,-2848 3568,-3346 974,-212 2667,-316 5092,-316 3121,0 5281,190 6477,560 1905,583 2848,1674 2848,3293 0,1344 -773,2350 -2318,3038 -625,265 -1048,508 -1271,710 -233,212 -423,518 -593,931 -561,1366 -846,3947 -868,7758l0 10108c0,1546 12,3663 32,6352 22,3641 -200,6266 -656,7875 -550,2010 -1566,3006 -3038,3016 -635,-10 -1196,-138 -1661,-413 -456,-265 -1229,-889 -2308,-1852l-18386 -16471c-1281,-1153 -2350,-1736 -3196,-1736 -1259,0 -1895,1747 -1895,5240 0,2868 170,4837 488,5896 316,1048 973,1830 1969,2318 1386,688 2074,1576 2074,2667 0,2880 -3090,4319 -9272,4319 -2783,0 -4953,-370 -6499,-1101 -1534,-741 -2307,-1779 -2307,-3123 0,-698 148,-1228 433,-1577 286,-348 943,-824 1959,-1429 974,-581 1556,-1597 1767,-3070 350,-2667 530,-6499 530,-11506 0,-5335 -318,-9219 -931,-11664 -233,-889 -520,-1546 -868,-1979 -360,-435 -933,-848 -1737,-1239 -931,-455 -1576,-899 -1947,-1334 -360,-433 -540,-963 -540,-1587 0,-1979 1704,-3228 5123,-3748 1154,-168 3175,-253 6076,-253 1651,0 2858,137 3609,391 751,253 1651,846 2688,1757z"/>
  <path id="1" fill="#201E1E" fill-rule="nonzero" d="M70433 12702c3598,0 6647,909 9144,2730 1324,974 2255,2085 2785,3334 518,1249 783,2975 783,5165l-63 4615c0,3208 233,5281 688,6234 223,456 445,741 656,869 202,127 635,232 1302,338 656,105 984,540 984,1302 0,994 -391,2032 -1196,3101 -794,1079 -1820,1979 -3081,2698 -1556,911 -3175,1366 -4868,1366 -2170,0 -3884,-741 -5145,-2234 -433,-540 -836,-804 -1216,-804 -413,0 -953,255 -1642,773 -2064,1514 -4414,2265 -7039,2265 -2710,0 -4900,-581 -6572,-1736 -1091,-763 -1969,-1769 -2605,-2996 -645,-1228 -963,-2508 -963,-3852 0,-2159 868,-4054 2603,-5716 2710,-2603 6764,-3916 12164,-3937 1196,0 1947,-117 2265,-350 306,-243 455,-793 455,-1661 0,-2192 -223,-3779 -678,-4764 -455,-974 -1196,-1472 -2234,-1472 -625,0 -1174,192 -1662,561 -486,371 -1089,1048 -1809,2044 -1842,2625 -3769,3937 -5770,3937 -1016,0 -1842,-296 -2477,-899 -646,-593 -963,-1387 -963,-2350 0,-994 391,-1990 1196,-2985 793,-984 1874,-1852 3238,-2605 3738,-1979 7643,-2973 11719,-2973zm-2075 17951c-911,0 -1704,370 -2372,1123 -676,740 -1004,1629 -1004,2667 0,994 233,1789 710,2403 475,603 1099,909 1894,909 1651,0 2477,-1397 2477,-4181 0,-1143 -117,-1905 -360,-2297 -233,-391 -688,-603 -1344,-625z"/>
  <path id="2" fill="#201E1E" fill-rule="nonzero" d="M121696 11061c508,0 963,295 1366,878 391,593 581,1281 581,2064 0,848 -265,1810 -794,2890 -518,1069 -1153,1927 -1904,2573 -476,411 -710,740 -710,984 0,63 20,316 63,751 63,433 95,824 95,1174 0,2467 -836,4530 -2487,6203 -1482,1492 -3409,2647 -5748,3473 -2350,826 -4933,1238 -7738,1238 -688,0 -1354,-32 -2022,-117 -528,-63 -953,-95 -1238,-95 -1091,0 -1641,551 -1641,1641 0,710 360,1261 1069,1662 708,403 1682,603 2900,603 826,0 2042,-117 3663,-338 3386,-476 5884,-720 7505,-720 2433,0 4329,413 5673,1218 1069,613 1927,1481 2552,2603 635,1111 953,2318 953,3599 0,2085 -763,4107 -2298,6076 -1820,2317 -4499,4032 -8033,5143 -2773,868 -5969,1302 -9612,1302 -4594,0 -8308,-700 -11166,-2107 -1324,-656 -2372,-1534 -3166,-2603 -783,-1079 -1174,-2192 -1174,-3344 0,-816 223,-1557 666,-2234 445,-688 1006,-1176 1694,-1461 615,-255 933,-520 933,-804 0,-233 -265,-561 -784,-996 -1651,-1386 -2477,-2826 -2477,-4307 0,-996 403,-2022 1196,-3070 794,-1059 1779,-1874 2965,-2457 496,-243 741,-496 741,-740 0,-286 -308,-721 -933,-1302 -2127,-1969 -3196,-4256 -3196,-6890 0,-1377 381,-2700 1133,-3971 763,-1259 1810,-2328 3155,-3218 3323,-2169 7017,-3260 11061,-3260 1619,0 3419,212 5398,625 1884,370 3176,550 3874,550 2255,0 4499,-888 6732,-2657 498,-380 879,-560 1154,-560zm-16840 6414c-1038,0 -1864,391 -2498,1186 -635,783 -943,1820 -943,3121 0,2234 340,4022 1016,5366 688,1344 1589,2022 2700,2022 1101,0 1969,-423 2603,-1259 646,-836 964,-1959 964,-3366 0,-2212 -340,-3927 -1006,-5165 -678,-1229 -1619,-1864 -2836,-1905zm-6764 28220c-520,0 -773,306 -773,899 0,1218 656,2212 1979,2963 1324,751 3038,1133 5155,1133 2022,0 3609,-265 4754,-804 1153,-540 1726,-1291 1726,-2265 0,-518 -213,-953 -656,-1322 -435,-360 -964,-540 -1609,-540 -328,0 -804,42 -1429,127 -1154,180 -2445,275 -3874,275 -1049,0 -2065,-53 -3038,-148 -720,-63 -1312,-148 -1769,-253 -200,-43 -360,-63 -465,-63z"/>
  <path id="3" fill="#201E1E" fill-rule="nonzero" d="M156213 30780l-3726 8341c-635,1407 -1154,2350 -1546,2836 -401,488 -836,731 -1302,731 -455,0 -868,-192 -1218,-593 -222,-243 -751,-1154 -1566,-2720 -814,-1577 -1492,-2975 -2032,-4192l-4086 -9209c-561,-1281 -1154,-1927 -1769,-1927 -666,0 -1026,551 -1089,1652 -148,2433 -212,4689 -212,6752 0,2149 95,3609 306,4372 148,455 338,794 571,994 243,212 889,583 1937,1123 688,350 1028,953 1028,1820 0,2318 -2965,3483 -8902,3483 -5007,0 -7505,-1133 -7505,-3388 0,-571 127,-994 391,-1249 255,-263 921,-645 2000,-1164 678,-316 1144,-741 1376,-1269 245,-540 445,-1589 605,-3133 190,-1662 360,-4372 530,-8141 168,-3777 243,-7007 243,-9695 0,-3366 -255,-5653 -773,-6849 -180,-413 -391,-730 -636,-931 -232,-212 -688,-476 -1344,-804 -1471,-710 -2202,-1619 -2202,-2732 0,-730 276,-1386 816,-1989 550,-593 1281,-1016 2190,-1271 911,-265 2129,-498 3641,-698 1526,-192 2806,-296 3864,-296 2647,0 4520,222 5610,656 540,200 964,486 1271,836 318,348 763,1079 1334,2170l6456 11875c700,1302 1186,2095 1451,2392 275,286 646,435 1123,435 413,0 773,-158 1101,-466 316,-306 698,-889 1133,-1736l4370 -8531c540,-1091 889,-1810 1048,-2139 1018,-2064 2022,-3439 3018,-4129 1259,-888 3556,-1332 6880,-1332 5853,0 8774,1332 8774,4001 0,603 -117,1079 -338,1451 -233,360 -700,793 -1397,1312 -953,720 -1546,1767 -1800,3133 -476,2846 -708,6329 -708,10415 0,5271 243,9897 740,13867 128,973 318,1629 573,1979 263,360 931,878 2000,1587 751,498 1121,1154 1121,1980 0,1449 -963,2477 -2890,3070 -994,338 -2032,550 -3133,656 -1089,105 -2773,148 -5048,158 -3493,-10 -6098,-255 -7811,-751 -1905,-561 -2858,-1504 -2858,-2848 0,-496 127,-909 370,-1228 255,-318 889,-909 1927,-1757 540,-433 899,-1271 1101,-2508 190,-1239 296,-3344 296,-6329 0,-1652 -85,-2732 -233,-3250 -158,-520 -486,-773 -984,-773 -571,0 -1133,391 -1672,1184 -540,804 -1344,2382 -2413,4764z"/>
  <path id="4" fill="#201E1E" fill-rule="nonzero" d="M199283 12702c3598,0 6647,909 9144,2730 1324,974 2255,2085 2785,3334 518,1249 783,2975 783,5165l-63 4615c0,3208 233,5281 688,6234 223,456 445,741 656,869 202,127 635,232 1302,338 656,105 984,540 984,1302 0,994 -391,2032 -1196,3101 -794,1079 -1820,1979 -3081,2698 -1556,911 -3175,1366 -4868,1366 -2170,0 -3884,-741 -5145,-2234 -433,-540 -836,-804 -1216,-804 -413,0 -953,255 -1642,773 -2064,1514 -4414,2265 -7039,2265 -2710,0 -4900,-581 -6572,-1736 -1091,-763 -1969,-1769 -2605,-2996 -645,-1228 -963,-2508 -963,-3852 0,-2159 868,-4054 2603,-5716 2710,-2603 6764,-3916 12164,-3937 1196,0 1947,-117 2265,-350 306,-243 455,-793 455,-1661 0,-2192 -223,-3779 -678,-4764 -455,-974 -1196,-1472 -2234,-1472 -625,0 -1174,192 -1662,561 -486,371 -1089,1048 -1809,2044 -1842,2625 -3769,3937 -5770,3937 -1016,0 -1842,-296 -2477,-899 -646,-593 -963,-1387 -963,-2350 0,-994 391,-1990 1196,-2985 793,-984 1874,-1852 3238,-2605 3738,-1979 7643,-2973 11719,-2973zm-2075 17951c-911,0 -1704,370 -2372,1123 -676,740 -1004,1629 -1004,2667 0,994 233,1789 710,2403 475,603 1099,909 1894,909 1651,0 2477,-1397 2477,-4181 0,-1143 -117,-1905 -360,-2297 -233,-391 -688,-603 -1344,-625z"/>
  <path id="5" fill="#201E1E" fill-rule="nonzero" d="M232772 12891c1261,0 2044,107 2362,318 306,222 465,761 465,1629 0,763 243,1154 741,1154 202,0 899,-391 2075,-1186 889,-593 2022,-1101 3398,-1502 1376,-403 2613,-603 3736,-603 2625,0 4975,909 7039,2730 1567,1387 2795,3133 3663,5240 911,2212 1366,4540 1366,6975 0,5208 -1757,9505 -5271,12871 -2710,2625 -5789,3937 -9251,3937 -1757,0 -3558,-413 -5420,-1238 -371,-170 -678,-255 -899,-255 -625,0 -933,625 -933,1862 0,1642 551,2816 1641,3536 1018,688 1621,1143 1822,1387 190,232 285,635 285,1184 0,1249 -688,2202 -2074,2870 -1387,676 -3334,1016 -5864,1016 -4477,0 -8404,-899 -11782,-2700 -1714,-909 -2572,-2042 -2572,-3386 0,-615 127,-1091 391,-1409 255,-316 753,-656 1504,-1004 1069,-498 1726,-1397 1969,-2700 233,-1302 413,-5048 540,-11231 -148,-5080 -328,-7938 -561,-8553 -85,-212 -202,-338 -350,-401 -158,-63 -666,-180 -1534,-350 -666,-117 -1208,-423 -1619,-911 -413,-486 -615,-1068 -615,-1746 0,-836 286,-1556 868,-2192 571,-635 1514,-1249 2816,-1840 5070,-2298 9092,-3463 12065,-3504zm3070 11717l-465 8531c-22,350 -32,688 -32,1016 0,646 275,1166 836,1557 561,391 1301,593 2234,593 2858,0 4275,-2350 4275,-7040 0,-3048 -593,-5187 -1789,-6424 -751,-763 -1641,-1144 -2667,-1144 -1472,0 -2265,964 -2393,2911z"/>
  <path id="6" fill="none" fill-rule="nonzero" stroke="#201E1E" stroke-width="1269.16" d="M18131 2783l15443 13516c1441,1261 2488,1895 3123,1895 1079,0 1619,-1154 1619,-3451 0,-2603 -158,-4382 -465,-5325 -308,-953 -964,-1672 -1959,-2149 -804,-391 -1376,-804 -1704,-1249 -328,-443 -498,-1016 -498,-1724 0,-1737 1196,-2848 3568,-3346 974,-212 2667,-316 5092,-316 3121,0 5281,190 6477,560 1905,583 2848,1674 2848,3293 0,1344 -773,2350 -2318,3038 -625,265 -1048,508 -1271,710 -233,212 -423,518 -593,931 -561,1366 -846,3947 -868,7758l0 10108c0,1546 12,3663 32,6352 22,3641 -200,6266 -656,7875 -550,2010 -1566,3006 -3038,3016 -635,-10 -1196,-138 -1661,-413 -456,-265 -1229,-889 -2308,-1852l-18386 -16471c-1281,-1153 -2350,-1736 -3196,-1736 -1259,0 -1895,1747 -1895,5240 0,2868 170,4837 488,5896 316,1048 973,1830 1969,2318 1386,688 2074,1576 2074,2667 0,2880 -3090,4319 -9272,4319 -2783,0 -4953,-370 -6499,-1101 -1534,-741 -2307,-1779 -2307,-3123 0,-698 148,-1228 433,-1577 286,-348 943,-824 1959,-1429 974,-581 1556,-1597 1767,-3070 350,-2667 530,-6499 530,-11506 0,-5335 -318,-9219 -931,-11664 -233,-889 -520,-1546 -868,-1979 -360,-435 -933,-848 -1737,-1239 -931,-455 -1576,-899 -1947,-1334 -360,-433 -540,-963 -540,-1587 0,-1979 1704,-3228 5123,-3748 1154,-168 3175,-253 6076,-253 1651,0 2858,137 3609,391 751,253 1651,846 2688,1757z"/>
  <path id="7" fill="none" fill-rule="nonzero" stroke="#201E1E" stroke-width="1269.16" d="M70433 12702c3598,0 6647,909 9144,2730 1324,974 2255,2085 2785,3334 518,1249 783,2975 783,5165l-63 4615c0,3208 233,5281 688,6234 223,456 445,741 656,869 202,127 635,232 1302,338 656,105 984,540 984,1302 0,994 -391,2032 -1196,3101 -794,1079 -1820,1979 -3081,2698 -1556,911 -3175,1366 -4868,1366 -2170,0 -3884,-741 -5145,-2234 -433,-540 -836,-804 -1216,-804 -413,0 -953,255 -1642,773 -2064,1514 -4414,2265 -7039,2265 -2710,0 -4900,-581 -6572,-1736 -1091,-763 -1969,-1769 -2605,-2996 -645,-1228 -963,-2508 -963,-3852 0,-2159 868,-4054 2603,-5716 2710,-2603 6764,-3916 12164,-3937 1196,0 1947,-117 2265,-350 306,-243 455,-793 455,-1661 0,-2192 -223,-3779 -678,-4764 -455,-974 -1196,-1472 -2234,-1472 -625,0 -1174,192 -1662,561 -486,371 -1089,1048 -1809,2044 -1842,2625 -3769,3937 -5770,3937 -1016,0 -1842,-296 -2477,-899 -646,-593 -963,-1387 -963,-2350 0,-994 391,-1990 1196,-2985 793,-984 1874,-1852 3238,-2605 3738,-1979 7643,-2973 11719,-2973zm-2075 17951c-911,0 -1704,370 -2372,1123 -676,740 -1004,1629 -1004,2667 0,994 233,1789 710,2403 475,603 1099,909 1894,909 1651,0 2477,-1397 2477,-4181 0,-1143 -117,-1905 -360,-2297 -233,-391 -688,-603 -1344,-625z"/>
  <path id="8" fill="none" fill-rule="nonzero" stroke="#201E1E" stroke-width="1269.16" d="M121696 11061c508,0 963,295 1366,878 391,593 581,1281 581,2064 0,848 -265,1810 -794,2890 -518,1069 -1153,1927 -1904,2573 -476,411 -710,740 -710,984 0,63 20,316 63,751 63,433 95,824 95,1174 0,2467 -836,4530 -2487,6203 -1482,1492 -3409,2647 -5748,3473 -2350,826 -4933,1238 -7738,1238 -688,0 -1354,-32 -2022,-117 -528,-63 -953,-95 -1238,-95 -1091,0 -1641,551 -1641,1641 0,710 360,1261 1069,1662 708,403 1682,603 2900,603 826,0 2042,-117 3663,-338 3386,-476 5884,-720 7505,-720 2433,0 4329,413 5673,1218 1069,613 1927,1481 2552,2603 635,1111 953,2318 953,3599 0,2085 -763,4107 -2298,6076 -1820,2317 -4499,4032 -8033,5143 -2773,868 -5969,1302 -9612,1302 -4594,0 -8308,-700 -11166,-2107 -1324,-656 -2372,-1534 -3166,-2603 -783,-1079 -1174,-2192 -1174,-3344 0,-816 223,-1557 666,-2234 445,-688 1006,-1176 1694,-1461 615,-255 933,-520 933,-804 0,-233 -265,-561 -784,-996 -1651,-1386 -2477,-2826 -2477,-4307 0,-996 403,-2022 1196,-3070 794,-1059 1779,-1874 2965,-2457 496,-243 741,-496 741,-740 0,-286 -308,-721 -933,-1302 -2127,-1969 -3196,-4256 -3196,-6890 0,-1377 381,-2700 1133,-3971 763,-1259 1810,-2328 3155,-3218 3323,-2169 7017,-3260 11061,-3260 1619,0 3419,212 5398,625 1884,370 3176,550 3874,550 2255,0 4499,-888 6732,-2657 498,-380 879,-560 1154,-560zm-16840 6414c-1038,0 -1864,391 -2498,1186 -635,783 -943,1820 -943,3121 0,2234 340,4022 1016,5366 688,1344 1589,2022 2700,2022 1101,0 1969,-423 2603,-1259 646,-836 964,-1959 964,-3366 0,-2212 -340,-3927 -1006,-5165 -678,-1229 -1619,-1864 -2836,-1905zm-6764 28220c-520,0 -773,306 -773,899 0,1218 656,2212 1979,2963 1324,751 3038,1133 5155,1133 2022,0 3609,-265 4754,-804 1153,-540 1726,-1291 1726,-2265 0,-518 -213,-953 -656,-1322 -435,-360 -964,-540 -1609,-540 -328,0 -804,42 -1429,127 -1154,180 -2445,275 -3874,275 -1049,0 -2065,-53 -3038,-148 -720,-63 -1312,-148 -1769,-253 -200,-43 -360,-63 -465,-63z"/>
  <path id="9" fill="none" fill-rule="nonzero" stroke="#201E1E" stroke-width="1269.16" d="M156213 30780l-3726 8341c-635,1407 -1154,2350 -1546,2836 -401,488 -836,731 -1302,731 -455,0 -868,-192 -1218,-593 -222,-243 -751,-1154 -1566,-2720 -814,-1577 -1492,-2975 -2032,-4192l-4086 -9209c-561,-1281 -1154,-1927 -1769,-1927 -666,0 -1026,551 -1089,1652 -148,2433 -212,4689 -212,6752 0,2149 95,3609 306,4372 148,455 338,794 571,994 243,212 889,583 1937,1123 688,350 1028,953 1028,1820 0,2318 -2965,3483 -8902,3483 -5007,0 -7505,-1133 -7505,-3388 0,-571 127,-994 391,-1249 255,-263 921,-645 2000,-1164 678,-316 1144,-741 1376,-1269 245,-540 445,-1589 605,-3133 190,-1662 360,-4372 530,-8141 168,-3777 243,-7007 243,-9695 0,-3366 -255,-5653 -773,-6849 -180,-413 -391,-730 -636,-931 -232,-212 -688,-476 -1344,-804 -1471,-710 -2202,-1619 -2202,-2732 0,-730 276,-1386 816,-1989 550,-593 1281,-1016 2190,-1271 911,-265 2129,-498 3641,-698 1526,-192 2806,-296 3864,-296 2647,0 4520,222 5610,656 540,200 964,486 1271,836 318,348 763,1079 1334,2170l6456 11875c700,1302 1186,2095 1451,2392 275,286 646,435 1123,435 413,0 773,-158 1101,-466 316,-306 698,-889 1133,-1736l4370 -8531c540,-1091 889,-1810 1048,-2139 1018,-2064 2022,-3439 3018,-4129 1259,-888 3556,-1332 6880,-1332 5853,0 8774,1332 8774,4001 0,603 -117,1079 -338,1451 -233,360 -700,793 -1397,1312 -953,720 -1546,1767 -1800,3133 -476,2846 -708,6329 -708,10415 0,5271 243,9897 740,13867 128,973 318,1629 573,1979 263,360 931,878 2000,1587 751,498 1121,1154 1121,1980 0,1449 -963,2477 -2890,3070 -994,338 -2032,550 -3133,656 -1089,105 -2773,148 -5048,158 -3493,-10 -6098,-255 -7811,-751 -1905,-561 -2858,-1504 -2858,-2848 0,-496 127,-909 370,-1228 255,-318 889,-909 1927,-1757 540,-433 899,-1271 1101,-2508 190,-1239 296,-3344 296,-6329 0,-1652 -85,-2732 -233,-3250 -158,-520 -486,-773 -984,-773 -571,0 -1133,391 -1672,1184 -540,804 -1344,2382 -2413,4764z"/>
  <path id="10" fill="none" fill-rule="nonzero" stroke="#201E1E" stroke-width="1269.16" d="M199283 12702c3598,0 6647,909 9144,2730 1324,974 2255,2085 2785,3334 518,1249 783,2975 783,5165l-63 4615c0,3208 233,5281 688,6234 223,456 445,741 656,869 202,127 635,232 1302,338 656,105 984,540 984,1302 0,994 -391,2032 -1196,3101 -794,1079 -1820,1979 -3081,2698 -1556,911 -3175,1366 -4868,1366 -2170,0 -3884,-741 -5145,-2234 -433,-540 -836,-804 -1216,-804 -413,0 -953,255 -1642,773 -2064,1514 -4414,2265 -7039,2265 -2710,0 -4900,-581 -6572,-1736 -1091,-763 -1969,-1769 -2605,-2996 -645,-1228 -963,-2508 -963,-3852 0,-2159 868,-4054 2603,-5716 2710,-2603 6764,-3916 12164,-3937 1196,0 1947,-117 2265,-350 306,-243 455,-793 455,-1661 0,-2192 -223,-3779 -678,-4764 -455,-974 -1196,-1472 -2234,-1472 -625,0 -1174,192 -1662,561 -486,371 -1089,1048 -1809,2044 -1842,2625 -3769,3937 -5770,3937 -1016,0 -1842,-296 -2477,-899 -646,-593 -963,-1387 -963,-2350 0,-994 391,-1990 1196,-2985 793,-984 1874,-1852 3238,-2605 3738,-1979 7643,-2973 11719,-2973zm-2075 17951c-911,0 -1704,370 -2372,1123 -676,740 -1004,1629 -1004,2667 0,994 233,1789 710,2403 475,603 1099,909 1894,909 1651,0 2477,-1397 2477,-4181 0,-1143 -117,-1905 -360,-2297 -233,-391 -688,-603 -1344,-625z"/>
  <path id="11" fill="none" fill-rule="nonzero" stroke="#201E1E" stroke-width="1269.16" d="M232772 12891c1261,0 2044,107 2362,318 306,222 465,761 465,1629 0,763 243,1154 741,1154 202,0 899,-391 2075,-1186 889,-593 2022,-1101 3398,-1502 1376,-403 2613,-603 3736,-603 2625,0 4975,909 7039,2730 1567,1387 2795,3133 3663,5240 911,2212 1366,4540 1366,6975 0,5208 -1757,9505 -5271,12871 -2710,2625 -5789,3937 -9251,3937 -1757,0 -3558,-413 -5420,-1238 -371,-170 -678,-255 -899,-255 -625,0 -933,625 -933,1862 0,1642 551,2816 1641,3536 1018,688 1621,1143 1822,1387 190,232 285,635 285,1184 0,1249 -688,2202 -2074,2870 -1387,676 -3334,1016 -5864,1016 -4477,0 -8404,-899 -11782,-2700 -1714,-909 -2572,-2042 -2572,-3386 0,-615 127,-1091 391,-1409 255,-316 753,-656 1504,-1004 1069,-498 1726,-1397 1969,-2700 233,-1302 413,-5048 540,-11231 -148,-5080 -328,-7938 -561,-8553 -85,-212 -202,-338 -350,-401 -158,-63 -666,-180 -1534,-350 -666,-117 -1208,-423 -1619,-911 -413,-486 -615,-1068 -615,-1746 0,-836 286,-1556 868,-2192 571,-635 1514,-1249 2816,-1840 5070,-2298 9092,-3463 12065,-3504zm3070 11717l-465 8531c-22,350 -32,688 -32,1016 0,646 275,1166 836,1557 561,391 1301,593 2234,593 2858,0 4275,-2350 4275,-7040 0,-3048 -593,-5187 -1789,-6424 -751,-763 -1641,-1144 -2667,-1144 -1472,0 -2265,964 -2393,2911z"/>
  <path fill="#201E1E" fill-rule="nonzero" d="M18881 80931c-646,0 -1056,202 -1239,593 -175,393 -271,1301 -271,2732 0,2164 140,3856 411,5060 87,340 217,611 383,794 175,192 498,418 978,690 1021,566 1526,1307 1526,2224 0,1126 -706,1920 -2129,2392 -1422,471 -3829,706 -7224,706 -6307,0 -9457,-1196 -9457,-3586 0,-401 95,-733 278,-978 192,-251 620,-593 1282,-1038 751,-498 1257,-1083 1519,-1754 261,-671 445,-1832 550,-3489 87,-1204 130,-5541 130,-13010 0,-2363 -122,-3977 -358,-4833 -243,-846 -750,-1466 -1534,-1857 -751,-358 -1257,-690 -1511,-986 -253,-296 -383,-690 -383,-1169 0,-628 245,-1178 733,-1641 480,-471 1161,-819 2032,-1038 733,-193 1737,-280 3011,-280 566,0 1970,78 4222,253 418,35 1099,52 2015,52 1536,0 3578,-105 6134,-305 1622,-122 2757,-183 3403,-183 3646,0 6666,881 9047,2635 2145,1587 3220,3777 3220,6596 0,1562 -376,2993 -1126,4275 -751,1291 -1780,2260 -3090,2905 -550,271 -819,595 -819,969 0,496 420,898 1256,1204 1789,645 3098,1631 3936,2940 829,1309 1431,3324 1789,6029 148,1124 375,1857 663,2189 288,333 959,655 2015,961 331,95 601,313 819,645 228,341 331,708 331,1118 0,523 -200,1056 -610,1596 -411,533 -943,961 -1589,1266 -1431,663 -3384,994 -5879,994 -3316,0 -5698,-873 -7129,-2635 -646,-776 -1196,-1770 -1649,-2958 -453,-1194 -986,-3053 -1597,-5575 -391,-1622 -889,-2757 -1491,-3429 -611,-663 -1476,-1019 -2600,-1073zm-1484 -13035l-280 5959c0,52 0,122 0,227 0,611 88,1021 271,1231 175,200 541,305 1081,305 1501,0 2592,-385 3273,-1161 690,-776 1029,-2015 1029,-3724 0,-3289 -1169,-4930 -3508,-4930 -663,0 -1134,157 -1404,461 -271,306 -428,848 -463,1632z"/>
  <path id="1" fill="#201E1E" fill-rule="nonzero" d="M52680 60716l13130 0c2662,0 4599,-53 5819,-167 1223,-113 2408,-340 3569,-680 356,-97 636,-148 838,-148 889,0 1674,471 2355,1431 1126,1552 1684,3419 1684,5618 0,1109 -237,1980 -698,2627 -471,636 -1118,951 -1929,951 -566,0 -1003,-113 -1317,-340 -313,-227 -741,-751 -1264,-1544 -751,-1144 -1702,-1912 -2853,-2295 -1153,-385 -3036,-576 -5663,-576 -1964,0 -3150,358 -3578,1056 -227,375 -356,873 -401,1509 -35,628 -60,2234 -60,4825 0,1021 173,1657 515,1902 340,253 1229,375 2678,375 715,0 1239,-148 1562,-445 321,-305 531,-838 610,-1597 123,-994 245,-1666 375,-2032 123,-366 358,-690 700,-959 356,-306 776,-463 1256,-463 698,0 1291,331 1789,994 358,498 663,1371 908,2627 243,1248 375,2557 375,3917 0,2697 -420,4903 -1257,6622 -461,943 -1159,1404 -2094,1404 -585,0 -986,-148 -1204,-445 -218,-296 -391,-916 -515,-1849 -253,-1929 -1377,-2888 -3368,-2888 -768,0 -1291,235 -1571,723 -286,490 -426,1387 -426,2697 0,803 60,1840 165,3106 113,1274 227,2112 350,2522 130,506 558,863 1264,1056 708,200 1885,296 3543,296 2557,0 4475,-331 5776,-986 1291,-655 2347,-1840 3166,-3569 481,-986 908,-1649 1292,-1989 383,-340 881,-515 1491,-515 716,0 1309,315 1780,933 471,630 698,1406 698,2338 0,1021 -261,2303 -784,3839 -533,1536 -1179,2896 -1945,4092 -393,576 -716,959 -969,1161 -261,192 -585,288 -978,296 -321,-8 -784,-53 -1404,-158 -1091,-200 -2548,-331 -4370,-383l-21672 0c-873,0 -1546,-192 -2025,-576 -471,-383 -715,-924 -715,-1622 0,-498 105,-854 313,-1073 202,-218 673,-506 1406,-846 506,-218 889,-490 1134,-813 243,-331 436,-803 575,-1431 560,-2573 848,-6046 848,-10408 0,-6579 -411,-10723 -1231,-12450 -167,-340 -358,-576 -558,-716 -210,-130 -638,-296 -1282,-480 -969,-296 -1457,-943 -1457,-1945 0,-550 165,-1029 488,-1457 323,-426 751,-706 1274,-846 663,-148 1954,-227 3866,-227z"/>
  <path id="2" fill="#201E1E" fill-rule="nonzero" d="M101991 95580l-3419 27c-2408,35 -4162,87 -5270,157 -986,78 -1692,123 -2120,123 -1038,0 -1867,-263 -2478,-794 -601,-523 -898,-1153 -898,-1885 0,-480 113,-854 331,-1124 227,-280 759,-698 1614,-1282 488,-341 829,-873 1021,-1597 183,-725 393,-2277 611,-4667 321,-3709 488,-8289 488,-13724 0,-1990 -132,-3316 -393,-3971 -270,-663 -889,-1204 -1859,-1622 -1124,-480 -1684,-1178 -1684,-2104 0,-750 331,-1361 1004,-1840 680,-471 1544,-715 2600,-715 576,0 1317,25 2225,78 1501,70 3115,105 4850,105 1282,0 3796,-53 7547,-158 1169,-35 2244,-52 3195,-52 2267,0 4091,183 5478,550 1387,366 2600,986 3621,1859 1667,1412 2503,3306 2503,5671 0,1178 -243,2320 -741,3438 -496,1116 -1159,2005 -1997,2668 -595,481 -891,916 -891,1309 0,428 358,786 1074,1073 1396,560 2670,1511 3804,2836 1178,1379 1770,3115 1770,5192 0,2452 -899,4694 -2687,6717 -2365,2678 -5873,4014 -10505,4014 -630,0 -2182,-43 -4650,-122 -2252,-88 -3631,-140 -4146,-158zm1764 -27735l0 5270c0,836 103,1421 321,1762 210,340 585,515 1109,515 1264,0 2189,-393 2791,-1169 593,-776 889,-1989 889,-3639 0,-1604 -305,-2843 -916,-3716 -620,-881 -1482,-1317 -2608,-1317 -593,0 -1013,165 -1239,498 -235,331 -348,933 -348,1797zm0 14727l0 2425c0,2234 165,3718 488,4450 323,733 978,1099 1972,1099 2582,0 3882,-1519 3882,-4555 0,-3777 -1449,-5671 -4345,-5671 -750,0 -1274,167 -1562,490 -286,323 -435,908 -435,1762z"/>
  <path id="3" fill="#201E1E" fill-rule="nonzero" d="M186245 80931c-646,0 -1056,202 -1239,593 -175,393 -271,1301 -271,2732 0,2164 140,3856 411,5060 87,340 217,611 383,794 175,192 498,418 978,690 1021,566 1526,1307 1526,2224 0,1126 -706,1920 -2129,2392 -1422,471 -3829,706 -7224,706 -6307,0 -9457,-1196 -9457,-3586 0,-401 95,-733 278,-978 192,-251 620,-593 1282,-1038 751,-498 1257,-1083 1519,-1754 261,-671 445,-1832 550,-3489 87,-1204 130,-5541 130,-13010 0,-2363 -122,-3977 -358,-4833 -243,-846 -750,-1466 -1534,-1857 -751,-358 -1257,-690 -1511,-986 -253,-296 -383,-690 -383,-1169 0,-628 245,-1178 733,-1641 480,-471 1161,-819 2032,-1038 733,-193 1737,-280 3011,-280 566,0 1970,78 4222,253 418,35 1099,52 2015,52 1536,0 3578,-105 6134,-305 1622,-122 2757,-183 3403,-183 3646,0 6666,881 9047,2635 2145,1587 3220,3777 3220,6596 0,1562 -376,2993 -1126,4275 -751,1291 -1780,2260 -3090,2905 -550,271 -819,595 -819,969 0,496 420,898 1256,1204 1789,645 3098,1631 3936,2940 829,1309 1431,3324 1789,6029 148,1124 375,1857 663,2189 288,333 959,655 2015,961 331,95 601,313 819,645 228,341 331,708 331,1118 0,523 -200,1056 -610,1596 -411,533 -943,961 -1589,1266 -1431,663 -3384,994 -5879,994 -3316,0 -5698,-873 -7129,-2635 -646,-776 -1196,-1770 -1649,-2958 -453,-1194 -986,-3053 -1597,-5575 -391,-1622 -889,-2757 -1491,-3429 -611,-663 -1476,-1019 -2600,-1073zm-1484 -13035l-280 5959c0,52 0,122 0,227 0,611 88,1021 271,1231 175,200 541,305 1081,305 1501,0 2592,-385 3273,-1161 690,-776 1029,-2015 1029,-3724 0,-3289 -1169,-4930 -3508,-4930 -663,0 -1134,157 -1404,461 -271,306 -428,848 -463,1632z"/>
  <path id="4" fill="#201E1E" fill-rule="nonzero" d="M228811 61947l12730 11141c1186,1038 2050,1562 2573,1562 889,0 1336,-951 1336,-2845 0,-2147 -132,-3613 -385,-4389 -253,-786 -794,-1379 -1614,-1770 -663,-323 -1134,-665 -1404,-1031 -271,-366 -411,-836 -411,-1421 0,-1431 986,-2348 2941,-2758 803,-173 2199,-261 4196,-261 2575,0 4354,157 5340,463 1571,480 2347,1377 2347,2713 0,1108 -636,1937 -1910,2503 -515,218 -863,420 -1046,585 -193,175 -350,428 -490,768 -461,1126 -698,3255 -715,6396l0 8333c0,1272 8,3018 25,5235 18,3001 -165,5165 -540,6491 -455,1657 -1292,2478 -2505,2487 -523,-8 -986,-113 -1369,-341 -375,-217 -1013,-733 -1902,-1526l-15155 -13576c-1056,-951 -1937,-1431 -2635,-1431 -1038,0 -1562,1439 -1562,4319 0,2363 140,3987 401,4860 261,863 803,1509 1624,1910 1143,566 1709,1299 1709,2199 0,2373 -2547,3559 -7643,3559 -2293,0 -4082,-305 -5356,-908 -1264,-610 -1902,-1466 -1902,-2573 0,-576 122,-1013 358,-1301 235,-286 776,-680 1614,-1178 803,-480 1282,-1317 1457,-2530 288,-2199 436,-5356 436,-9484 0,-4397 -261,-7598 -768,-9615 -192,-733 -428,-1272 -716,-1631 -296,-358 -768,-698 -1431,-1021 -768,-375 -1299,-741 -1606,-1099 -296,-358 -445,-794 -445,-1309 0,-1631 1404,-2660 4222,-3088 951,-140 2618,-210 5008,-210 1361,0 2357,113 2976,323 618,210 1361,698 2215,1449z"/>
  <path id="5" fill="none" fill-rule="nonzero" stroke="#201E1E" stroke-width="1269.16" d="M18881 80931c-646,0 -1056,202 -1239,593 -175,393 -271,1301 -271,2732 0,2164 140,3856 411,5060 87,340 217,611 383,794 175,192 498,418 978,690 1021,566 1526,1307 1526,2224 0,1126 -706,1920 -2129,2392 -1422,471 -3829,706 -7224,706 -6307,0 -9457,-1196 -9457,-3586 0,-401 95,-733 278,-978 192,-251 620,-593 1282,-1038 751,-498 1257,-1083 1519,-1754 261,-671 445,-1832 550,-3489 87,-1204 130,-5541 130,-13010 0,-2363 -122,-3977 -358,-4833 -243,-846 -750,-1466 -1534,-1857 -751,-358 -1257,-690 -1511,-986 -253,-296 -383,-690 -383,-1169 0,-628 245,-1178 733,-1641 480,-471 1161,-819 2032,-1038 733,-193 1737,-280 3011,-280 566,0 1970,78 4222,253 418,35 1099,52 2015,52 1536,0 3578,-105 6134,-305 1622,-122 2757,-183 3403,-183 3646,0 6666,881 9047,2635 2145,1587 3220,3777 3220,6596 0,1562 -376,2993 -1126,4275 -751,1291 -1780,2260 -3090,2905 -550,271 -819,595 -819,969 0,496 420,898 1256,1204 1789,645 3098,1631 3936,2940 829,1309 1431,3324 1789,6029 148,1124 375,1857 663,2189 288,333 959,655 2015,961 331,95 601,313 819,645 228,341 331,708 331,1118 0,523 -200,1056 -610,1596 -411,533 -943,961 -1589,1266 -1431,663 -3384,994 -5879,994 -3316,0 -5698,-873 -7129,-2635 -646,-776 -1196,-1770 -1649,-2958 -453,-1194 -986,-3053 -1597,-5575 -391,-1622 -889,-2757 -1491,-3429 -611,-663 -1476,-1019 -2600,-1073zm-1484 -13035l-280 5959c0,52 0,122 0,227 0,611 88,1021 271,1231 175,200 541,305 1081,305 1501,0 2592,-385 3273,-1161 690,-776 1029,-2015 1029,-3724 0,-3289 -1169,-4930 -3508,-4930 -663,0 -1134,157 -1404,461 -271,306 -428,848 -463,1632z"/>
  <path id="6" fill="none" fill-rule="nonzero" stroke="#201E1E" stroke-width="1269.16" d="M52680 60716l13130 0c2662,0 4599,-53 5819,-167 1223,-113 2408,-340 3569,-680 356,-97 636,-148 838,-148 889,0 1674,471 2355,1431 1126,1552 1684,3419 1684,5618 0,1109 -237,1980 -698,2627 -471,636 -1118,951 -1929,951 -566,0 -1003,-113 -1317,-340 -313,-227 -741,-751 -1264,-1544 -751,-1144 -1702,-1912 -2853,-2295 -1153,-385 -3036,-576 -5663,-576 -1964,0 -3150,358 -3578,1056 -227,375 -356,873 -401,1509 -35,628 -60,2234 -60,4825 0,1021 173,1657 515,1902 340,253 1229,375 2678,375 715,0 1239,-148 1562,-445 321,-305 531,-838 610,-1597 123,-994 245,-1666 375,-2032 123,-366 358,-690 700,-959 356,-306 776,-463 1256,-463 698,0 1291,331 1789,994 358,498 663,1371 908,2627 243,1248 375,2557 375,3917 0,2697 -420,4903 -1257,6622 -461,943 -1159,1404 -2094,1404 -585,0 -986,-148 -1204,-445 -218,-296 -391,-916 -515,-1849 -253,-1929 -1377,-2888 -3368,-2888 -768,0 -1291,235 -1571,723 -286,490 -426,1387 -426,2697 0,803 60,1840 165,3106 113,1274 227,2112 350,2522 130,506 558,863 1264,1056 708,200 1885,296 3543,296 2557,0 4475,-331 5776,-986 1291,-655 2347,-1840 3166,-3569 481,-986 908,-1649 1292,-1989 383,-340 881,-515 1491,-515 716,0 1309,315 1780,933 471,630 698,1406 698,2338 0,1021 -261,2303 -784,3839 -533,1536 -1179,2896 -1945,4092 -393,576 -716,959 -969,1161 -261,192 -585,288 -978,296 -321,-8 -784,-53 -1404,-158 -1091,-200 -2548,-331 -4370,-383l-21672 0c-873,0 -1546,-192 -2025,-576 -471,-383 -715,-924 -715,-1622 0,-498 105,-854 313,-1073 202,-218 673,-506 1406,-846 506,-218 889,-490 1134,-813 243,-331 436,-803 575,-1431 560,-2573 848,-6046 848,-10408 0,-6579 -411,-10723 -1231,-12450 -167,-340 -358,-576 -558,-716 -210,-130 -638,-296 -1282,-480 -969,-296 -1457,-943 -1457,-1945 0,-550 165,-1029 488,-1457 323,-426 751,-706 1274,-846 663,-148 1954,-227 3866,-227z"/>
  <path id="7" fill="none" fill-rule="nonzero" stroke="#201E1E" stroke-width="1269.16" d="M101991 95580l-3419 27c-2408,35 -4162,87 -5270,157 -986,78 -1692,123 -2120,123 -1038,0 -1867,-263 -2478,-794 -601,-523 -898,-1153 -898,-1885 0,-480 113,-854 331,-1124 227,-280 759,-698 1614,-1282 488,-341 829,-873 1021,-1597 183,-725 393,-2277 611,-4667 321,-3709 488,-8289 488,-13724 0,-1990 -132,-3316 -393,-3971 -270,-663 -889,-1204 -1859,-1622 -1124,-480 -1684,-1178 -1684,-2104 0,-750 331,-1361 1004,-1840 680,-471 1544,-715 2600,-715 576,0 1317,25 2225,78 1501,70 3115,105 4850,105 1282,0 3796,-53 7547,-158 1169,-35 2244,-52 3195,-52 2267,0 4091,183 5478,550 1387,366 2600,986 3621,1859 1667,1412 2503,3306 2503,5671 0,1178 -243,2320 -741,3438 -496,1116 -1159,2005 -1997,2668 -595,481 -891,916 -891,1309 0,428 358,786 1074,1073 1396,560 2670,1511 3804,2836 1178,1379 1770,3115 1770,5192 0,2452 -899,4694 -2687,6717 -2365,2678 -5873,4014 -10505,4014 -630,0 -2182,-43 -4650,-122 -2252,-88 -3631,-140 -4146,-158zm1764 -27735l0 5270c0,836 103,1421 321,1762 210,340 585,515 1109,515 1264,0 2189,-393 2791,-1169 593,-776 889,-1989 889,-3639 0,-1604 -305,-2843 -916,-3716 -620,-881 -1482,-1317 -2608,-1317 -593,0 -1013,165 -1239,498 -235,331 -348,933 -348,1797zm0 14727l0 2425c0,2234 165,3718 488,4450 323,733 978,1099 1972,1099 2582,0 3882,-1519 3882,-4555 0,-3777 -1449,-5671 -4345,-5671 -750,0 -1274,167 -1562,490 -286,323 -435,908 -435,1762z"/>
  <path id="8" fill="none" fill-rule="nonzero" stroke="#201E1E" stroke-width="1269.16" d="M186245 80931c-646,0 -1056,202 -1239,593 -175,393 -271,1301 -271,2732 0,2164 140,3856 411,5060 87,340 217,611 383,794 175,192 498,418 978,690 1021,566 1526,1307 1526,2224 0,1126 -706,1920 -2129,2392 -1422,471 -3829,706 -7224,706 -6307,0 -9457,-1196 -9457,-3586 0,-401 95,-733 278,-978 192,-251 620,-593 1282,-1038 751,-498 1257,-1083 1519,-1754 261,-671 445,-1832 550,-3489 87,-1204 130,-5541 130,-13010 0,-2363 -122,-3977 -358,-4833 -243,-846 -750,-1466 -1534,-1857 -751,-358 -1257,-690 -1511,-986 -253,-296 -383,-690 -383,-1169 0,-628 245,-1178 733,-1641 480,-471 1161,-819 2032,-1038 733,-193 1737,-280 3011,-280 566,0 1970,78 4222,253 418,35 1099,52 2015,52 1536,0 3578,-105 6134,-305 1622,-122 2757,-183 3403,-183 3646,0 6666,881 9047,2635 2145,1587 3220,3777 3220,6596 0,1562 -376,2993 -1126,4275 -751,1291 -1780,2260 -3090,2905 -550,271 -819,595 -819,969 0,496 420,898 1256,1204 1789,645 3098,1631 3936,2940 829,1309 1431,3324 1789,6029 148,1124 375,1857 663,2189 288,333 959,655 2015,961 331,95 601,313 819,645 228,341 331,708 331,1118 0,523 -200,1056 -610,1596 -411,533 -943,961 -1589,1266 -1431,663 -3384,994 -5879,994 -3316,0 -5698,-873 -7129,-2635 -646,-776 -1196,-1770 -1649,-2958 -453,-1194 -986,-3053 -1597,-5575 -391,-1622 -889,-2757 -1491,-3429 -611,-663 -1476,-1019 -2600,-1073zm-1484 -13035l-280 5959c0,52 0,122 0,227 0,611 88,1021 271,1231 175,200 541,305 1081,305 1501,0 2592,-385 3273,-1161 690,-776 1029,-2015 1029,-3724 0,-3289 -1169,-4930 -3508,-4930 -663,0 -1134,157 -1404,461 -271,306 -428,848 -463,1632z"/>
  <path id="9" fill="none" fill-rule="nonzero" stroke="#201E1E" stroke-width="1269.16" d="M228811 61947l12730 11141c1186,1038 2050,1562 2573,1562 889,0 1336,-951 1336,-2845 0,-2147 -132,-3613 -385,-4389 -253,-786 -794,-1379 -1614,-1770 -663,-323 -1134,-665 -1404,-1031 -271,-366 -411,-836 -411,-1421 0,-1431 986,-2348 2941,-2758 803,-173 2199,-261 4196,-261 2575,0 4354,157 5340,463 1571,480 2347,1377 2347,2713 0,1108 -636,1937 -1910,2503 -515,218 -863,420 -1046,585 -193,175 -350,428 -490,768 -461,1126 -698,3255 -715,6396l0 8333c0,1272 8,3018 25,5235 18,3001 -165,5165 -540,6491 -455,1657 -1292,2478 -2505,2487 -523,-8 -986,-113 -1369,-341 -375,-217 -1013,-733 -1902,-1526l-15155 -13576c-1056,-951 -1937,-1431 -2635,-1431 -1038,0 -1562,1439 -1562,4319 0,2363 140,3987 401,4860 261,863 803,1509 1624,1910 1143,566 1709,1299 1709,2199 0,2373 -2547,3559 -7643,3559 -2293,0 -4082,-305 -5356,-908 -1264,-610 -1902,-1466 -1902,-2573 0,-576 122,-1013 358,-1301 235,-286 776,-680 1614,-1178 803,-480 1282,-1317 1457,-2530 288,-2199 436,-5356 436,-9484 0,-4397 -261,-7598 -768,-9615 -192,-733 -428,-1272 -716,-1631 -296,-358 -768,-698 -1431,-1021 -768,-375 -1299,-741 -1606,-1099 -296,-358 -445,-794 -445,-1309 0,-1631 1404,-2660 4222,-3088 951,-140 2618,-210 5008,-210 1361,0 2357,113 2976,323 618,210 1361,698 2215,1449z"/>
  <g id="_671154768">
   <path id="svg_2_0" fill="#007F00" d="M147624 116274c-1272,-6243 -3514,-11439 -6229,-16254 -2015,-3571 -4349,-6869 -6509,-10331 -720,-1156 -1342,-2378 -2035,-3578 -1384,-2400 -2507,-5182 -2437,-8791 70,-3526 1089,-6354 2560,-8666 2418,-3804 6471,-6922 11905,-7742 4444,-670 8611,461 11566,2190 2415,1411 4284,3298 5706,5520 1482,2320 2505,5062 2590,8636 43,1832 -256,3528 -678,4935 -428,1424 -1116,2615 -1727,3886 -1194,2483 -2692,4757 -4196,7032 -4475,6779 -8676,13691 -10516,23163l0 0z"/>
   <circle id="svg_4_1" fill="#155400" cx="147578" cy="77281" r="5860"/>
  </g>
 </g>
</svg>
