<?xml version="1.0" encoding="UTF-8"?>
<!DOCTYPE svg PUBLIC "-//W3C//DTD SVG 1.1//EN" "http://www.w3.org/Graphics/SVG/1.1/DTD/svg11.dtd">
<!-- Creator: CorelDRAW X6 -->
<svg xmlns="http://www.w3.org/2000/svg" xml:space="preserve" width="40px" height="34px" version="1.1" shape-rendering="geometricPrecision" text-rendering="geometricPrecision" image-rendering="optimizeQuality" fill-rule="evenodd" clip-rule="evenodd"
viewBox="0 0 16971 14546"
 xmlns:xlink="http://www.w3.org/1999/xlink">
 <g id="Layer_x0020_1">
  <metadata id="CorelCorpID_0Corel-Layer"/>
  <path fill="#201E1E" d="M3723 -1l11950 0c714,0 1298,584 1298,1298l0 11950c0,714 -584,1298 -1298,1298l-11950 0c-714,0 -1298,-584 -1298,-1298l0 -3551 -2424 -2424 2424 -2424 0 -3551c0,-714 584,-1298 1298,-1298zm4891 9658l0 -297c0,-953 75,-1553 222,-1799 150,-249 544,-607 1180,-1079 335,-246 567,-473 699,-685 131,-211 196,-473 196,-787 0,-388 -123,-693 -369,-916 -247,-222 -544,-331 -894,-331 -926,0 -1448,653 -1563,1959l-2152 -305c163,-1183 594,-2080 1298,-2687 704,-607 1563,-910 2578,-910 1036,0 1903,297 2604,894 701,597 1052,1352 1052,2267 0,1135 -581,2085 -1745,2848 -506,335 -814,597 -921,784 -107,187 -161,535 -161,1044l-2023 0zm2409 3067l-2457 0 0 -2361 2457 0 0 2361z"/>
 </g>
</svg>
