<?xml version="1.0" encoding="UTF-8"?>
<!DOCTYPE svg PUBLIC "-//W3C//DTD SVG 1.1//EN" "http://www.w3.org/Graphics/SVG/1.1/DTD/svg11.dtd">
<!-- Creator: CorelDRAW X6 -->
<svg xmlns="http://www.w3.org/2000/svg" xml:space="preserve" width="61px" height="32px" version="1.1" shape-rendering="geometricPrecision" text-rendering="geometricPrecision" image-rendering="optimizeQuality" fill-rule="evenodd" clip-rule="evenodd"
viewBox="0 0 26580 13954"
 xmlns:xlink="http://www.w3.org/1999/xlink">
 <g id="Layer_x0020_1">
  <metadata id="CorelCorpID_0Corel-Layer"/>
  <g id="_734577984">
   <rect fill="none" width="26580" height="13954"/>
   <path fill="#FEFEFE" fill-rule="nonzero" d="M2036 2348l1567 1372c146,128 252,192 317,192 110,0 164,-117 164,-350 0,-264 -16,-444 -47,-540 -31,-96 -97,-169 -198,-218 -82,-40 -140,-81 -173,-127 -33,-45 -50,-103 -50,-175 0,-176 122,-289 362,-339 98,-21 270,-32 516,-32 317,0 536,19 657,57 194,59 289,170 289,334 0,136 -78,238 -235,308 -63,27 -107,52 -129,72 -24,22 -43,53 -60,94 -57,139 -86,401 -88,787l0 1025c0,157 1,371 3,644 2,369 -21,636 -66,799 -56,204 -159,305 -309,306 -64,-1 -121,-14 -168,-42 -46,-27 -125,-90 -234,-188l-1865 -1671c-130,-117 -238,-176 -324,-176 -128,0 -192,177 -192,532 0,291 17,491 49,598 32,107 99,186 200,235 141,70 210,160 210,270 0,292 -313,438 -940,438 -282,0 -503,-38 -659,-112 -156,-75 -234,-180 -234,-317 0,-71 15,-125 44,-160 29,-35 95,-83 198,-145 99,-59 158,-162 180,-312 35,-270 54,-659 54,-1167 0,-541 -32,-935 -95,-1184 -24,-90 -53,-157 -88,-201 -37,-44 -94,-85 -176,-126 -94,-46 -160,-91 -197,-135 -37,-44 -55,-98 -55,-161 0,-201 173,-328 520,-380 117,-18 322,-26 616,-26 168,0 290,14 366,40 76,26 168,86 273,178z"/>
   <path id="1" fill="#FEFEFE" fill-rule="nonzero" d="M7342 3354c365,0 674,92 928,277 134,98 229,211 282,338 53,127 80,302 80,524l-7 468c0,326 24,536 70,632 23,46 45,75 66,88 21,13 64,24 132,35 67,11 100,55 100,132 0,101 -40,206 -121,315 -81,110 -185,201 -313,274 -158,92 -322,139 -494,139 -220,0 -394,-75 -522,-227 -44,-55 -85,-82 -124,-82 -42,0 -97,26 -166,79 -210,153 -448,230 -714,230 -275,0 -497,-59 -667,-176 -110,-77 -199,-179 -264,-304 -65,-125 -97,-254 -97,-391 0,-219 88,-412 264,-580 275,-264 686,-398 1234,-400 122,0 198,-12 230,-36 31,-24 46,-80 46,-168 0,-222 -23,-383 -69,-483 -46,-99 -122,-149 -227,-149 -63,0 -119,20 -169,57 -49,38 -110,106 -183,207 -187,266 -382,400 -585,400 -104,0 -187,-30 -251,-92 -66,-60 -98,-141 -98,-238 0,-101 40,-201 122,-302 80,-100 190,-188 329,-264 379,-201 775,-302 1189,-302zm-211 1821c-92,0 -173,38 -241,114 -69,75 -102,165 -102,270 0,101 24,182 72,244 48,61 111,92 192,92 167,0 251,-142 251,-424 0,-116 -12,-193 -37,-233 -24,-40 -70,-61 -136,-63z"/>
   <path id="2" fill="#FEFEFE" fill-rule="nonzero" d="M12542 3188c52,0 98,30 139,89 40,60 59,130 59,209 0,86 -27,184 -81,293 -53,109 -117,196 -193,261 -48,42 -72,75 -72,100 0,6 3,32 7,76 6,44 10,84 10,119 0,250 -85,460 -252,629 -150,151 -346,268 -583,352 -238,84 -501,126 -785,126 -70,0 -137,-3 -205,-12 -54,-6 -96,-10 -126,-10 -110,0 -166,56 -166,167 0,72 37,128 109,168 72,41 170,61 294,61 84,0 207,-12 371,-35 344,-48 597,-73 762,-73 247,0 439,42 575,124 109,62 196,150 259,264 64,113 96,235 96,365 0,212 -77,417 -233,617 -185,235 -456,409 -815,522 -281,88 -606,132 -975,132 -466,0 -843,-71 -1133,-214 -134,-66 -241,-156 -321,-264 -79,-110 -119,-222 -119,-339 0,-83 22,-158 67,-227 45,-70 102,-119 172,-148 62,-26 94,-53 94,-81 0,-24 -27,-57 -79,-101 -167,-141 -251,-287 -251,-437 0,-101 41,-205 122,-312 80,-107 180,-190 300,-249 50,-25 75,-50 75,-75 0,-29 -31,-73 -94,-132 -216,-200 -324,-432 -324,-699 0,-140 39,-274 115,-403 77,-128 184,-236 320,-327 337,-220 712,-331 1122,-331 164,0 347,22 548,63 191,38 322,56 393,56 229,0 456,-90 683,-269 50,-39 89,-57 117,-57zm-1708 650c-105,0 -189,40 -253,121 -64,79 -96,184 -96,317 0,227 35,408 104,544 70,136 161,205 273,205 112,0 200,-43 264,-128 65,-85 98,-199 98,-341 0,-225 -35,-399 -102,-524 -69,-125 -164,-189 -288,-193zm-686 2863c-53,0 -79,31 -79,91 0,124 67,225 201,301 134,76 309,115 523,115 205,0 366,-27 482,-82 117,-55 175,-131 175,-230 0,-53 -22,-97 -67,-134 -44,-37 -97,-55 -163,-55 -33,0 -82,5 -145,13 -117,19 -248,28 -393,28 -106,0 -210,-5 -308,-15 -73,-6 -133,-15 -180,-26 -20,-4 -36,-6 -47,-6z"/>
   <path id="3" fill="#FEFEFE" fill-rule="nonzero" d="M16045 5189l-378 846c-64,143 -117,238 -157,288 -41,49 -85,74 -132,74 -46,0 -88,-20 -124,-60 -23,-25 -76,-117 -159,-276 -82,-160 -151,-302 -206,-425l-415 -934c-57,-130 -117,-195 -179,-195 -67,0 -104,56 -111,167 -15,247 -21,476 -21,685 0,218 9,366 31,443 15,46 35,81 58,101 25,22 90,59 196,114 70,36 104,97 104,185 0,235 -300,353 -903,353 -508,0 -761,-115 -761,-344 0,-58 13,-101 40,-127 26,-27 93,-65 203,-118 69,-32 116,-75 140,-129 25,-55 45,-161 61,-318 19,-168 37,-443 54,-826 17,-384 25,-711 25,-984 0,-341 -26,-574 -78,-695 -19,-42 -40,-74 -64,-95 -24,-21 -70,-48 -136,-81 -149,-72 -224,-164 -224,-277 0,-74 28,-141 83,-202 56,-60 130,-103 222,-129 93,-27 216,-50 370,-71 155,-19 284,-30 392,-30 268,0 458,23 569,66 55,21 97,49 129,85 32,36 77,109 135,220l655 1205c71,132 121,212 147,243 28,29 65,44 114,44 42,0 78,-16 112,-47 32,-31 71,-91 115,-176l443 -866c55,-111 90,-183 107,-217 103,-210 205,-349 306,-419 128,-90 361,-135 698,-135 594,0 891,135 891,406 0,61 -12,110 -35,147 -24,37 -71,80 -142,133 -97,73 -157,180 -183,318 -48,288 -72,642 -72,1056 0,535 25,1004 75,1407 13,98 32,165 58,200 27,37 94,89 203,161 76,50 114,117 114,201 0,147 -98,251 -293,312 -101,34 -206,56 -318,66 -111,11 -282,15 -512,16 -354,-1 -619,-26 -793,-76 -193,-57 -290,-152 -290,-289 0,-50 13,-92 38,-124 26,-32 91,-93 196,-179 55,-44 91,-129 112,-254 19,-126 30,-339 30,-642 0,-167 -9,-277 -24,-330 -16,-53 -49,-78 -100,-78 -58,0 -115,40 -169,121 -55,81 -136,242 -245,483z"/>
   <path id="4" fill="#FEFEFE" fill-rule="nonzero" d="M20414 3354c365,0 674,92 928,277 134,98 229,211 282,338 53,127 80,302 80,524l-7 468c0,326 24,536 70,632 23,46 45,75 66,88 21,13 64,24 132,35 67,11 100,55 100,132 0,101 -40,206 -121,315 -81,110 -185,201 -313,274 -158,92 -322,139 -494,139 -220,0 -394,-75 -522,-227 -44,-55 -85,-82 -124,-82 -42,0 -97,26 -166,79 -210,153 -448,230 -714,230 -275,0 -497,-59 -667,-176 -110,-77 -199,-179 -264,-304 -65,-125 -97,-254 -97,-391 0,-219 88,-412 264,-580 275,-264 686,-398 1234,-400 122,0 198,-12 230,-36 31,-24 46,-80 46,-168 0,-222 -23,-383 -69,-483 -46,-99 -122,-149 -227,-149 -63,0 -119,20 -169,57 -49,38 -110,106 -183,207 -187,266 -382,400 -585,400 -104,0 -187,-30 -251,-92 -66,-60 -98,-141 -98,-238 0,-101 40,-201 122,-302 80,-100 190,-188 329,-264 379,-201 775,-302 1189,-302zm-211 1821c-92,0 -173,38 -241,114 -69,75 -102,165 -102,270 0,101 24,182 72,244 48,61 111,92 192,92 167,0 251,-142 251,-424 0,-116 -12,-193 -37,-233 -24,-40 -70,-61 -136,-63z"/>
   <path id="5" fill="#FEFEFE" fill-rule="nonzero" d="M23811 3374c128,0 208,11 239,32 31,23 47,77 47,165 0,77 25,117 75,117 21,0 91,-40 211,-120 90,-60 205,-112 345,-152 140,-41 265,-61 379,-61 266,0 505,92 714,277 159,141 283,318 371,532 92,224 139,460 139,708 0,528 -178,964 -535,1306 -275,266 -588,400 -939,400 -178,0 -361,-42 -550,-126 -38,-18 -69,-26 -91,-26 -63,0 -95,63 -95,189 0,166 56,285 166,358 103,70 164,116 185,141 19,24 29,64 29,121 0,127 -70,223 -210,291 -141,69 -338,103 -595,103 -454,0 -852,-91 -1195,-274 -174,-92 -261,-207 -261,-344 0,-62 13,-111 40,-143 26,-32 76,-67 152,-102 109,-50 175,-142 200,-274 24,-132 42,-512 55,-1139 -15,-516 -33,-806 -57,-868 -9,-22 -21,-35 -36,-41 -16,-7 -67,-19 -156,-36 -67,-12 -123,-43 -164,-92 -42,-49 -62,-109 -62,-177 0,-85 29,-158 88,-222 58,-64 153,-127 286,-187 514,-233 922,-351 1224,-355zm312 1189l-47 866c-2,36 -3,70 -3,103 0,65 28,118 85,158 57,40 132,60 227,60 290,0 434,-238 434,-714 0,-310 -60,-526 -181,-652 -76,-77 -166,-116 -271,-116 -149,0 -230,98 -243,295z"/>
   <path fill="#FEFEFE" fill-rule="nonzero" d="M2114 10279c-65,0 -107,21 -126,60 -18,40 -27,132 -27,277 0,219 14,391 42,513 9,35 22,62 39,81 18,19 50,42 99,70 104,58 155,133 155,226 0,114 -72,195 -216,243 -144,48 -388,72 -733,72 -640,0 -959,-121 -959,-364 0,-41 10,-74 28,-99 20,-26 63,-60 130,-106 76,-50 128,-110 154,-178 27,-68 45,-186 56,-354 9,-122 13,-562 13,-1320 0,-240 -12,-404 -36,-490 -25,-86 -76,-149 -156,-189 -76,-36 -128,-70 -153,-100 -25,-30 -39,-70 -39,-118 0,-64 25,-119 74,-166 49,-48 118,-83 206,-106 75,-20 176,-28 305,-28 58,0 200,8 429,26 42,4 111,5 204,5 156,0 363,-10 622,-31 164,-12 279,-19 345,-19 370,0 676,90 917,267 218,161 327,383 327,669 0,159 -38,303 -114,434 -76,131 -181,229 -314,295 -56,27 -83,60 -83,98 0,50 42,91 127,122 182,65 314,165 399,298 84,133 145,337 182,611 15,114 38,189 67,222 29,34 97,66 204,97 33,10 61,32 83,66 23,35 34,72 34,113 0,54 -21,107 -62,162 -42,54 -96,97 -161,128 -145,67 -344,101 -596,101 -336,0 -578,-89 -723,-267 -65,-79 -121,-180 -167,-300 -46,-122 -100,-310 -162,-566 -40,-165 -90,-280 -151,-348 -62,-67 -149,-104 -264,-109zm-150 -1322l-28 605c0,5 0,12 0,23 0,62 9,104 27,125 18,20 55,31 110,31 152,0 263,-39 332,-118 70,-79 104,-204 104,-378 0,-334 -118,-500 -355,-500 -67,0 -115,16 -143,47 -27,31 -43,85 -47,165z"/>
   <path id="1" fill="#FEFEFE" fill-rule="nonzero" d="M5542 8229l1332 0c270,0 466,-5 590,-17 124,-11 244,-35 362,-69 36,-10 64,-15 84,-15 91,0 170,48 239,145 114,158 171,347 171,570 0,113 -24,201 -71,267 -48,64 -113,96 -196,96 -58,0 -102,-11 -134,-35 -31,-23 -75,-76 -128,-157 -76,-116 -173,-194 -289,-233 -116,-39 -308,-58 -574,-58 -199,0 -319,36 -363,107 -23,38 -37,89 -41,153 -4,63 -6,226 -6,489 0,104 18,168 52,193 35,26 125,38 272,38 73,0 126,-15 158,-45 33,-31 54,-85 62,-162 13,-101 25,-169 38,-206 12,-37 37,-70 71,-97 36,-31 79,-47 127,-47 71,0 131,33 181,101 37,50 67,139 92,266 25,127 38,259 38,397 0,273 -42,498 -127,672 -47,96 -118,143 -213,143 -59,0 -100,-15 -122,-45 -22,-30 -40,-93 -52,-187 -26,-196 -140,-293 -341,-293 -78,0 -131,24 -160,74 -29,49 -43,141 -43,273 0,81 6,186 17,315 11,129 23,214 35,255 13,52 57,88 129,107 72,21 191,30 359,30 260,0 454,-33 586,-100 131,-66 238,-186 321,-362 49,-100 92,-167 131,-202 39,-35 89,-53 151,-53 73,0 133,32 181,95 48,64 71,143 71,237 0,104 -26,233 -79,389 -54,156 -119,294 -197,415 -40,58 -73,97 -98,117 -27,20 -59,29 -99,30 -32,-1 -79,-6 -142,-16 -111,-21 -259,-34 -443,-39l-2198 0c-89,0 -157,-20 -206,-58 -47,-39 -72,-94 -72,-165 0,-50 10,-87 31,-109 21,-22 69,-52 143,-86 52,-22 90,-49 115,-82 25,-33 44,-81 59,-145 57,-261 85,-613 85,-1055 0,-667 -41,-1088 -125,-1263 -16,-35 -36,-59 -57,-73 -21,-13 -64,-30 -130,-49 -98,-30 -148,-95 -148,-197 0,-56 16,-104 49,-148 33,-43 76,-72 129,-85 67,-15 198,-23 392,-23z"/>
   <path id="2" fill="#FEFEFE" fill-rule="nonzero" d="M10544 11765l-347 3c-244,4 -422,9 -535,16 -100,8 -172,12 -215,12 -106,0 -190,-27 -251,-80 -61,-53 -91,-117 -91,-191 0,-49 11,-87 33,-114 23,-28 77,-71 164,-130 49,-35 84,-89 104,-162 19,-74 40,-231 62,-473 33,-376 49,-841 49,-1392 0,-202 -13,-336 -40,-403 -27,-67 -90,-122 -189,-164 -114,-49 -170,-119 -170,-213 0,-76 33,-138 101,-187 69,-48 157,-73 264,-73 59,0 134,3 226,8 152,7 316,10 492,10 130,0 385,-5 765,-16 118,-4 227,-5 324,-5 230,0 415,19 556,56 141,37 264,100 367,189 169,144 254,335 254,575 0,119 -25,235 -75,349 -50,113 -118,203 -203,271 -60,48 -90,93 -90,132 0,44 36,80 109,109 142,57 271,153 386,287 119,140 180,316 180,526 0,249 -91,476 -272,681 -240,272 -595,407 -1066,407 -63,0 -221,-5 -471,-12 -229,-9 -368,-14 -421,-16zm179 -2813l0 535c0,85 10,144 32,179 21,35 59,52 112,52 128,0 222,-40 283,-118 60,-79 90,-202 90,-369 0,-163 -31,-288 -93,-377 -63,-89 -150,-133 -265,-133 -60,0 -102,17 -126,50 -24,33 -35,95 -35,182zm0 1494l0 246c0,227 16,377 49,451 32,74 99,111 200,111 262,0 394,-153 394,-461 0,-383 -147,-575 -441,-575 -76,0 -129,16 -159,49 -29,33 -44,92 -44,179z"/>
   <path id="3" fill="#FEFEFE" fill-rule="nonzero" d="M19089 10279c-65,0 -107,21 -126,60 -18,40 -27,132 -27,277 0,219 14,391 42,513 9,35 22,62 39,81 18,19 50,42 99,70 104,58 155,133 155,226 0,114 -72,195 -216,243 -144,48 -388,72 -733,72 -640,0 -959,-121 -959,-364 0,-41 10,-74 28,-99 20,-26 63,-60 130,-106 76,-50 128,-110 154,-178 27,-68 45,-186 56,-354 9,-122 13,-562 13,-1320 0,-240 -12,-404 -36,-490 -25,-86 -76,-149 -156,-189 -76,-36 -128,-70 -153,-100 -25,-30 -39,-70 -39,-118 0,-64 25,-119 74,-166 49,-48 118,-83 206,-106 75,-20 176,-28 305,-28 58,0 200,8 429,26 42,4 111,5 204,5 156,0 363,-10 622,-31 164,-12 279,-19 345,-19 370,0 676,90 917,267 218,161 327,383 327,669 0,159 -38,303 -114,434 -76,131 -181,229 -314,295 -56,27 -83,60 -83,98 0,50 42,91 127,122 182,65 314,165 399,298 84,133 145,337 182,611 15,114 38,189 67,222 29,34 97,66 204,97 33,10 61,32 83,66 23,35 34,72 34,113 0,54 -21,107 -62,162 -42,54 -96,97 -161,128 -145,67 -344,101 -596,101 -336,0 -578,-89 -723,-267 -65,-79 -121,-180 -167,-300 -46,-122 -100,-310 -162,-566 -40,-165 -90,-280 -151,-348 -62,-67 -149,-104 -264,-109zm-150 -1322l-28 605c0,5 0,12 0,23 0,62 9,104 27,125 18,20 55,31 110,31 152,0 263,-39 332,-118 70,-79 104,-204 104,-378 0,-334 -118,-500 -355,-500 -67,0 -115,16 -143,47 -27,31 -43,85 -47,165z"/>
   <path id="4" fill="#FEFEFE" fill-rule="nonzero" d="M23407 8353l1291 1130c120,106 208,159 261,159 91,0 135,-96 135,-288 0,-218 -13,-366 -39,-445 -26,-80 -81,-140 -164,-180 -67,-33 -115,-67 -143,-105 -27,-37 -42,-85 -42,-144 0,-145 100,-238 298,-280 82,-18 223,-26 426,-26 261,0 441,15 541,47 160,48 238,140 238,275 0,112 -65,196 -194,254 -52,22 -88,43 -106,59 -20,18 -36,43 -49,78 -47,114 -71,330 -73,649l0 845c0,129 1,306 3,531 2,304 -16,524 -55,658 -46,168 -131,251 -254,252 -54,-1 -100,-12 -139,-35 -38,-22 -103,-75 -193,-155l-1537 -1377c-107,-96 -197,-145 -267,-145 -106,0 -159,146 -159,438 0,240 14,404 41,493 27,88 81,153 165,194 116,58 174,132 174,223 0,241 -259,361 -775,361 -233,0 -415,-31 -543,-92 -129,-62 -193,-149 -193,-261 0,-59 12,-102 37,-132 24,-29 78,-69 163,-119 81,-49 130,-134 148,-256 29,-223 44,-543 44,-962 0,-446 -26,-771 -78,-975 -20,-75 -43,-129 -73,-166 -30,-36 -78,-71 -145,-104 -78,-38 -132,-75 -163,-111 -30,-37 -45,-81 -45,-133 0,-165 142,-270 428,-313 96,-14 266,-21 508,-21 138,0 239,11 302,32 63,21 138,71 225,147z"/>
   <g>
    <path id="svg_2" fill="#007F00" d="M15174 13865c-129,-634 -356,-1161 -632,-1650 -204,-363 -441,-697 -660,-1049 -73,-117 -136,-242 -207,-363 -141,-244 -254,-526 -247,-893 7,-357 110,-645 260,-880 246,-386 657,-703 1208,-785 451,-68 874,47 1174,222 245,144 435,335 579,560 150,236 254,514 263,877 5,186 -26,358 -69,501 -44,144 -113,265 -176,394 -121,252 -273,483 -425,714 -454,688 -881,1390 -1068,2351l0 0z"/>
    <circle id="svg_4" fill="#155400" cx="15169" cy="9908" r="595"/>
   </g>
  </g>
 </g>
</svg>
