<?xml version="1.0" encoding="UTF-8"?>
<!DOCTYPE svg PUBLIC "-//W3C//DTD SVG 1.1//EN" "http://www.w3.org/Graphics/SVG/1.1/DTD/svg11.dtd">
<!-- Creator: CorelDRAW X6 -->
<svg xmlns="http://www.w3.org/2000/svg" xml:space="preserve" width="42px" height="42px" version="1.1" shape-rendering="geometricPrecision" text-rendering="geometricPrecision" image-rendering="optimizeQuality" fill-rule="evenodd" clip-rule="evenodd"
viewBox="0 0 13468 13468"
 xmlns:xlink="http://www.w3.org/1999/xlink">
 <g id="Layer_x0020_1">
  <metadata id="CorelCorpID_0Corel-Layer"/>
  <path fill="#FEFEFE" d="M6734 0c3719,0 6734,3015 6734,6734 0,3719 -3015,6734 -6734,6734 -3719,0 -6734,-3015 -6734,-6734 0,-3719 3015,-6734 6734,-6734zm1683 3648l0 0c463,0 842,379 842,842l0 4489c0,463 -379,842 -842,842l0 0c-463,0 -842,-379 -842,-842l0 -4489c0,-463 379,-842 842,-842zm-3367 0l0 0c463,0 842,379 842,842l0 4489c0,463 -379,842 -842,842l0 0c-463,0 -842,-379 -842,-842l0 -4489c0,-463 379,-842 842,-842z"/>
 </g>
</svg>
