<?xml version="1.0" encoding="UTF-8"?>
<!DOCTYPE svg PUBLIC "-//W3C//DTD SVG 1.1//EN" "http://www.w3.org/Graphics/SVG/1.1/DTD/svg11.dtd">
<!-- Creator: CorelDRAW X6 -->
<svg xmlns="http://www.w3.org/2000/svg" xml:space="preserve" width="42px" height="42px" version="1.1" shape-rendering="geometricPrecision" text-rendering="geometricPrecision" image-rendering="optimizeQuality" fill-rule="evenodd" clip-rule="evenodd"
viewBox="0 0 13282 13282"
 xmlns:xlink="http://www.w3.org/1999/xlink">
 <g id="Layer_x0020_1">
  <metadata id="CorelCorpID_0Corel-Layer"/>
  <path fill="#FEFEFE" d="M6641 0c3667,0 6641,2973 6641,6641 0,3667 -2973,6641 -6641,6641 -3667,0 -6641,-2973 -6641,-6641 0,-3667 2973,-6641 6641,-6641zm2877 6595c-20,-315 -356,-487 -565,-607l-2102 -1214c-46,-26 -76,-47 -123,-72l-993 -573c-152,-92 -349,-213 -526,-245 -272,-50 -455,82 -543,232 -119,201 -105,372 -105,678l0 3906c0,298 83,592 376,685 277,88 567,-92 792,-228l3356 -1937c260,-156 433,-300 433,-624z"/>
 </g>
</svg>
