<?xml version="1.0" encoding="UTF-8"?>
<!DOCTYPE svg PUBLIC "-//W3C//DTD SVG 1.1//EN" "http://www.w3.org/Graphics/SVG/1.1/DTD/svg11.dtd">
<!-- Creator: CorelDRAW X6 -->
<svg xmlns="http://www.w3.org/2000/svg" xml:space="preserve" width="296px" height="100px" version="1.1" shape-rendering="geometricPrecision" text-rendering="geometricPrecision" image-rendering="optimizeQuality" fill-rule="evenodd" clip-rule="evenodd"
viewBox="0 0 549723 184935"
 xmlns:xlink="http://www.w3.org/1999/xlink">
 <g id="Layer_x0020_1">
  <metadata id="CorelCorpID_0Corel-Layer"/>
  <rect fill="none" y="1" width="549723" height="181644"/>
  <path fill="#BDBFC1" fill-rule="nonzero" d="M231417 34456l20476 17922c1909,1670 3297,2512 4140,2512 1433,0 2148,-1529 2148,-4577 0,-3451 -211,-5810 -619,-7058 -406,-1264 -1277,-2218 -2595,-2850 -1066,-518 -1825,-1066 -2260,-1656 -434,-588 -660,-1347 -660,-2286 0,-2301 1586,-3776 4730,-4436 1292,-281 3537,-421 6751,-421 4140,0 7003,254 8589,744 2525,772 3776,2218 3776,4366 0,1781 -1025,3115 -3074,4028 -829,351 -1391,674 -1685,939 -309,281 -562,689 -785,1235 -744,1810 -1123,5235 -1152,10287l0 13403c0,2049 15,4855 44,8420 26,4829 -268,8308 -871,10443 -731,2666 -2078,3984 -4028,4000 -842,-15 -1586,-184 -2203,-548 -603,-351 -1628,-1178 -3061,-2455l-24377 -21838c-1698,-1529 -3115,-2301 -4239,-2301 -1670,0 -2512,2317 -2512,6948 0,3802 224,6413 645,7817 421,1389 1292,2426 2611,3074 1839,910 2751,2091 2751,3537 0,3815 -4098,5724 -12295,5724 -3690,0 -6566,-489 -8616,-1459 -2036,-983 -3061,-2358 -3061,-4140 0,-926 197,-1628 575,-2091 380,-463 1251,-1095 2598,-1896 1290,-770 2062,-2119 2343,-4070 463,-3537 702,-8616 702,-15254 0,-7073 -421,-12225 -1235,-15465 -309,-1180 -687,-2049 -1152,-2626 -476,-575 -1233,-1121 -2301,-1641 -1235,-603 -2091,-1193 -2582,-1768 -476,-575 -715,-1277 -715,-2106 0,-2624 2260,-4280 6792,-4967 1529,-224 4210,-338 8056,-338 2190,0 3789,184 4785,520 998,338 2190,1123 3565,2330z"/>
  <path id="1" fill="#BDBFC1" fill-rule="nonzero" d="M300759 47606c4772,0 8813,1207 12126,3620 1753,1292 2988,2764 3690,4421 689,1656 1040,3945 1040,6849l-86 6119c0,4252 309,7003 913,8267 294,603 590,981 871,1150 265,169 840,309 1724,450 871,140 1305,715 1305,1727 0,1319 -518,2694 -1586,4111 -1051,1430 -2413,2624 -4083,3578 -2062,1207 -4210,1810 -6457,1810 -2876,0 -5149,-981 -6819,-2960 -577,-717 -1110,-1068 -1615,-1068 -548,0 -1264,338 -2176,1025 -2736,2007 -5851,3003 -9331,3003 -3594,0 -6498,-770 -8716,-2301 -1446,-1009 -2611,-2343 -3453,-3971 -856,-1628 -1277,-3326 -1277,-5107 0,-2863 1152,-5375 3453,-7580 3594,-3451 8969,-5193 16125,-5219 1586,0 2582,-156 3003,-463 406,-325 603,-1053 603,-2205 0,-2905 -294,-5009 -897,-6314 -606,-1292 -1586,-1953 -2962,-1953 -829,0 -1558,254 -2205,746 -645,489 -1444,1389 -2398,2707 -2442,3482 -4998,5222 -7650,5222 -1347,0 -2442,-393 -3284,-1193 -856,-785 -1277,-1839 -1277,-3115 0,-1319 520,-2639 1586,-3958 1053,-1305 2484,-2455 4296,-3453 4954,-2624 10132,-3942 15535,-3942zm-2751 23802c-1207,0 -2260,491 -3144,1487 -897,983 -1332,2161 -1332,3537 0,1319 307,2372 939,3186 632,801 1459,1207 2512,1207 2190,0 3284,-1852 3284,-5544 0,-1514 -154,-2525 -476,-3045 -309,-518 -913,-799 -1784,-827z"/>
  <path id="2" fill="#BDBFC1" fill-rule="nonzero" d="M368726 45430c674,0 1277,393 1810,1165 520,788 772,1698 772,2738 0,1121 -351,2400 -1053,3831 -687,1417 -1529,2554 -2525,3409 -632,548 -941,983 -941,1305 0,86 29,421 86,998 83,575 125,1093 125,1558 0,3269 -1108,6005 -3297,8223 -1964,1979 -4519,3508 -7620,4603 -3115,1095 -6540,1643 -10259,1643 -913,0 -1797,-42 -2681,-156 -702,-83 -1264,-125 -1643,-125 -1446,0 -2174,728 -2174,2174 0,941 476,1670 1417,2205 939,533 2231,799 3846,799 1095,0 2707,-154 4855,-450 4491,-630 7804,-952 9949,-952 3229,0 5742,546 7523,1613 1417,814 2554,1966 3383,3453 840,1472 1262,3074 1262,4772 0,2764 -1009,5445 -3045,8054 -2413,3074 -5963,5349 -10652,6821 -3677,1152 -7916,1727 -12742,1727 -6093,0 -11018,-926 -14807,-2793 -1755,-869 -3144,-2034 -4197,-3451 -1038,-1433 -1558,-2907 -1558,-4436 0,-1079 296,-2062 884,-2962 590,-910 1334,-1558 2247,-1935 814,-338 1235,-689 1235,-1068 0,-307 -351,-744 -1040,-1319 -2190,-1839 -3282,-3747 -3282,-5711 0,-1321 533,-2681 1584,-4070 1053,-1404 2358,-2486 3929,-3256 660,-325 983,-660 983,-983 0,-380 -406,-954 -1235,-1727 -2819,-2611 -4236,-5643 -4236,-9136 0,-1825 505,-3580 1501,-5263 1011,-1670 2400,-3089 4182,-4267 4408,-2876 9304,-4322 14666,-4322 2148,0 4533,281 7157,827 2499,491 4210,731 5138,731 2988,0 5963,-1178 8925,-3523 660,-505 1165,-744 1529,-744zm-22328 8506c-1376,0 -2470,520 -3313,1571 -842,1040 -1248,2416 -1248,4140 0,2962 450,5333 1347,7117 913,1781 2104,2679 3578,2679 1459,0 2611,-562 3453,-1670 856,-1108 1277,-2595 1277,-4462 0,-2933 -450,-5206 -1334,-6849 -897,-1628 -2148,-2470 -3760,-2525zm-8969 37415c-687,0 -1025,406 -1025,1193 0,1613 871,2931 2624,3929 1755,996 4028,1501 6836,1501 2681,0 4785,-351 6301,-1066 1529,-715 2288,-1711 2288,-3003 0,-687 -281,-1264 -871,-1755 -575,-476 -1277,-715 -2132,-715 -437,0 -1066,57 -1896,169 -1529,239 -3243,364 -5136,364 -1389,0 -2738,-70 -4028,-195 -954,-86 -1740,-197 -2343,-338 -268,-55 -478,-83 -619,-83z"/>
  <path id="3" fill="#BDBFC1" fill-rule="nonzero" d="M414494 71577l-4941 11057c-842,1867 -1529,3115 -2049,3763 -533,645 -1108,968 -1727,968 -603,0 -1150,-252 -1613,-785 -296,-323 -998,-1529 -2078,-3607 -1082,-2091 -1979,-3945 -2694,-5557l-5419 -12211c-744,-1698 -1529,-2554 -2343,-2554 -884,0 -1360,731 -1446,2190 -195,3227 -281,6218 -281,8953 0,2850 127,4787 408,5796 195,603 450,1053 757,1321 323,279 1180,770 2569,1487 913,463 1360,1262 1360,2413 0,3074 -3929,4616 -11801,4616 -6639,0 -9952,-1501 -9952,-4491 0,-757 169,-1319 520,-1654 338,-351 1222,-858 2652,-1545 897,-421 1516,-983 1825,-1685 323,-715 588,-2104 799,-4153 252,-2203 478,-5796 702,-10792 224,-5011 323,-9291 323,-12856 0,-4462 -336,-7494 -1025,-9081 -239,-546 -518,-968 -842,-1233 -307,-281 -910,-632 -1781,-1068 -1950,-939 -2920,-2146 -2920,-3620 0,-968 366,-1839 1082,-2639 731,-785 1698,-1347 2905,-1683 1207,-351 2821,-660 4829,-926 2021,-254 3719,-395 5123,-395 3508,0 5992,296 7437,871 715,268 1277,645 1683,1108 421,465 1011,1433 1768,2878l8563 15746c926,1727 1571,2780 1922,3172 364,377 856,575 1487,575 546,0 1025,-211 1459,-616 421,-408 926,-1180 1503,-2304l5796 -11310c715,-1446 1178,-2400 1389,-2837 1347,-2736 2681,-4561 4000,-5472 1670,-1180 4715,-1768 9122,-1768 7760,0 11634,1768 11634,5305 0,799 -154,1430 -450,1922 -309,478 -926,1053 -1852,1740 -1264,954 -2049,2343 -2387,4155 -630,3774 -939,8392 -939,13809 0,6990 323,13122 983,18385 167,1292 419,2161 757,2624 351,478 1235,1165 2652,2106 996,658 1487,1529 1487,2624 0,1922 -1277,3284 -3831,4070 -1321,450 -2694,731 -4155,871 -1446,140 -3677,195 -6694,211 -4631,-15 -8085,-338 -10358,-998 -2525,-744 -3789,-1992 -3789,-3774 0,-660 169,-1207 491,-1628 336,-421 1178,-1207 2554,-2330 715,-575 1193,-1685 1459,-3326 252,-1643 393,-4436 393,-8394 0,-2187 -112,-3620 -307,-4307 -211,-689 -647,-1025 -1305,-1025 -759,0 -1503,518 -2218,1571 -715,1066 -1781,3157 -3199,6316z"/>
  <path id="4" fill="#BDBFC1" fill-rule="nonzero" d="M471597 47606c4772,0 8813,1207 12126,3620 1753,1292 2988,2764 3690,4421 689,1656 1040,3945 1040,6849l-86 6119c0,4252 309,7003 913,8267 294,603 590,981 871,1150 265,169 840,309 1724,450 871,140 1305,715 1305,1727 0,1319 -518,2694 -1586,4111 -1051,1430 -2413,2624 -4083,3578 -2062,1207 -4210,1810 -6457,1810 -2876,0 -5149,-981 -6819,-2960 -577,-717 -1110,-1068 -1615,-1068 -548,0 -1264,338 -2176,1025 -2736,2007 -5851,3003 -9331,3003 -3594,0 -6498,-770 -8716,-2301 -1446,-1009 -2611,-2343 -3453,-3971 -856,-1628 -1277,-3326 -1277,-5107 0,-2863 1152,-5375 3453,-7580 3594,-3451 8969,-5193 16125,-5219 1586,0 2582,-156 3003,-463 406,-325 603,-1053 603,-2205 0,-2905 -294,-5009 -897,-6314 -606,-1292 -1586,-1953 -2962,-1953 -829,0 -1558,254 -2205,746 -645,489 -1444,1389 -2398,2707 -2442,3482 -4998,5222 -7650,5222 -1347,0 -2442,-393 -3284,-1193 -856,-785 -1277,-1839 -1277,-3115 0,-1319 520,-2639 1586,-3958 1053,-1305 2484,-2455 4296,-3453 4954,-2624 10132,-3942 15535,-3942zm-2751 23802c-1207,0 -2260,491 -3144,1487 -897,983 -1332,2161 -1332,3537 0,1319 307,2372 939,3186 632,801 1459,1207 2512,1207 2190,0 3284,-1852 3284,-5544 0,-1514 -154,-2525 -476,-3045 -309,-518 -913,-799 -1784,-827z"/>
  <path id="5" fill="#BDBFC1" fill-rule="nonzero" d="M516002 47858c1670,0 2707,140 3129,421 408,294 619,1009 619,2161 0,1011 323,1529 983,1529 265,0 1191,-518 2749,-1571 1180,-785 2681,-1459 4506,-1994 1823,-533 3466,-799 4954,-799 3480,0 6595,1207 9333,3620 2078,1839 3706,4155 4855,6948 1207,2933 1810,6020 1810,9247 0,6904 -2330,12604 -6988,17067 -3594,3480 -7677,5219 -12266,5219 -2330,0 -4717,-546 -7185,-1641 -491,-224 -900,-338 -1193,-338 -829,0 -1235,829 -1235,2470 0,2176 731,3734 2174,4688 1349,913 2148,1516 2416,1839 252,307 377,842 377,1571 0,1656 -910,2920 -2749,3804 -1839,897 -4421,1347 -7775,1347 -5937,0 -11143,-1193 -15621,-3578 -2273,-1207 -3409,-2709 -3409,-4491 0,-814 167,-1446 518,-1867 338,-421 998,-871 1994,-1334 1417,-658 2286,-1852 2611,-3578 307,-1727 546,-6694 715,-14890 -197,-6738 -434,-10526 -744,-11340 -112,-281 -268,-448 -463,-533 -211,-83 -884,-239 -2036,-463 -884,-154 -1599,-562 -2148,-1207 -546,-645 -814,-1417 -814,-2315 0,-1110 380,-2064 1152,-2907 757,-840 2007,-1654 3734,-2442 6722,-3045 12053,-4587 15998,-4645zm4070 15535l-616 11312c-29,463 -44,913 -44,1347 0,856 366,1545 1110,2064 744,518 1724,785 2960,785 3791,0 5671,-3115 5671,-9333 0,-4041 -785,-6878 -2372,-8519 -998,-1011 -2176,-1516 -3537,-1516 -1950,0 -3003,1277 -3172,3859z"/>
  <path fill="#BDBFC1" fill-rule="nonzero" d="M232407 138072c-856,0 -1400,268 -1641,788 -233,520 -360,1724 -360,3620 0,2870 186,5114 544,6709 116,452 290,810 509,1053 230,254 660,555 1297,915 1351,750 2023,1735 2023,2949 0,1492 -937,2545 -2821,3170 -1887,625 -5079,937 -9579,937 -8363,0 -12540,-1584 -12540,-4754 0,-533 127,-972 371,-1297 254,-333 821,-785 1700,-1376 996,-660 1665,-1435 2014,-2326 347,-891 590,-2429 728,-4627 116,-1595 173,-7345 173,-17246 0,-3135 -162,-5276 -474,-6408 -325,-1123 -996,-1944 -2036,-2466 -996,-474 -1667,-913 -2001,-1305 -336,-395 -509,-915 -509,-1551 0,-834 323,-1562 970,-2174 636,-625 1540,-1088 2696,-1378 972,-254 2301,-369 3991,-369 753,0 2615,103 5599,336 555,46 1457,68 2672,68 2036,0 4743,-138 8133,-404 2150,-162 3655,-244 4511,-244 4835,0 8837,1169 11996,3493 2846,2106 4267,5009 4267,8745 0,2071 -496,3969 -1492,5669 -994,1711 -2358,2997 -4094,3853 -728,358 -1088,785 -1088,1283 0,660 555,1191 1665,1597 2372,856 4107,2163 5217,3899 1099,1735 1898,4408 2372,7992 197,1492 498,2464 880,2903 382,441 1272,869 2672,1272 439,127 799,417 1088,858 301,450 439,937 439,1481 0,693 -265,1400 -810,2115 -544,706 -1251,1272 -2106,1678 -1898,880 -4489,1319 -7797,1319 -4394,0 -7554,-1156 -9449,-3493 -858,-1031 -1586,-2350 -2187,-3923 -601,-1584 -1308,-4048 -2117,-7391 -520,-2152 -1180,-3655 -1977,-4546 -812,-880 -1955,-1354 -3449,-1424zm-1966 -17282l-371 7900c0,70 0,162 0,301 0,810 116,1354 360,1632 230,265 717,404 1435,404 1988,0 3433,-509 4337,-1538 913,-1029 1365,-2672 1365,-4939 0,-4362 -1551,-6536 -4651,-6536 -878,0 -1503,206 -1863,612 -358,406 -566,1121 -612,2163z"/>
  <path id="1" fill="#BDBFC1" fill-rule="nonzero" d="M277218 111271l17411 0c3528,0 6095,-70 7716,-222 1619,-149 3192,-450 4730,-902 474,-127 845,-195 1110,-195 1180,0 2222,623 3124,1896 1492,2060 2233,4535 2233,7451 0,1468 -314,2626 -926,3482 -625,845 -1481,1262 -2556,1262 -753,0 -1332,-151 -1749,-452 -415,-301 -983,-994 -1676,-2047 -996,-1516 -2255,-2534 -3782,-3043 -1527,-509 -4026,-763 -7508,-763 -2604,0 -4177,474 -4743,1400 -301,498 -474,1156 -533,2001 -46,834 -81,2962 -81,6397 0,1354 233,2198 685,2521 450,336 1630,498 3550,498 950,0 1643,-195 2071,-590 428,-404 706,-1110 810,-2117 162,-1319 325,-2209 498,-2694 162,-487 474,-915 926,-1272 474,-406 1029,-614 1665,-614 926,0 1711,441 2372,1319 474,660 880,1817 1202,3484 325,1654 498,3387 498,5193 0,3574 -555,6501 -1665,8780 -614,1248 -1540,1863 -2778,1863 -774,0 -1308,-197 -1595,-590 -290,-393 -522,-1215 -685,-2453 -333,-2556 -1828,-3828 -4465,-3828 -1018,0 -1711,312 -2082,959 -382,649 -566,1841 -566,3576 0,1064 81,2440 219,4118 151,1689 301,2799 463,3344 173,669 739,1145 1676,1400 939,265 2499,393 4697,393 3390,0 5935,-441 7659,-1308 1711,-867 3111,-2440 4199,-4730 636,-1308 1202,-2187 1711,-2639 509,-450 1169,-682 1979,-682 948,0 1733,417 2358,1237 625,834 926,1863 926,3102 0,1351 -347,3052 -1042,5088 -704,2036 -1560,3842 -2578,5426 -522,763 -950,1272 -1286,1540 -347,254 -774,382 -1294,393 -428,-11 -1042,-70 -1863,-208 -1446,-265 -3379,-439 -5796,-509l-28734 0c-1156,0 -2047,-254 -2683,-763 -625,-509 -950,-1226 -950,-2152 0,-658 140,-1132 417,-1422 268,-290 891,-671 1863,-1123 671,-290 1180,-647 1505,-1075 323,-439 577,-1064 763,-1898 739,-3412 1121,-8017 1121,-13800 0,-8723 -544,-14217 -1630,-16507 -222,-452 -476,-763 -742,-950 -276,-173 -845,-393 -1700,-636 -1283,-393 -1931,-1248 -1931,-2578 0,-728 219,-1365 647,-1933 428,-566 994,-937 1689,-1121 878,-197 2591,-301 5123,-301z"/>
  <path id="2" fill="#BDBFC1" fill-rule="nonzero" d="M342599 157495l-4535 35c-3192,46 -5518,116 -6988,208 -1305,103 -2244,162 -2810,162 -1376,0 -2475,-347 -3284,-1053 -799,-693 -1191,-1527 -1191,-2499 0,-636 149,-1134 439,-1492 301,-371 1007,-926 2139,-1700 649,-452 1099,-1158 1354,-2117 244,-961 522,-3019 810,-6189 428,-4917 649,-10989 649,-18196 0,-2637 -173,-4397 -522,-5263 -358,-880 -1178,-1597 -2464,-2152 -1492,-636 -2231,-1562 -2231,-2786 0,-996 439,-1806 1330,-2442 902,-625 2047,-948 3447,-948 763,0 1746,35 2951,103 1990,92 4129,138 6430,138 1700,0 5033,-68 10006,-206 1551,-48 2973,-70 4234,-70 3008,0 5426,244 7264,728 1841,487 3449,1308 4800,2464 2209,1874 3322,4383 3322,7519 0,1562 -325,3078 -985,4559 -658,1481 -1538,2661 -2648,3539 -785,636 -1180,1215 -1180,1735 0,566 474,1042 1424,1424 1849,739 3539,2001 5044,3758 1560,1828 2347,4131 2347,6885 0,3249 -1191,6222 -3563,8905 -3135,3552 -7784,5322 -13927,5322 -834,0 -2892,-57 -6167,-162 -2984,-116 -4811,-184 -5494,-208zm2337 -36775l0 6988c0,1110 138,1887 428,2337 279,452 774,682 1470,682 1676,0 2903,-520 3701,-1549 785,-1031 1180,-2637 1180,-4824 0,-2128 -406,-3771 -1215,-4928 -821,-1169 -1966,-1746 -3458,-1746 -788,0 -1343,219 -1643,658 -312,441 -463,1237 -463,2383zm0 19528l0 3214c0,2962 219,4930 647,5899 428,972 1297,1459 2615,1459 3425,0 5147,-2014 5147,-6038 0,-5011 -1920,-7521 -5761,-7521 -994,0 -1687,219 -2069,649 -382,428 -579,1202 -579,2337z"/>
  <path id="3" fill="#BDBFC1" fill-rule="nonzero" d="M454309 138072c-856,0 -1400,268 -1641,788 -233,520 -360,1724 -360,3620 0,2870 186,5114 544,6709 116,452 290,810 509,1053 230,254 660,555 1297,915 1351,750 2023,1735 2023,2949 0,1492 -937,2545 -2821,3170 -1887,625 -5079,937 -9579,937 -8363,0 -12540,-1584 -12540,-4754 0,-533 127,-972 371,-1297 254,-333 821,-785 1700,-1376 996,-660 1665,-1435 2014,-2326 347,-891 590,-2429 728,-4627 116,-1595 173,-7345 173,-17246 0,-3135 -162,-5276 -474,-6408 -325,-1123 -996,-1944 -2036,-2466 -996,-474 -1667,-913 -2001,-1305 -336,-395 -509,-915 -509,-1551 0,-834 323,-1562 970,-2174 636,-625 1540,-1088 2696,-1378 972,-254 2301,-369 3991,-369 753,0 2615,103 5599,336 555,46 1457,68 2672,68 2036,0 4743,-138 8133,-404 2150,-162 3655,-244 4511,-244 4835,0 8837,1169 11996,3493 2846,2106 4267,5009 4267,8745 0,2071 -496,3969 -1492,5669 -994,1711 -2358,2997 -4094,3853 -728,358 -1088,785 -1088,1283 0,660 555,1191 1665,1597 2372,856 4107,2163 5217,3899 1099,1735 1898,4408 2372,7992 197,1492 498,2464 880,2903 382,441 1272,869 2672,1272 439,127 799,417 1088,858 301,450 439,937 439,1481 0,693 -265,1400 -810,2115 -544,706 -1251,1272 -2106,1678 -1898,880 -4489,1319 -7797,1319 -4394,0 -7554,-1156 -9449,-3493 -858,-1031 -1586,-2350 -2187,-3923 -601,-1584 -1308,-4048 -2117,-7391 -520,-2152 -1180,-3655 -1977,-4546 -812,-880 -1955,-1354 -3449,-1424zm-1966 -17282l-371 7900c0,70 0,162 0,301 0,810 116,1354 360,1632 230,265 717,404 1435,404 1988,0 3433,-509 4337,-1538 913,-1029 1365,-2672 1365,-4939 0,-4362 -1551,-6536 -4651,-6536 -878,0 -1503,206 -1863,612 -358,406 -566,1121 -612,2163z"/>
  <path id="4" fill="#BDBFC1" fill-rule="nonzero" d="M510748 112902l16878 14772c1573,1378 2718,2071 3414,2071 1180,0 1768,-1262 1768,-3771 0,-2846 -173,-4789 -509,-5818 -333,-1042 -1051,-1828 -2139,-2347 -880,-428 -1503,-880 -1863,-1367 -358,-485 -544,-1110 -544,-1885 0,-1898 1308,-3111 3899,-3655 1064,-233 2916,-347 5564,-347 3414,0 5772,208 7080,612 2082,636 3113,1828 3113,3598 0,1470 -845,2567 -2534,3319 -682,290 -1145,555 -1389,774 -254,233 -463,568 -647,1018 -614,1494 -926,4315 -950,8480l0 11049c0,1689 13,4002 35,6939 24,3980 -219,6849 -717,8607 -601,2198 -1711,3286 -3319,3297 -693,-11 -1308,-151 -1817,-452 -496,-290 -1340,-972 -2521,-2023l-20094 -18001c-1400,-1259 -2567,-1896 -3493,-1896 -1378,0 -2071,1909 -2071,5726 0,3133 184,5285 533,6441 347,1145 1064,2003 2150,2534 1516,753 2269,1724 2269,2916 0,3146 -3379,4719 -10134,4719 -3043,0 -5415,-404 -7102,-1202 -1678,-810 -2523,-1944 -2523,-3414 0,-763 162,-1340 474,-1722 314,-382 1031,-904 2141,-1562 1064,-636 1700,-1746 1931,-3355 382,-2916 579,-7104 579,-12576 0,-5829 -347,-10075 -1018,-12747 -254,-972 -566,-1689 -948,-2163 -395,-474 -1018,-926 -1898,-1354 -1018,-498 -1724,-983 -2128,-1457 -395,-476 -590,-1053 -590,-1735 0,-2163 1863,-3528 5599,-4096 1259,-184 3469,-276 6639,-276 1806,0 3124,149 3945,428 823,276 1806,926 2938,1920z"/>
  <path id="svg_2" fill="#BDBFC1" d="M403107 184935c-1687,-8278 -4660,-15167 -8260,-21551 -2672,-4737 -5766,-9107 -8629,-13701 -957,-1531 -1781,-3153 -2699,-4743 -1836,-3181 -3326,-6869 -3232,-11654 92,-4675 1446,-8425 3394,-11492 3208,-5042 8578,-9177 15785,-10263 5893,-889 11417,612 15333,2903 3203,1874 5682,4372 7567,7321 1966,3076 3322,6709 3433,11450 59,2429 -338,4677 -900,6542 -566,1889 -1479,3466 -2288,5154 -1584,3291 -3570,6305 -5562,9322 -5935,8989 -11505,18153 -13945,30713l0 0z"/>
  <circle id="svg_4" fill="#BDBFC1" cx="403046" cy="133232" r="7770"/>
  <g id="_959053312">
   <g>
    <path fill="#BDBFC1" d="M161354 57400c-6876,-11781 -16200,-21108 -27979,-27981 -11781,-6876 -24642,-10311 -38591,-10311 -13949,0 -26814,3438 -38593,10311 -11779,6874 -21106,16200 -27981,27981 -6874,11779 -10311,24642 -10311,38589 0,16753 4888,31818 14666,45199 9778,13381 22409,22641 37891,27779 1801,333 3137,99 4004,-700 869,-801 1301,-1803 1301,-3001 0,-202 -18,-2003 -50,-5406 -35,-3405 -50,-6376 -50,-8910l-2301 399c-1470,268 -3322,382 -5557,351 -2236,-33 -4555,-265 -6957,-702 -2405,-432 -4638,-1433 -6709,-3001 -2067,-1569 -3534,-3620 -4403,-6156l-1000 -2304c-667,-1534 -1718,-3236 -3153,-5103 -1435,-1869 -2887,-3137 -4355,-3804l-702 -502c-467,-333 -900,-735 -1301,-1202 -399,-467 -700,-935 -900,-1402 -202,-467 -35,-851 500,-1152 535,-303 1501,-448 2903,-448l2001 298c1336,268 2986,1066 4956,2402 1968,1334 3587,3069 4855,5204 1536,2738 3385,4822 5557,6257 2168,1435 4353,2152 6555,2152 2203,0 4105,-167 5706,-498 1602,-336 3102,-836 4504,-1503 601,-4473 2236,-7911 4906,-10314 -3804,-399 -7225,-1000 -10261,-1801 -3036,-801 -6174,-2102 -9410,-3907 -3238,-1801 -5924,-4037 -8058,-6705 -2137,-2670 -3890,-6176 -5257,-10511 -1367,-4340 -2051,-9344 -2051,-15017 0,-8076 2637,-14949 7909,-20623 -2470,-6073 -2236,-12881 700,-20421 1937,-601 4807,-149 8611,1351 3804,1501 6588,2788 8359,3855 1768,1066 3186,1970 4254,2703 6209,-1735 12615,-2602 19221,-2602 6606,0 13014,867 19223,2602l3804 -2402c2602,-1602 5673,-3071 9208,-4405 3537,-1334 6242,-1702 8113,-1101 3001,7543 3269,14350 799,20421 5272,5673 7909,12549 7909,20623 0,5673 -687,10695 -2051,15066 -1369,4372 -3135,7874 -5305,10513 -2170,2637 -4873,4855 -8109,6656 -3238,1801 -6376,3102 -9412,3905 -3036,801 -6457,1404 -10261,1803 3469,3003 5204,7742 5204,14214l0 21121c0,1200 417,2203 1253,3003 834,799 2152,1033 3953,698 15485,-5136 28115,-14397 37893,-27779 9776,-13379 14664,-28444 14664,-45197 -2,-13947 -3442,-26808 -10314,-38587z"/>
   </g>
   <g>
   </g>
   <g>
   </g>
   <g>
   </g>
   <g>
   </g>
   <g>
   </g>
   <g>
   </g>
   <g>
   </g>
   <g>
   </g>
   <g>
   </g>
   <g>
   </g>
   <g>
   </g>
   <g>
   </g>
   <g>
   </g>
   <g>
   </g>
   <g>
   </g>
  </g>
  <path fill="black" fill-rule="nonzero" d="M228524 31167l20476 17922c1909,1670 3297,2512 4140,2512 1433,0 2148,-1529 2148,-4577 0,-3451 -211,-5810 -619,-7058 -406,-1264 -1277,-2218 -2595,-2850 -1066,-518 -1825,-1066 -2260,-1656 -434,-588 -660,-1347 -660,-2286 0,-2301 1586,-3776 4730,-4436 1292,-281 3537,-421 6751,-421 4140,0 7003,254 8589,744 2525,772 3776,2218 3776,4366 0,1781 -1025,3115 -3074,4028 -829,351 -1391,674 -1685,939 -309,281 -562,689 -785,1235 -744,1810 -1123,5235 -1152,10287l0 13403c0,2049 15,4855 44,8420 26,4829 -268,8308 -871,10443 -731,2666 -2078,3984 -4028,4000 -842,-15 -1586,-184 -2203,-548 -603,-351 -1628,-1178 -3061,-2455l-24377 -21838c-1698,-1529 -3115,-2301 -4239,-2301 -1670,0 -2512,2317 -2512,6948 0,3802 224,6413 645,7817 421,1389 1292,2426 2611,3074 1839,910 2751,2091 2751,3537 0,3815 -4098,5724 -12295,5724 -3690,0 -6566,-489 -8616,-1459 -2036,-983 -3061,-2358 -3061,-4140 0,-926 197,-1628 575,-2091 380,-463 1251,-1095 2598,-1896 1290,-770 2062,-2119 2343,-4070 463,-3537 702,-8616 702,-15254 0,-7073 -421,-12225 -1235,-15465 -309,-1180 -687,-2049 -1152,-2626 -476,-575 -1233,-1121 -2301,-1641 -1235,-603 -2091,-1193 -2582,-1768 -476,-575 -715,-1277 -715,-2106 0,-2624 2260,-4280 6792,-4967 1529,-224 4210,-338 8056,-338 2190,0 3789,184 4785,520 998,338 2190,1123 3565,2330z"/>
  <path id="1" fill="black" fill-rule="nonzero" d="M297865 44317c4772,0 8813,1207 12126,3620 1753,1292 2988,2764 3690,4421 689,1656 1040,3945 1040,6849l-86 6119c0,4252 309,7003 913,8267 294,603 590,981 871,1150 265,169 840,309 1724,450 871,140 1305,715 1305,1727 0,1319 -518,2694 -1586,4111 -1051,1430 -2413,2624 -4083,3578 -2062,1207 -4210,1810 -6457,1810 -2876,0 -5149,-981 -6819,-2960 -577,-717 -1110,-1068 -1615,-1068 -548,0 -1264,338 -2176,1025 -2736,2007 -5851,3003 -9331,3003 -3594,0 -6498,-770 -8716,-2301 -1446,-1009 -2611,-2343 -3453,-3971 -856,-1628 -1277,-3326 -1277,-5107 0,-2863 1152,-5375 3453,-7580 3594,-3451 8969,-5193 16125,-5219 1586,0 2582,-156 3003,-463 406,-325 603,-1053 603,-2205 0,-2905 -294,-5009 -897,-6314 -606,-1292 -1586,-1953 -2962,-1953 -829,0 -1558,254 -2205,746 -645,489 -1444,1389 -2398,2707 -2442,3482 -4998,5222 -7650,5222 -1347,0 -2442,-393 -3284,-1193 -856,-785 -1277,-1839 -1277,-3115 0,-1319 520,-2639 1586,-3958 1053,-1305 2484,-2455 4296,-3453 4954,-2624 10132,-3942 15535,-3942zm-2751 23802c-1207,0 -2260,491 -3144,1487 -897,983 -1332,2161 -1332,3537 0,1319 307,2372 939,3186 632,801 1459,1207 2512,1207 2190,0 3284,-1852 3284,-5544 0,-1514 -154,-2525 -476,-3045 -309,-518 -913,-799 -1784,-827z"/>
  <path id="2" fill="black" fill-rule="nonzero" d="M365833 42141c674,0 1277,393 1810,1165 520,788 772,1698 772,2738 0,1121 -351,2400 -1053,3831 -687,1417 -1529,2554 -2525,3409 -632,548 -941,983 -941,1305 0,86 29,421 86,998 83,575 125,1093 125,1558 0,3269 -1108,6005 -3297,8223 -1964,1979 -4519,3508 -7620,4603 -3115,1095 -6540,1643 -10259,1643 -913,0 -1797,-42 -2681,-156 -702,-83 -1264,-125 -1643,-125 -1446,0 -2174,728 -2174,2174 0,941 476,1670 1417,2205 939,533 2231,799 3846,799 1095,0 2707,-154 4855,-450 4491,-630 7804,-952 9949,-952 3229,0 5742,546 7523,1613 1417,814 2554,1966 3383,3453 840,1472 1262,3074 1262,4772 0,2764 -1009,5445 -3045,8054 -2413,3074 -5963,5349 -10652,6821 -3677,1152 -7916,1727 -12742,1727 -6093,0 -11018,-926 -14807,-2793 -1755,-869 -3144,-2034 -4197,-3451 -1038,-1433 -1558,-2907 -1558,-4436 0,-1079 296,-2062 884,-2962 590,-910 1334,-1558 2247,-1935 814,-338 1235,-689 1235,-1068 0,-307 -351,-744 -1040,-1319 -2190,-1839 -3282,-3747 -3282,-5711 0,-1321 533,-2681 1584,-4070 1053,-1404 2358,-2486 3929,-3256 660,-325 983,-660 983,-983 0,-380 -406,-954 -1235,-1727 -2819,-2611 -4236,-5643 -4236,-9136 0,-1825 505,-3580 1501,-5263 1011,-1670 2400,-3089 4182,-4267 4408,-2876 9304,-4322 14666,-4322 2148,0 4533,281 7157,827 2499,491 4210,731 5138,731 2988,0 5963,-1178 8925,-3523 660,-505 1165,-744 1529,-744zm-22328 8506c-1376,0 -2470,520 -3313,1571 -842,1040 -1248,2416 -1248,4140 0,2962 450,5333 1347,7117 913,1781 2104,2679 3578,2679 1459,0 2611,-562 3453,-1670 856,-1108 1277,-2595 1277,-4462 0,-2933 -450,-5206 -1334,-6849 -897,-1628 -2148,-2470 -3760,-2525zm-8969 37415c-687,0 -1025,406 -1025,1193 0,1613 871,2931 2624,3929 1755,996 4028,1501 6836,1501 2681,0 4785,-351 6301,-1066 1529,-715 2288,-1711 2288,-3003 0,-687 -281,-1264 -871,-1755 -575,-476 -1277,-715 -2132,-715 -437,0 -1066,57 -1896,169 -1529,239 -3243,364 -5136,364 -1389,0 -2738,-70 -4028,-195 -954,-86 -1740,-197 -2343,-338 -268,-55 -478,-83 -619,-83z"/>
  <path id="3" fill="black" fill-rule="nonzero" d="M411600 68288l-4941 11057c-842,1867 -1529,3115 -2049,3763 -533,645 -1108,968 -1727,968 -603,0 -1150,-252 -1613,-785 -296,-323 -998,-1529 -2078,-3607 -1082,-2091 -1979,-3945 -2694,-5557l-5419 -12211c-744,-1698 -1529,-2554 -2343,-2554 -884,0 -1360,731 -1446,2190 -195,3227 -281,6218 -281,8953 0,2850 127,4787 408,5796 195,603 450,1053 757,1321 323,279 1180,770 2569,1487 913,463 1360,1262 1360,2413 0,3074 -3929,4616 -11801,4616 -6639,0 -9952,-1501 -9952,-4491 0,-757 169,-1319 520,-1654 338,-351 1222,-858 2652,-1545 897,-421 1516,-983 1825,-1685 323,-715 588,-2104 799,-4153 252,-2203 478,-5796 702,-10792 224,-5011 323,-9291 323,-12856 0,-4462 -336,-7494 -1025,-9081 -239,-546 -518,-968 -842,-1233 -307,-281 -910,-632 -1781,-1068 -1950,-939 -2920,-2146 -2920,-3620 0,-968 366,-1839 1082,-2639 731,-785 1698,-1347 2905,-1683 1207,-351 2821,-660 4829,-926 2021,-254 3719,-395 5123,-395 3508,0 5992,296 7437,871 715,268 1277,645 1683,1108 421,465 1011,1433 1768,2878l8563 15746c926,1727 1571,2780 1922,3172 364,377 856,575 1487,575 546,0 1025,-211 1459,-616 421,-408 926,-1180 1503,-2304l5796 -11310c715,-1446 1178,-2400 1389,-2837 1347,-2736 2681,-4561 4000,-5472 1670,-1180 4715,-1768 9122,-1768 7760,0 11634,1768 11634,5305 0,799 -154,1430 -450,1922 -309,478 -926,1053 -1852,1740 -1264,954 -2049,2343 -2387,4155 -630,3774 -939,8392 -939,13809 0,6990 323,13122 983,18385 167,1292 419,2161 757,2624 351,478 1235,1165 2652,2106 996,658 1487,1529 1487,2624 0,1922 -1277,3284 -3831,4070 -1321,450 -2694,731 -4155,871 -1446,140 -3677,195 -6694,211 -4631,-15 -8085,-338 -10358,-998 -2525,-744 -3789,-1992 -3789,-3774 0,-660 169,-1207 491,-1628 336,-421 1178,-1207 2554,-2330 715,-575 1193,-1685 1459,-3326 252,-1643 393,-4436 393,-8394 0,-2187 -112,-3620 -307,-4307 -211,-689 -647,-1025 -1305,-1025 -759,0 -1503,518 -2218,1571 -715,1066 -1781,3157 -3199,6316z"/>
  <path id="4" fill="black" fill-rule="nonzero" d="M468704 44317c4772,0 8813,1207 12126,3620 1753,1292 2988,2764 3690,4421 689,1656 1040,3945 1040,6849l-86 6119c0,4252 309,7003 913,8267 294,603 590,981 871,1150 265,169 840,309 1724,450 871,140 1305,715 1305,1727 0,1319 -518,2694 -1586,4111 -1051,1430 -2413,2624 -4083,3578 -2062,1207 -4210,1810 -6457,1810 -2876,0 -5149,-981 -6819,-2960 -577,-717 -1110,-1068 -1615,-1068 -548,0 -1264,338 -2176,1025 -2736,2007 -5851,3003 -9331,3003 -3594,0 -6498,-770 -8716,-2301 -1446,-1009 -2611,-2343 -3453,-3971 -856,-1628 -1277,-3326 -1277,-5107 0,-2863 1152,-5375 3453,-7580 3594,-3451 8969,-5193 16125,-5219 1586,0 2582,-156 3003,-463 406,-325 603,-1053 603,-2205 0,-2905 -294,-5009 -897,-6314 -606,-1292 -1586,-1953 -2962,-1953 -829,0 -1558,254 -2205,746 -645,489 -1444,1389 -2398,2707 -2442,3482 -4998,5222 -7650,5222 -1347,0 -2442,-393 -3284,-1193 -856,-785 -1277,-1839 -1277,-3115 0,-1319 520,-2639 1586,-3958 1053,-1305 2484,-2455 4296,-3453 4954,-2624 10132,-3942 15535,-3942zm-2751 23802c-1207,0 -2260,491 -3144,1487 -897,983 -1332,2161 -1332,3537 0,1319 307,2372 939,3186 632,801 1459,1207 2512,1207 2190,0 3284,-1852 3284,-5544 0,-1514 -154,-2525 -476,-3045 -309,-518 -913,-799 -1784,-827z"/>
  <path id="5" fill="black" fill-rule="nonzero" d="M513109 44570c1670,0 2707,140 3129,421 408,294 619,1009 619,2161 0,1011 323,1529 983,1529 265,0 1191,-518 2749,-1571 1180,-785 2681,-1459 4506,-1994 1823,-533 3466,-799 4954,-799 3480,0 6595,1207 9333,3620 2078,1839 3706,4155 4855,6948 1207,2933 1810,6020 1810,9247 0,6904 -2330,12604 -6988,17067 -3594,3480 -7677,5219 -12266,5219 -2330,0 -4717,-546 -7185,-1641 -491,-224 -900,-338 -1193,-338 -829,0 -1235,829 -1235,2470 0,2176 731,3734 2174,4688 1349,913 2148,1516 2416,1839 252,307 377,842 377,1571 0,1656 -910,2920 -2749,3804 -1839,897 -4421,1347 -7775,1347 -5937,0 -11143,-1193 -15621,-3578 -2273,-1207 -3409,-2709 -3409,-4491 0,-814 167,-1446 518,-1867 338,-421 998,-871 1994,-1334 1417,-658 2286,-1852 2611,-3578 307,-1727 546,-6694 715,-14890 -197,-6738 -434,-10526 -744,-11340 -112,-281 -268,-448 -463,-533 -211,-83 -884,-239 -2036,-463 -884,-154 -1599,-562 -2148,-1207 -546,-645 -814,-1417 -814,-2315 0,-1110 380,-2064 1152,-2907 757,-840 2007,-1654 3734,-2442 6722,-3045 12053,-4587 15998,-4645zm4070 15535l-616 11312c-29,463 -44,913 -44,1347 0,856 366,1545 1110,2064 744,518 1724,785 2960,785 3791,0 5671,-3115 5671,-9333 0,-4041 -785,-6878 -2372,-8519 -998,-1011 -2176,-1516 -3537,-1516 -1950,0 -3003,1277 -3172,3859z"/>
  <path fill="black" fill-rule="nonzero" d="M229513 134784c-856,0 -1400,268 -1641,788 -233,520 -360,1724 -360,3620 0,2870 186,5114 544,6709 116,452 290,810 509,1053 230,254 660,555 1297,915 1351,750 2023,1735 2023,2949 0,1492 -937,2545 -2821,3170 -1887,625 -5079,937 -9579,937 -8363,0 -12540,-1584 -12540,-4754 0,-533 127,-972 371,-1297 254,-333 821,-785 1700,-1376 996,-660 1665,-1435 2014,-2326 347,-891 590,-2429 728,-4627 116,-1595 173,-7345 173,-17246 0,-3135 -162,-5276 -474,-6408 -325,-1123 -996,-1944 -2036,-2466 -996,-474 -1667,-913 -2001,-1305 -336,-395 -509,-915 -509,-1551 0,-834 323,-1562 970,-2174 636,-625 1540,-1088 2696,-1378 972,-254 2301,-369 3991,-369 753,0 2615,103 5599,336 555,46 1457,68 2672,68 2036,0 4743,-138 8133,-404 2150,-162 3655,-244 4511,-244 4835,0 8837,1169 11996,3493 2846,2106 4267,5009 4267,8745 0,2071 -496,3969 -1492,5669 -994,1711 -2358,2997 -4094,3853 -728,358 -1088,785 -1088,1283 0,660 555,1191 1665,1597 2372,856 4107,2163 5217,3899 1099,1735 1898,4408 2372,7992 197,1492 498,2464 880,2903 382,441 1272,869 2672,1272 439,127 799,417 1088,858 301,450 439,937 439,1481 0,693 -265,1400 -810,2115 -544,706 -1251,1272 -2106,1678 -1898,880 -4489,1319 -7797,1319 -4394,0 -7554,-1156 -9449,-3493 -858,-1031 -1586,-2350 -2187,-3923 -601,-1584 -1308,-4048 -2117,-7391 -520,-2152 -1180,-3655 -1977,-4546 -812,-880 -1955,-1354 -3449,-1424zm-1966 -17282l-371 7900c0,70 0,162 0,301 0,810 116,1354 360,1632 230,265 717,404 1435,404 1988,0 3433,-509 4337,-1538 913,-1029 1365,-2672 1365,-4939 0,-4362 -1551,-6536 -4651,-6536 -878,0 -1503,206 -1863,612 -358,406 -566,1121 -612,2163z"/>
  <path id="1" fill="black" fill-rule="nonzero" d="M274324 107983l17411 0c3528,0 6095,-70 7716,-222 1619,-149 3192,-450 4730,-902 474,-127 845,-195 1110,-195 1180,0 2222,623 3124,1896 1492,2060 2233,4535 2233,7451 0,1468 -314,2626 -926,3482 -625,845 -1481,1262 -2556,1262 -753,0 -1332,-151 -1749,-452 -415,-301 -983,-994 -1676,-2047 -996,-1516 -2255,-2534 -3782,-3043 -1527,-509 -4026,-763 -7508,-763 -2604,0 -4177,474 -4743,1400 -301,498 -474,1156 -533,2001 -46,834 -81,2962 -81,6397 0,1354 233,2198 685,2521 450,336 1630,498 3550,498 950,0 1643,-195 2071,-590 428,-404 706,-1110 810,-2117 162,-1319 325,-2209 498,-2694 162,-487 474,-915 926,-1272 474,-406 1029,-614 1665,-614 926,0 1711,441 2372,1319 474,660 880,1817 1202,3484 325,1654 498,3387 498,5193 0,3574 -555,6501 -1665,8780 -614,1248 -1540,1863 -2778,1863 -774,0 -1308,-197 -1595,-590 -290,-393 -522,-1215 -685,-2453 -333,-2556 -1828,-3828 -4465,-3828 -1018,0 -1711,312 -2082,959 -382,649 -566,1841 -566,3576 0,1064 81,2440 219,4118 151,1689 301,2799 463,3344 173,669 739,1145 1676,1400 939,265 2499,393 4697,393 3390,0 5935,-441 7659,-1308 1711,-867 3111,-2440 4199,-4730 636,-1308 1202,-2187 1711,-2639 509,-450 1169,-682 1979,-682 948,0 1733,417 2358,1237 625,834 926,1863 926,3102 0,1351 -347,3052 -1042,5088 -704,2036 -1560,3842 -2578,5426 -522,763 -950,1272 -1286,1540 -347,254 -774,382 -1294,393 -428,-11 -1042,-70 -1863,-208 -1446,-265 -3379,-439 -5796,-509l-28734 0c-1156,0 -2047,-254 -2683,-763 -625,-509 -950,-1226 -950,-2152 0,-658 140,-1132 417,-1422 268,-290 891,-671 1863,-1123 671,-290 1180,-647 1505,-1075 323,-439 577,-1064 763,-1898 739,-3412 1121,-8017 1121,-13800 0,-8723 -544,-14217 -1630,-16507 -222,-452 -476,-763 -742,-950 -276,-173 -845,-393 -1700,-636 -1283,-393 -1931,-1248 -1931,-2578 0,-728 219,-1365 647,-1933 428,-566 994,-937 1689,-1121 878,-197 2591,-301 5123,-301z"/>
  <path id="2" fill="black" fill-rule="nonzero" d="M339705 154207l-4535 35c-3192,46 -5518,116 -6988,208 -1305,103 -2244,162 -2810,162 -1376,0 -2475,-347 -3284,-1053 -799,-693 -1191,-1527 -1191,-2499 0,-636 149,-1134 439,-1492 301,-371 1007,-926 2139,-1700 649,-452 1099,-1158 1354,-2117 244,-961 522,-3019 810,-6189 428,-4917 649,-10989 649,-18196 0,-2637 -173,-4397 -522,-5263 -358,-880 -1178,-1597 -2464,-2152 -1492,-636 -2231,-1562 -2231,-2786 0,-996 439,-1806 1330,-2442 902,-625 2047,-948 3447,-948 763,0 1746,35 2951,103 1990,92 4129,138 6430,138 1700,0 5033,-68 10006,-206 1551,-48 2973,-70 4234,-70 3008,0 5426,244 7264,728 1841,487 3449,1308 4800,2464 2209,1874 3322,4383 3322,7519 0,1562 -325,3078 -985,4559 -658,1481 -1538,2661 -2648,3539 -785,636 -1180,1215 -1180,1735 0,566 474,1042 1424,1424 1849,739 3539,2001 5044,3758 1560,1828 2347,4131 2347,6885 0,3249 -1191,6222 -3563,8905 -3135,3552 -7784,5322 -13927,5322 -834,0 -2892,-57 -6167,-162 -2984,-116 -4811,-184 -5494,-208zm2337 -36775l0 6988c0,1110 138,1887 428,2337 279,452 774,682 1470,682 1676,0 2903,-520 3701,-1549 785,-1031 1180,-2637 1180,-4824 0,-2128 -406,-3771 -1215,-4928 -821,-1169 -1966,-1746 -3458,-1746 -788,0 -1343,219 -1643,658 -312,441 -463,1237 -463,2383zm0 19528l0 3214c0,2962 219,4930 647,5899 428,972 1297,1459 2615,1459 3425,0 5147,-2014 5147,-6038 0,-5011 -1920,-7521 -5761,-7521 -994,0 -1687,219 -2069,649 -382,428 -579,1202 -579,2337z"/>
  <path id="3" fill="black" fill-rule="nonzero" d="M451415 134784c-856,0 -1400,268 -1641,788 -233,520 -360,1724 -360,3620 0,2870 186,5114 544,6709 116,452 290,810 509,1053 230,254 660,555 1297,915 1351,750 2023,1735 2023,2949 0,1492 -937,2545 -2821,3170 -1887,625 -5079,937 -9579,937 -8363,0 -12540,-1584 -12540,-4754 0,-533 127,-972 371,-1297 254,-333 821,-785 1700,-1376 996,-660 1665,-1435 2014,-2326 347,-891 590,-2429 728,-4627 116,-1595 173,-7345 173,-17246 0,-3135 -162,-5276 -474,-6408 -325,-1123 -996,-1944 -2036,-2466 -996,-474 -1667,-913 -2001,-1305 -336,-395 -509,-915 -509,-1551 0,-834 323,-1562 970,-2174 636,-625 1540,-1088 2696,-1378 972,-254 2301,-369 3991,-369 753,0 2615,103 5599,336 555,46 1457,68 2672,68 2036,0 4743,-138 8133,-404 2150,-162 3655,-244 4511,-244 4835,0 8837,1169 11996,3493 2846,2106 4267,5009 4267,8745 0,2071 -496,3969 -1492,5669 -994,1711 -2358,2997 -4094,3853 -728,358 -1088,785 -1088,1283 0,660 555,1191 1665,1597 2372,856 4107,2163 5217,3899 1099,1735 1898,4408 2372,7992 197,1492 498,2464 880,2903 382,441 1272,869 2672,1272 439,127 799,417 1088,858 301,450 439,937 439,1481 0,693 -265,1400 -810,2115 -544,706 -1251,1272 -2106,1678 -1898,880 -4489,1319 -7797,1319 -4394,0 -7554,-1156 -9449,-3493 -858,-1031 -1586,-2350 -2187,-3923 -601,-1584 -1308,-4048 -2117,-7391 -520,-2152 -1180,-3655 -1977,-4546 -812,-880 -1955,-1354 -3449,-1424zm-1966 -17282l-371 7900c0,70 0,162 0,301 0,810 116,1354 360,1632 230,265 717,404 1435,404 1988,0 3433,-509 4337,-1538 913,-1029 1365,-2672 1365,-4939 0,-4362 -1551,-6536 -4651,-6536 -878,0 -1503,206 -1863,612 -358,406 -566,1121 -612,2163z"/>
  <path id="4" fill="black" fill-rule="nonzero" d="M507854 109613l16878 14772c1573,1378 2718,2071 3414,2071 1180,0 1768,-1262 1768,-3771 0,-2846 -173,-4789 -509,-5818 -333,-1042 -1051,-1828 -2139,-2347 -880,-428 -1503,-880 -1863,-1367 -358,-485 -544,-1110 -544,-1885 0,-1898 1308,-3111 3899,-3655 1064,-233 2916,-347 5564,-347 3414,0 5772,208 7080,612 2082,636 3113,1828 3113,3598 0,1470 -845,2567 -2534,3319 -682,290 -1145,555 -1389,774 -254,233 -463,568 -647,1018 -614,1494 -926,4315 -950,8480l0 11049c0,1689 13,4002 35,6939 24,3980 -219,6849 -717,8607 -601,2198 -1711,3286 -3319,3297 -693,-11 -1308,-151 -1817,-452 -496,-290 -1340,-972 -2521,-2023l-20094 -18001c-1400,-1259 -2567,-1896 -3493,-1896 -1378,0 -2071,1909 -2071,5726 0,3133 184,5285 533,6441 347,1145 1064,2003 2150,2534 1516,753 2269,1724 2269,2916 0,3146 -3379,4719 -10134,4719 -3043,0 -5415,-404 -7102,-1202 -1678,-810 -2523,-1944 -2523,-3414 0,-763 162,-1340 474,-1722 314,-382 1031,-904 2141,-1562 1064,-636 1700,-1746 1931,-3355 382,-2916 579,-7104 579,-12576 0,-5829 -347,-10075 -1018,-12747 -254,-972 -566,-1689 -948,-2163 -395,-474 -1018,-926 -1898,-1354 -1018,-498 -1724,-983 -2128,-1457 -395,-476 -590,-1053 -590,-1735 0,-2163 1863,-3528 5599,-4096 1259,-184 3469,-276 6639,-276 1806,0 3124,149 3945,428 823,276 1806,926 2938,1920z"/>
  <path id="svg_2_0" fill="#007F00" d="M400214 181646c-1687,-8278 -4660,-15167 -8260,-21551 -2672,-4737 -5766,-9107 -8629,-13701 -957,-1531 -1781,-3153 -2699,-4743 -1836,-3181 -3326,-6869 -3232,-11654 92,-4675 1446,-8425 3394,-11492 3208,-5042 8578,-9177 15785,-10263 5893,-889 11417,612 15333,2903 3203,1874 5682,4372 7567,7321 1966,3076 3322,6709 3433,11450 59,2429 -338,4677 -900,6542 -566,1889 -1479,3466 -2288,5154 -1584,3291 -3570,6305 -5562,9322 -5935,8989 -11505,18153 -13945,30713l0 0z"/>
  <circle id="svg_4_1" fill="#155400" cx="400152" cy="129944" r="7770"/>
  <g id="_959331456">
   <g>
    <path fill="black" d="M158461 54111c-6876,-11781 -16200,-21108 -27979,-27981 -11781,-6876 -24642,-10311 -38591,-10311 -13949,0 -26814,3438 -38593,10311 -11779,6874 -21106,16200 -27981,27981 -6874,11779 -10311,24642 -10311,38589 0,16753 4888,31818 14666,45199 9778,13381 22409,22641 37891,27779 1801,333 3137,99 4004,-700 869,-801 1301,-1803 1301,-3001 0,-202 -18,-2003 -50,-5406 -35,-3405 -50,-6376 -50,-8910l-2301 399c-1470,268 -3322,382 -5557,351 -2236,-33 -4555,-265 -6957,-702 -2405,-432 -4638,-1433 -6709,-3001 -2067,-1569 -3534,-3620 -4403,-6156l-1000 -2304c-667,-1534 -1718,-3236 -3153,-5103 -1435,-1869 -2887,-3137 -4355,-3804l-702 -502c-467,-333 -900,-735 -1301,-1202 -399,-467 -700,-935 -900,-1402 -202,-467 -35,-851 500,-1152 535,-303 1501,-448 2903,-448l2001 298c1336,268 2986,1066 4956,2402 1968,1334 3587,3069 4855,5204 1536,2738 3385,4822 5557,6257 2168,1435 4353,2152 6555,2152 2203,0 4105,-167 5706,-498 1602,-336 3102,-836 4504,-1503 601,-4473 2236,-7911 4906,-10314 -3804,-399 -7225,-1000 -10261,-1801 -3036,-801 -6174,-2102 -9410,-3907 -3238,-1801 -5924,-4037 -8058,-6705 -2137,-2670 -3890,-6176 -5257,-10511 -1367,-4340 -2051,-9344 -2051,-15017 0,-8076 2637,-14949 7909,-20623 -2470,-6073 -2236,-12881 700,-20421 1937,-601 4807,-149 8611,1351 3804,1501 6588,2788 8359,3855 1768,1066 3186,1970 4254,2703 6209,-1735 12615,-2602 19221,-2602 6606,0 13014,867 19223,2602l3804 -2402c2602,-1602 5673,-3071 9208,-4405 3537,-1334 6242,-1702 8113,-1101 3001,7543 3269,14350 799,20421 5272,5673 7909,12549 7909,20623 0,5673 -687,10695 -2051,15066 -1369,4372 -3135,7874 -5305,10513 -2170,2637 -4873,4855 -8109,6656 -3238,1801 -6376,3102 -9412,3905 -3036,801 -6457,1404 -10261,1803 3469,3003 5204,7742 5204,14214l0 21121c0,1200 417,2203 1253,3003 834,799 2152,1033 3953,698 15485,-5136 28115,-14397 37893,-27779 9776,-13379 14664,-28444 14664,-45197 -2,-13947 -3442,-26808 -10314,-38587z"/>
   </g>
   <g>
   </g>
   <g>
   </g>
   <g>
   </g>
   <g>
   </g>
   <g>
   </g>
   <g>
   </g>
   <g>
   </g>
   <g>
   </g>
   <g>
   </g>
   <g>
   </g>
   <g>
   </g>
   <g>
   </g>
   <g>
   </g>
   <g>
   </g>
   <g>
   </g>
  </g>
 </g>
</svg>
