<?xml version="1.0" encoding="UTF-8"?>
<!DOCTYPE svg PUBLIC "-//W3C//DTD SVG 1.1//EN" "http://www.w3.org/Graphics/SVG/1.1/DTD/svg11.dtd">
<!-- Creator: CorelDRAW X6 -->
<svg xmlns="http://www.w3.org/2000/svg" xml:space="preserve" width="121px" height="40px" version="1.1" shape-rendering="geometricPrecision" text-rendering="geometricPrecision" image-rendering="optimizeQuality" fill-rule="evenodd" clip-rule="evenodd"
viewBox="0 0 95431 31533"
 xmlns:xlink="http://www.w3.org/1999/xlink">
 <g id="Layer_x0020_1">
  <metadata id="CorelCorpID_0Corel-Layer"/>
  <rect fill="none" width="95431" height="31533"/>
  <path fill="black" fill-rule="nonzero" d="M39672 5411l3555 3111c331,291 573,437 719,437 249,0 372,-265 372,-794 0,-600 -36,-1009 -107,-1225 -71,-220 -222,-385 -451,-495 -185,-89 -317,-184 -392,-287 -75,-102 -115,-235 -115,-398 0,-399 275,-655 821,-770 223,-48 614,-73 1171,-73 719,0 1216,44 1492,128 439,134 655,385 655,758 0,310 -178,541 -534,699 -143,61 -241,117 -292,163 -53,49 -97,120 -136,215 -129,314 -195,909 -200,1786l0 2327c0,356 3,843 7,1462 5,838 -47,1442 -151,1812 -127,464 -360,693 -699,695 -146,-2 -276,-32 -383,-95 -104,-61 -282,-205 -531,-426l-4232 -3790c-295,-265 -541,-399 -736,-399 -290,0 -436,401 -436,1206 0,660 39,1114 112,1357 74,241 224,422 453,534 319,158 478,363 478,615 0,663 -711,993 -2134,993 -642,0 -1141,-85 -1496,-253 -353,-170 -531,-409 -531,-719 0,-160 34,-282 100,-363 65,-80 217,-190 451,-329 224,-134 358,-368 407,-707 80,-614 122,-1495 122,-2648 0,-1228 -74,-2122 -215,-2685 -53,-204 -119,-356 -199,-455 -83,-100 -214,-195 -399,-285 -214,-104 -363,-207 -449,-307 -83,-100 -124,-222 -124,-365 0,-455 392,-743 1179,-862 266,-39 731,-59 1399,-59 380,0 658,32 831,90 172,58 380,195 618,404z"/>
  <path id="1" fill="black" fill-rule="nonzero" d="M51710 7694c829,0 1530,209 2105,628 304,224 519,480 641,767 119,288 181,684 181,1189l-15 1062c0,738 54,1216 158,1435 51,105 102,170 151,200 47,29 146,53 300,77 151,25 227,125 227,300 0,229 -90,468 -276,714 -182,249 -419,455 -709,621 -358,209 -731,315 -1120,315 -500,0 -895,-170 -1184,-514 -100,-125 -193,-185 -280,-185 -95,0 -219,59 -377,178 -476,348 -1017,521 -1621,521 -623,0 -1128,-134 -1512,-399 -251,-176 -453,-407 -600,-690 -149,-282 -222,-577 -222,-886 0,-497 199,-934 599,-1316 624,-600 1557,-902 2800,-907 276,0 448,-27 521,-80 71,-56 104,-182 104,-383 0,-505 -51,-870 -155,-1096 -105,-224 -276,-339 -514,-339 -144,0 -271,44 -383,129 -112,85 -250,241 -416,470 -425,603 -868,906 -1328,906 -235,0 -425,-68 -571,-207 -148,-137 -222,-319 -222,-541 0,-229 90,-458 276,-687 182,-227 431,-426 745,-600 860,-455 1760,-684 2697,-684zm-478 4132c-209,0 -392,85 -546,258 -155,170 -231,375 -231,614 0,229 53,412 163,553 110,139 253,209 436,209 380,0 571,-321 571,-962 0,-263 -27,-439 -83,-529 -54,-90 -159,-139 -310,-143z"/>
  <path id="2" fill="black" fill-rule="nonzero" d="M63509 7316c117,0 222,68 315,202 90,137 134,295 134,476 0,195 -61,416 -182,665 -120,246 -266,443 -439,592 -110,95 -164,170 -164,226 0,15 5,74 15,173 15,100 22,190 22,270 0,568 -193,1043 -573,1428 -342,344 -785,609 -1323,799 -541,190 -1136,285 -1781,285 -158,0 -312,-7 -466,-27 -122,-14 -219,-21 -285,-21 -250,0 -378,127 -378,377 0,164 83,291 247,383 163,93 387,139 668,139 190,0 470,-26 843,-77 779,-110 1355,-166 1727,-166 561,0 996,95 1306,280 246,141 443,341 587,599 146,256 220,534 220,829 0,480 -175,945 -529,1399 -419,534 -1035,928 -1849,1184 -639,199 -1374,299 -2212,299 -1058,0 -1912,-160 -2570,-484 -305,-151 -547,-354 -729,-600 -180,-249 -270,-505 -270,-770 0,-187 51,-358 154,-514 101,-158 231,-270 389,-336 142,-59 214,-119 214,-185 0,-53 -61,-129 -180,-229 -380,-319 -570,-650 -570,-992 0,-229 92,-466 275,-707 182,-243 410,-431 682,-565 115,-56 170,-115 170,-170 0,-66 -71,-166 -214,-300 -490,-453 -736,-980 -736,-1586 0,-317 88,-621 261,-913 175,-291 416,-536 725,-741 765,-499 1615,-750 2547,-750 372,0 787,48 1242,144 434,85 731,127 892,127 519,0 1035,-205 1549,-612 115,-88 202,-129 265,-129zm-3876 1477c-238,0 -428,90 -574,273 -146,181 -217,419 -217,719 0,514 78,926 234,1235 158,310 366,466 621,466 253,0 453,-97 600,-290 149,-193 222,-451 222,-775 0,-509 -78,-904 -231,-1189 -156,-283 -373,-429 -654,-439zm-1557 6495c-119,0 -178,71 -178,207 0,280 151,509 455,682 305,173 699,261 1187,261 466,0 831,-61 1094,-185 265,-124 397,-297 397,-521 0,-119 -48,-219 -151,-304 -100,-83 -222,-124 -371,-124 -75,0 -185,9 -329,29 -265,41 -562,63 -892,63 -241,0 -475,-12 -699,-34 -166,-14 -302,-34 -407,-58 -46,-10 -83,-15 -107,-15z"/>
  <path id="3" fill="black" fill-rule="nonzero" d="M71454 11855l-858 1920c-146,324 -265,541 -356,653 -92,113 -193,169 -300,169 -104,0 -199,-44 -280,-137 -51,-56 -173,-265 -360,-626 -188,-363 -344,-685 -467,-965l-940 -2120c-129,-295 -266,-443 -407,-443 -154,0 -236,127 -251,380 -34,561 -48,1079 -48,1554 0,495 21,831 71,1007 34,105 77,182 131,229 56,48 205,134 446,258 158,81 236,220 236,420 0,534 -682,801 -2049,801 -1153,0 -1727,-261 -1727,-779 0,-131 29,-229 90,-288 58,-61 211,-148 460,-268 156,-73 263,-170 317,-292 56,-124 102,-365 139,-721 44,-383 83,-1007 122,-1873 39,-870 56,-1614 56,-2232 0,-775 -58,-1301 -178,-1576 -41,-95 -89,-169 -146,-214 -53,-49 -158,-110 -309,-185 -339,-164 -507,-373 -507,-628 0,-169 63,-319 187,-458 127,-137 295,-235 505,-292 209,-61 490,-115 838,-161 351,-44 645,-68 889,-68 609,0 1040,51 1291,151 124,47 222,112 292,193 73,80 175,249 307,499l1486 2734c161,300 273,482 333,550 63,66 149,101 259,101 95,0 178,-37 253,-107 73,-71 161,-205 261,-400l1007 -1964c124,-250 204,-416 241,-492 234,-475 465,-792 694,-951 291,-205 819,-306 1584,-306 1347,0 2020,306 2020,921 0,139 -26,249 -77,333 -54,83 -161,182 -322,303 -219,166 -356,407 -414,721 -109,655 -163,1457 -163,2398 0,1213 56,2278 170,3192 30,224 74,375 132,455 61,83 214,202 460,366 173,115 258,265 258,455 0,333 -222,570 -665,707 -229,77 -467,127 -721,151 -251,24 -639,34 -1163,36 -804,-2 -1403,-59 -1798,-173 -439,-128 -657,-345 -657,-655 0,-115 29,-209 85,-283 59,-73 205,-209 444,-404 124,-101 207,-292 253,-577 44,-286 68,-770 68,-1457 0,-380 -20,-628 -54,-749 -36,-119 -112,-178 -226,-178 -131,0 -261,90 -385,273 -125,185 -310,548 -556,1097z"/>
  <path id="4" fill="black" fill-rule="nonzero" d="M81367 7694c829,0 1530,209 2105,628 304,224 519,480 641,767 119,288 181,684 181,1189l-15 1062c0,738 54,1216 158,1435 51,105 102,170 151,200 47,29 146,53 300,77 151,25 227,125 227,300 0,229 -90,468 -276,714 -182,249 -419,455 -709,621 -358,209 -731,315 -1120,315 -500,0 -895,-170 -1184,-514 -100,-125 -193,-185 -280,-185 -95,0 -219,59 -377,178 -476,348 -1017,521 -1621,521 -623,0 -1128,-134 -1512,-399 -251,-176 -453,-407 -600,-690 -149,-282 -222,-577 -222,-886 0,-497 199,-934 599,-1316 624,-600 1557,-902 2800,-907 276,0 448,-27 521,-80 71,-56 104,-182 104,-383 0,-505 -51,-870 -155,-1096 -105,-224 -276,-339 -514,-339 -144,0 -271,44 -383,129 -112,85 -250,241 -416,470 -425,603 -868,906 -1328,906 -235,0 -425,-68 -571,-207 -148,-137 -222,-319 -222,-541 0,-229 90,-458 276,-687 182,-227 431,-426 745,-600 860,-455 1760,-684 2697,-684zm-478 4132c-209,0 -392,85 -546,258 -155,170 -231,375 -231,614 0,229 53,412 163,553 110,139 253,209 436,209 380,0 571,-321 571,-962 0,-263 -27,-439 -83,-529 -54,-90 -159,-139 -310,-143z"/>
  <path id="5" fill="black" fill-rule="nonzero" d="M89076 7737c290,0 470,24 543,73 71,51 108,176 108,375 0,176 56,266 170,266 47,0 207,-90 478,-274 204,-136 465,-253 782,-345 317,-93 601,-139 859,-139 604,0 1145,209 1620,628 361,319 643,721 844,1206 209,509 314,1046 314,1605 0,1199 -404,2188 -1213,2963 -624,604 -1332,907 -2129,907 -404,0 -818,-95 -1248,-285 -85,-39 -155,-59 -207,-59 -143,0 -214,143 -214,428 0,378 127,648 377,814 235,158 373,263 419,319 45,54 66,146 66,273 0,288 -158,507 -478,660 -319,156 -767,234 -1349,234 -1031,0 -1935,-207 -2712,-621 -395,-209 -592,-470 -592,-779 0,-142 30,-251 90,-324 59,-74 173,-151 346,-232 246,-115 397,-321 453,-621 54,-300 96,-1162 125,-2585 -34,-1169 -75,-1828 -129,-1969 -20,-48 -46,-77 -80,-92 -36,-15 -154,-41 -354,-80 -153,-27 -277,-98 -372,-209 -95,-113 -142,-247 -142,-402 0,-193 66,-358 200,-505 131,-146 348,-288 648,-424 1167,-529 2093,-797 2777,-806zm707 2696l-107 1965c-6,80 -7,158 -7,234 0,148 63,268 193,358 128,90 299,137 514,137 657,0 984,-541 984,-1620 0,-702 -137,-1194 -412,-1480 -173,-175 -378,-263 -615,-263 -339,0 -521,222 -550,669z"/>
  <path fill="black" fill-rule="nonzero" d="M39843 23397c-149,0 -243,47 -285,137 -41,90 -62,299 -62,628 0,498 32,887 94,1165 20,78 50,141 88,182 40,45 115,97 225,159 235,130 351,301 351,512 0,259 -163,441 -490,550 -328,108 -882,162 -1663,162 -1453,0 -2177,-275 -2177,-825 0,-92 22,-169 64,-225 44,-58 142,-136 295,-238 172,-115 290,-250 349,-404 61,-155 102,-422 127,-804 20,-277 30,-1275 30,-2994 0,-544 -28,-915 -82,-1112 -56,-196 -172,-338 -354,-428 -172,-82 -289,-158 -347,-227 -58,-68 -88,-158 -88,-269 0,-144 57,-271 169,-377 110,-109 266,-189 467,-239 169,-44 399,-64 693,-64 130,0 454,19 972,59 97,7 253,12 464,12 354,0 824,-24 1412,-71 373,-28 634,-42 783,-42 839,0 1534,203 2082,606 494,366 741,870 741,1519 0,359 -86,689 -259,984 -172,297 -410,520 -710,669 -127,62 -189,137 -189,223 0,115 96,208 289,277 412,149 713,375 906,677 191,301 330,765 412,1387 34,259 87,428 153,505 66,76 221,150 464,221 76,22 139,73 189,148 52,79 76,163 76,258 0,120 -47,243 -141,367 -94,123 -217,222 -365,291 -330,153 -779,229 -1354,229 -763,0 -1312,-201 -1641,-606 -149,-179 -276,-408 -380,-682 -104,-275 -227,-703 -368,-1283 -90,-373 -205,-634 -343,-790 -141,-152 -340,-235 -599,-247zm-342 -3000l-64 1371c0,12 0,28 0,52 0,141 20,235 62,283 40,47 125,71 249,71 345,0 597,-88 753,-267 159,-179 237,-464 237,-858 0,-757 -269,-1135 -807,-1135 -153,0 -262,36 -324,107 -61,70 -98,195 -106,375z"/>
  <path id="1" fill="black" fill-rule="nonzero" d="M47624 18745l3022 0c612,0 1058,-12 1339,-38 281,-26 554,-78 821,-156 83,-22 147,-34 193,-34 205,0 386,108 543,330 259,358 387,787 387,1293 0,255 -54,455 -161,604 -108,146 -257,219 -443,219 -130,0 -231,-26 -304,-78 -73,-52 -170,-173 -291,-356 -172,-263 -391,-439 -656,-528 -265,-88 -698,-133 -1304,-133 -452,0 -724,83 -823,243 -52,87 -82,201 -92,348 -8,144 -14,514 -14,1110 0,236 40,382 118,439 78,58 283,86 616,86 165,0 285,-34 359,-102 74,-70 123,-193 141,-367 28,-229 57,-384 87,-468 28,-85 82,-158 160,-221 83,-71 179,-107 290,-107 161,0 297,76 412,229 83,115 153,316 209,605 57,287 87,588 87,901 0,620 -96,1128 -289,1524 -107,217 -267,323 -482,323 -135,0 -227,-34 -277,-102 -50,-68 -90,-210 -118,-426 -58,-444 -318,-665 -775,-665 -177,0 -298,54 -362,167 -66,113 -98,319 -98,621 0,184 14,424 38,714 26,293 52,486 80,581 30,116 128,198 291,243 162,46 434,68 815,68 588,0 1031,-76 1330,-227 297,-150 540,-424 729,-821 111,-227 209,-379 297,-458 88,-78 203,-118 344,-118 165,0 302,73 410,215 109,144 161,323 161,538 0,235 -61,530 -181,884 -123,354 -272,667 -448,942 -91,132 -165,221 -223,266 -61,45 -134,67 -224,69 -74,-2 -182,-12 -324,-36 -250,-47 -586,-76 -1006,-88l-4989 0c-200,0 -356,-44 -466,-132 -109,-88 -165,-213 -165,-374 0,-114 24,-196 73,-247 46,-50 155,-116 323,-195 116,-50 205,-113 261,-187 57,-76 101,-184 133,-329 128,-593 195,-1392 195,-2396 0,-1515 -95,-2468 -283,-2866 -38,-78 -83,-133 -128,-165 -48,-30 -147,-68 -295,-111 -223,-68 -336,-217 -336,-448 0,-127 38,-236 113,-335 74,-99 173,-163 293,-195 153,-34 450,-52 890,-52z"/>
  <path id="2" fill="black" fill-rule="nonzero" d="M58973 26770l-787 6c-554,8 -958,20 -1213,36 -227,18 -389,28 -488,28 -239,0 -429,-61 -570,-182 -139,-121 -208,-265 -208,-434 0,-111 26,-196 76,-259 52,-64 175,-161 372,-295 113,-79 191,-201 236,-368 42,-167 90,-524 141,-1074 74,-854 112,-1908 112,-3159 0,-457 -30,-763 -90,-913 -61,-153 -205,-277 -427,-373 -259,-111 -387,-271 -387,-484 0,-173 76,-314 231,-424 156,-109 356,-165 599,-165 132,0 303,6 512,18 345,17 716,24 1116,24 295,0 873,-12 1736,-36 269,-7 517,-11 736,-11 522,0 941,42 1261,126 319,85 599,227 833,428 384,325 576,761 576,1305 0,271 -56,534 -170,791 -115,257 -267,462 -460,615 -137,110 -205,210 -205,301 0,99 83,181 247,247 321,128 615,347 876,653 271,318 408,717 408,1196 0,564 -208,1080 -619,1546 -544,617 -1351,925 -2418,925 -144,0 -502,-10 -1070,-29 -519,-20 -835,-32 -954,-35zm406 -6385l0 1213c0,193 24,327 74,405 48,78 134,119 255,119 291,0 504,-90 642,-269 137,-179 205,-458 205,-838 0,-370 -71,-655 -210,-856 -143,-202 -342,-303 -601,-303 -137,0 -234,38 -286,115 -54,76 -80,214 -80,413zm0 3390l0 558c0,514 38,856 113,1024 74,169 224,253 453,253 595,0 894,-349 894,-1048 0,-870 -333,-1305 -1000,-1305 -172,0 -293,38 -359,113 -66,74 -101,209 -101,406z"/>
  <path id="3" fill="black" fill-rule="nonzero" d="M78365 23397c-149,0 -243,47 -285,137 -41,90 -62,299 -62,628 0,498 32,887 94,1165 20,78 50,141 88,182 40,45 115,97 225,159 235,130 351,301 351,512 0,259 -163,441 -490,550 -328,108 -882,162 -1663,162 -1453,0 -2177,-275 -2177,-825 0,-92 22,-169 64,-225 44,-58 142,-136 295,-238 172,-115 290,-250 349,-404 61,-155 102,-422 127,-804 20,-277 30,-1275 30,-2994 0,-544 -28,-915 -82,-1112 -56,-196 -172,-338 -354,-428 -172,-82 -289,-158 -347,-227 -58,-68 -88,-158 -88,-269 0,-144 57,-271 169,-377 110,-109 266,-189 467,-239 169,-44 399,-64 693,-64 130,0 454,19 972,59 97,7 253,12 464,12 354,0 824,-24 1412,-71 373,-28 634,-42 783,-42 839,0 1534,203 2082,606 494,366 741,870 741,1519 0,359 -86,689 -259,984 -172,297 -410,520 -710,669 -127,62 -189,137 -189,223 0,115 96,208 289,277 412,149 713,375 906,677 191,301 330,765 412,1387 34,259 87,428 153,505 66,76 221,150 464,221 76,22 139,73 189,148 52,79 76,163 76,258 0,120 -47,243 -141,367 -94,123 -217,222 -365,291 -330,153 -779,229 -1354,229 -763,0 -1312,-201 -1641,-606 -149,-179 -276,-408 -380,-682 -104,-275 -227,-703 -368,-1283 -90,-373 -205,-634 -343,-790 -141,-152 -340,-235 -599,-247zm-342 -3000l-64 1371c0,12 0,28 0,52 0,141 20,235 62,283 40,47 125,71 249,71 345,0 597,-88 753,-267 159,-179 237,-464 237,-858 0,-757 -269,-1135 -807,-1135 -153,0 -262,36 -324,107 -61,70 -98,195 -106,375z"/>
  <path id="4" fill="black" fill-rule="nonzero" d="M88163 19028l2930 2564c273,239 472,359 592,359 205,0 307,-219 307,-655 0,-493 -30,-831 -88,-1010 -58,-181 -182,-318 -372,-408 -153,-74 -261,-152 -323,-236 -62,-85 -94,-193 -94,-328 0,-329 226,-540 677,-634 184,-40 506,-61 966,-61 592,0 1002,36 1229,106 361,111 540,318 540,625 0,255 -146,446 -439,576 -118,50 -199,97 -241,135 -44,40 -80,98 -113,177 -106,259 -160,749 -165,1471l0 1918c0,293 3,696 7,1205 4,691 -38,1189 -125,1494 -104,382 -297,571 -576,573 -120,-2 -227,-26 -316,-78 -86,-50 -233,-169 -438,-352l-3488 -3125c-243,-219 -446,-330 -606,-330 -239,0 -360,331 -360,994 0,545 33,918 93,1118 60,199 184,348 373,440 263,130 394,299 394,506 0,547 -587,819 -1760,819 -528,0 -939,-70 -1233,-209 -291,-141 -438,-337 -438,-592 0,-133 28,-234 82,-300 54,-66 179,-156 372,-271 185,-110 295,-304 335,-582 66,-507 101,-1234 101,-2183 0,-1012 -61,-1749 -177,-2213 -44,-169 -98,-293 -165,-375 -68,-82 -176,-161 -329,-235 -177,-87 -300,-171 -370,-253 -68,-83 -102,-182 -102,-302 0,-375 323,-612 972,-710 219,-33 602,-48 1153,-48 313,0 542,26 684,74 142,48 314,160 510,333z"/>
  <path id="svg_2" fill="#007F00" d="M69477 31533c-293,-1438 -809,-2633 -1434,-3741 -464,-822 -1001,-1581 -1498,-2379 -166,-265 -309,-547 -468,-823 -319,-552 -577,-1193 -561,-2023 17,-812 251,-1463 589,-1994 557,-876 1490,-1594 2740,-1782 1023,-155 1982,106 2662,504 556,325 986,759 1314,1271 341,534 576,1165 596,1988 10,422 -59,812 -156,1136 -98,328 -256,601 -397,894 -276,572 -620,1095 -966,1619 -1031,1560 -1997,3151 -2421,5331l0 0z"/>
  <circle id="svg_4" fill="#155400" cx="69466" cy="22558" r="1349"/>
  <g id="_733053456">
   <g>
    <path fill="black" d="M27509 9393c-1194,-2045 -2813,-3664 -4858,-4858 -2045,-1194 -4277,-1790 -6699,-1790 -2422,0 -4655,597 -6699,1790 -2046,1194 -3665,2813 -4858,4858 -1194,2045 -1790,4278 -1790,6699 0,2909 848,5524 2546,7846 1697,2323 3890,3931 6578,4823 313,58 545,17 696,-122 150,-139 225,-313 225,-520 0,-35 -3,-348 -8,-939 -7,-591 -9,-1107 -9,-1547l-399 69c-255,47 -576,66 -965,61 -388,-5 -790,-46 -1208,-121 -417,-75 -805,-249 -1165,-521 -358,-272 -614,-628 -764,-1069l-173 -399c-116,-266 -299,-562 -547,-886 -250,-324 -501,-545 -756,-660l-122 -88c-81,-58 -156,-128 -225,-209 -70,-81 -122,-162 -156,-243 -35,-81 -7,-148 87,-200 93,-52 261,-77 504,-77l347 51c232,47 519,185 860,417 342,232 623,533 844,903 266,476 588,838 964,1087 377,250 756,373 1139,373 382,0 712,-29 991,-87 277,-58 538,-144 782,-261 104,-777 388,-1373 851,-1790 -660,-70 -1254,-174 -1781,-314 -527,-139 -1072,-365 -1633,-678 -562,-313 -1029,-701 -1399,-1164 -371,-464 -675,-1072 -912,-1825 -237,-753 -356,-1622 -356,-2607 0,-1402 457,-2595 1372,-3580 -428,-1054 -388,-2236 122,-3545 336,-104 834,-26 1494,235 660,261 1144,483 1452,669 307,185 553,343 738,469 1077,-301 2190,-452 3337,-452 1146,0 2259,151 3337,452l660 -417c452,-277 985,-533 1599,-764 614,-232 1084,-295 1408,-191 521,1309 568,2491 139,3545 915,985 1373,2179 1373,3580 0,985 -119,1857 -357,2615 -237,760 -544,1367 -920,1825 -377,458 -846,844 -1409,1155 -561,313 -1106,539 -1633,678 -527,140 -1121,244 -1781,314 602,521 903,1344 903,2467l0 3667c0,209 73,382 218,521 144,139 373,180 686,121 2688,-892 4881,-2499 6578,-4822 1696,-2323 2546,-4939 2546,-7846 -1,-2421 -598,-4655 -1790,-6699z"/>
   </g>
   <g>
   </g>
   <g>
   </g>
   <g>
   </g>
   <g>
   </g>
   <g>
   </g>
   <g>
   </g>
   <g>
   </g>
   <g>
   </g>
   <g>
   </g>
   <g>
   </g>
   <g>
   </g>
   <g>
   </g>
   <g>
   </g>
   <g>
   </g>
   <g>
   </g>
  </g>
 </g>
</svg>
