<?xml version="1.0" encoding="UTF-8"?>
<!DOCTYPE svg PUBLIC "-//W3C//DTD SVG 1.1//EN" "http://www.w3.org/Graphics/SVG/1.1/DTD/svg11.dtd">
<!-- Creator: CorelDRAW 2018 (64 Bit) -->
<svg xmlns="http://www.w3.org/2000/svg" xml:space="preserve" width="600px" height="600px" version="1.1" style="shape-rendering:geometricPrecision; text-rendering:geometricPrecision; image-rendering:optimizeQuality; fill-rule:evenodd; clip-rule:evenodd"
viewBox="0 0 295.9 295.9"
 xmlns:xlink="http://www.w3.org/1999/xlink">
 <defs>
  <style type="text/css">
   <![CDATA[
    .fil0 {fill:none}
    .fil2 {fill:#BDBFC1}
    .fil1 {fill:#4B4B4D}
    .fil5 {fill:#C83538}
    .fil6 {fill:#663333}
    .fil4 {fill:#FEFEFE;fill-rule:nonzero}
    .fil3 {fill:#4B4B4D;fill-rule:nonzero}
   ]]>
  </style>
 </defs>
 <g id="Layer_x0020_1">
  <metadata id="CorelCorpID_0Corel-Layer"/>
  <rect class="fil0" width="295.9" height="295.9"/>
  <g id="_2153521872752">
   <path id="svg_2" class="fil1" d="M169.8 206.7c-1.4,-7.1 -4,-13 -7,-18.4 -2.3,-4 -5,-7.8 -7.4,-11.7 -0.8,-1.3 -1.5,-2.7 -2.3,-4 -1.6,-2.7 -2.8,-5.9 -2.8,-10 0.1,-3.9 1.3,-7.1 2.9,-9.8 2.8,-4.3 7.3,-7.8 13.5,-8.7 5,-0.8 9.7,0.5 13.1,2.5 2.7,1.6 4.8,3.7 6.4,6.2 1.7,2.6 2.8,5.7 2.9,9.8 0.1,2 -0.2,4 -0.7,5.5 -0.5,1.7 -1.3,3 -2,4.4 -1.3,2.8 -3,5.4 -4.7,8 -5.1,7.6 -9.8,15.5 -11.9,26.2l0 0z"/>
   <circle id="svg_4" class="fil2" cx="169.7" cy="163.5" r="6.6"/>
   <path class="fil3" d="M23.2 93.8l17.5 15.3c1.6,1.4 2.8,2.2 3.5,2.2 1.2,0 1.8,-1.4 1.8,-3.9 0,-3 -0.1,-5 -0.5,-6.1 -0.3,-1 -1.1,-1.9 -2.2,-2.4 -0.9,-0.4 -1.5,-0.9 -1.9,-1.4 -0.4,-0.5 -0.6,-1.2 -0.6,-2 0,-1.9 1.4,-3.2 4.1,-3.7 1.1,-0.3 3,-0.4 5.7,-0.4 3.5,0 6,0.2 7.3,0.6 2.2,0.7 3.2,1.9 3.2,3.8 0,1.5 -0.8,2.6 -2.6,3.4 -0.7,0.3 -1.2,0.6 -1.4,0.8 -0.3,0.2 -0.5,0.6 -0.7,1 -0.6,1.6 -0.9,4.5 -1,8.8l0 11.4c0,1.8 0.1,4.2 0.1,7.2 0,4.1 -0.3,7.1 -0.8,8.9 -0.6,2.3 -1.7,3.4 -3.4,3.4 -0.7,0 -1.4,-0.1 -1.9,-0.4 -0.5,-0.3 -1.4,-1 -2.6,-2.1l-20.8 -18.6c-1.4,-1.4 -2.6,-2 -3.6,-2 -1.4,0 -2.1,2 -2.1,5.9 0,3.3 0.2,5.5 0.5,6.7 0.4,1.2 1.1,2 2.3,2.6 1.5,0.8 2.3,1.8 2.3,3 0,3.3 -3.5,4.9 -10.5,4.9 -3.1,0 -5.6,-0.4 -7.3,-1.3 -1.8,-0.8 -2.6,-2 -2.6,-3.5 0,-0.8 0.1,-1.4 0.5,-1.8 0.3,-0.4 1,-0.9 2.2,-1.6 1.1,-0.6 1.7,-1.8 2,-3.5 0.4,-3 0.6,-7.3 0.6,-13 0,-6 -0.4,-10.4 -1.1,-13.1 -0.2,-1 -0.6,-1.8 -1,-2.3 -0.4,-0.5 -1,-0.9 -1.9,-1.4 -1.1,-0.5 -1.8,-1 -2.2,-1.5 -0.4,-0.5 -0.6,-1.1 -0.6,-1.8 0,-2.2 1.9,-3.6 5.8,-4.2 1.3,-0.2 3.5,-0.3 6.8,-0.3 1.9,0 3.3,0.2 4.1,0.5 0.9,0.2 1.9,0.9 3,1.9z"/>
   <path id="1" class="fil3" d="M82.3 105c4.1,0 7.6,1.1 10.4,3.1 1.5,1.1 2.5,2.4 3.1,3.8 0.6,1.4 0.9,3.4 0.9,5.8l-0.1 5.2c0,3.7 0.3,6 0.8,7.1 0.3,0.5 0.5,0.8 0.8,1 0.2,0.1 0.7,0.2 1.4,0.4 0.8,0.1 1.1,0.6 1.1,1.4 0,1.2 -0.4,2.3 -1.3,3.5 -0.9,1.3 -2.1,2.3 -3.5,3.1 -1.8,1 -3.6,1.5 -5.5,1.5 -2.5,0 -4.4,-0.8 -5.8,-2.5 -0.5,-0.6 -1,-0.9 -1.4,-0.9 -0.5,0 -1.1,0.3 -1.8,0.9 -2.4,1.7 -5,2.5 -8,2.5 -3.1,0 -5.5,-0.6 -7.4,-1.9 -1.3,-0.9 -2.2,-2 -3,-3.4 -0.7,-1.4 -1.1,-2.9 -1.1,-4.4 0,-2.4 1,-4.6 3,-6.4 3,-3 7.6,-4.5 13.7,-4.5 1.4,0 2.2,-0.1 2.6,-0.4 0.3,-0.3 0.5,-0.9 0.5,-1.9 0,-2.4 -0.2,-4.2 -0.8,-5.3 -0.5,-1.1 -1.3,-1.7 -2.5,-1.7 -0.7,0 -1.3,0.2 -1.9,0.6 -0.5,0.5 -1.2,1.2 -2,2.3 -2.1,3 -4.3,4.5 -6.5,4.5 -1.2,0 -2.1,-0.3 -2.8,-1 -0.8,-0.7 -1.1,-1.6 -1.1,-2.7 0,-1.1 0.4,-2.2 1.3,-3.4 0.9,-1.1 2.2,-2 3.7,-2.9 4.2,-2.2 8.6,-3.4 13.2,-3.4zm-2.3 20.3c-1,0 -1.9,0.4 -2.7,1.3 -0.8,0.8 -1.1,1.8 -1.1,3 0,1.1 0.2,2 0.8,2.7 0.5,0.7 1.2,1.1 2.1,1.1 1.9,0 2.8,-1.6 2.8,-4.8 0,-1.3 -0.1,-2.1 -0.4,-2.6 -0.2,-0.4 -0.8,-0.6 -1.5,-0.7z"/>
   <path id="2" class="fil3" d="M140.3 103.2c0.5,0 1.1,0.3 1.5,1 0.5,0.7 0.7,1.4 0.7,2.3 0,1 -0.3,2.1 -0.9,3.3 -0.6,1.2 -1.3,2.2 -2.2,2.9 -0.5,0.5 -0.8,0.8 -0.8,1.1 0,0.1 0,0.4 0.1,0.8 0.1,0.5 0.1,1 0.1,1.4 0,2.8 -1,5.1 -2.8,7 -1.7,1.7 -3.9,3 -6.5,3.9 -2.7,0.9 -5.6,1.4 -8.8,1.4 -0.7,0 -1.5,0 -2.2,-0.1 -0.6,-0.1 -1.1,-0.1 -1.4,-0.1 -1.3,0 -1.9,0.6 -1.9,1.8 0,0.8 0.4,1.4 1.2,1.9 0.8,0.5 1.9,0.7 3.3,0.7 0.9,0 2.3,-0.1 4.1,-0.4 3.9,-0.5 6.7,-0.8 8.5,-0.8 2.8,0 4.9,0.5 6.4,1.4 1.2,0.7 2.2,1.6 2.9,2.9 0.7,1.3 1.1,2.6 1.1,4.1 0,2.3 -0.9,4.6 -2.6,6.8 -2.1,2.7 -5.1,4.6 -9.1,5.8 -3.1,1 -6.7,1.5 -10.9,1.5 -5.1,0 -9.3,-0.8 -12.6,-2.4 -1.5,-0.7 -2.7,-1.7 -3.5,-2.9 -0.9,-1.2 -1.4,-2.5 -1.4,-3.8 0,-0.9 0.3,-1.7 0.8,-2.5 0.5,-0.8 1.1,-1.3 1.9,-1.7 0.7,-0.2 1,-0.5 1,-0.9 0,-0.2 -0.3,-0.6 -0.8,-1.1 -1.9,-1.6 -2.8,-3.2 -2.8,-4.9 0,-1.1 0.4,-2.2 1.3,-3.4 0.9,-1.2 2,-2.1 3.4,-2.8 0.5,-0.3 0.8,-0.6 0.8,-0.8 0,-0.4 -0.3,-0.9 -1.1,-1.5 -2.4,-2.2 -3.6,-4.8 -3.6,-7.8 0,-1.6 0.5,-3 1.3,-4.5 0.9,-1.4 2.1,-2.6 3.6,-3.6 3.7,-2.5 7.9,-3.7 12.5,-3.7 1.8,0 3.8,0.2 6.1,0.7 2.1,0.4 3.6,0.6 4.4,0.6 2.5,0 5,-1 7.6,-3 0.5,-0.4 1,-0.6 1.3,-0.6zm-19.1 7.2c-1.1,0 -2.1,0.5 -2.8,1.4 -0.7,0.9 -1.1,2 -1.1,3.5 0,2.5 0.4,4.6 1.2,6.1 0.8,1.5 1.8,2.3 3,2.3 1.3,0 2.3,-0.5 3,-1.5 0.7,-0.9 1.1,-2.2 1.1,-3.8 0,-2.5 -0.4,-4.4 -1.2,-5.8 -0.7,-1.4 -1.8,-2.1 -3.2,-2.2zm-7.6 31.9c-0.6,0 -0.9,0.4 -0.9,1 0,1.4 0.8,2.5 2.3,3.4 1.5,0.8 3.4,1.3 5.8,1.3 2.3,0 4.1,-0.3 5.4,-0.9 1.3,-0.6 1.9,-1.5 1.9,-2.6 0,-0.6 -0.2,-1.1 -0.7,-1.5 -0.5,-0.4 -1.1,-0.6 -1.9,-0.6 -0.3,0 -0.9,0 -1.6,0.1 -1.3,0.2 -2.7,0.4 -4.4,0.4 -1.1,0 -2.3,-0.1 -3.4,-0.2 -0.8,-0.1 -1.5,-0.2 -2,-0.3 -0.2,-0.1 -0.4,-0.1 -0.5,-0.1z"/>
   <path id="3" class="fil3" d="M179.3 125.5l-4.2 9.4c-0.8,1.6 -1.3,2.7 -1.8,3.2 -0.4,0.6 -0.9,0.8 -1.5,0.8 -0.5,0 -0.9,-0.2 -1.3,-0.6 -0.3,-0.3 -0.9,-1.3 -1.8,-3.1 -0.9,-1.8 -1.7,-3.4 -2.3,-4.8l-4.6 -10.4c-0.7,-1.4 -1.3,-2.1 -2,-2.1 -0.8,0 -1.2,0.6 -1.2,1.8 -0.2,2.8 -0.3,5.3 -0.3,7.7 0,2.4 0.1,4 0.4,4.9 0.1,0.5 0.3,0.9 0.6,1.1 0.3,0.3 1,0.7 2.2,1.3 0.8,0.4 1.2,1.1 1.2,2.1 0,2.6 -3.4,3.9 -10.1,3.9 -5.7,0 -8.5,-1.3 -8.5,-3.8 0,-0.7 0.2,-1.2 0.5,-1.5 0.2,-0.3 1,-0.7 2.2,-1.3 0.8,-0.3 1.3,-0.8 1.6,-1.4 0.2,-0.6 0.5,-1.8 0.7,-3.5 0.2,-1.9 0.4,-5 0.6,-9.2 0.1,-4.3 0.2,-8 0.2,-11 0,-3.8 -0.3,-6.4 -0.8,-7.7 -0.2,-0.5 -0.5,-0.9 -0.8,-1.1 -0.2,-0.2 -0.7,-0.5 -1.5,-0.9 -1.6,-0.8 -2.5,-1.8 -2.5,-3.1 0,-0.8 0.3,-1.6 1,-2.2 0.6,-0.7 1.4,-1.2 2.4,-1.5 1.1,-0.3 2.4,-0.5 4.1,-0.8 1.8,-0.2 3.2,-0.3 4.4,-0.3 3,0 5.1,0.3 6.3,0.8 0.7,0.2 1.1,0.5 1.5,0.9 0.3,0.4 0.8,1.2 1.5,2.4l7.3 13.5c0.8,1.4 1.3,2.3 1.6,2.7 0.3,0.3 0.8,0.5 1.3,0.5 0.5,0 0.9,-0.2 1.2,-0.6 0.4,-0.3 0.8,-1 1.3,-1.9l5 -9.7c0.6,-1.2 1,-2 1.1,-2.4 1.2,-2.3 2.3,-3.9 3.4,-4.6 1.5,-1.1 4.1,-1.6 7.8,-1.6 6.6,0 9.9,1.6 9.9,4.6 0,0.6 -0.1,1.2 -0.3,1.6 -0.3,0.4 -0.8,0.9 -1.6,1.5 -1.1,0.8 -1.8,2 -2.1,3.5 -0.5,3.2 -0.8,7.2 -0.8,11.8 0,6 0.3,11.2 0.9,15.7 0.1,1.1 0.3,1.8 0.6,2.2 0.3,0.4 1.1,1 2.3,1.8 0.8,0.6 1.3,1.3 1.3,2.2 0,1.7 -1.1,2.8 -3.3,3.5 -1.1,0.4 -2.3,0.6 -3.6,0.7 -1.2,0.2 -3.1,0.2 -5.7,0.2 -3.9,0 -6.8,-0.3 -8.8,-0.8 -2.1,-0.7 -3.2,-1.7 -3.2,-3.2 0,-0.6 0.1,-1.1 0.4,-1.4 0.3,-0.4 1,-1.1 2.2,-2 0.6,-0.5 1,-1.5 1.2,-2.9 0.2,-1.4 0.4,-3.7 0.4,-7.1 0,-1.9 -0.1,-3.1 -0.3,-3.7 -0.2,-0.6 -0.6,-0.8 -1.1,-0.8 -0.7,0 -1.3,0.4 -1.9,1.3 -0.6,0.9 -1.5,2.7 -2.7,5.4z"/>
   <path id="4" class="fil3" d="M227.9 105c4.1,0 7.5,1.1 10.4,3.1 1.5,1.1 2.5,2.4 3.1,3.8 0.6,1.4 0.9,3.4 0.9,5.8l-0.1 5.2c0,3.7 0.3,6 0.8,7.1 0.3,0.5 0.5,0.8 0.8,1 0.2,0.1 0.7,0.2 1.4,0.4 0.8,0.1 1.1,0.6 1.1,1.4 0,1.2 -0.4,2.3 -1.3,3.5 -0.9,1.3 -2.1,2.3 -3.5,3.1 -1.8,1 -3.6,1.5 -5.5,1.5 -2.5,0 -4.4,-0.8 -5.8,-2.5 -0.5,-0.6 -1,-0.9 -1.4,-0.9 -0.5,0 -1.1,0.3 -1.8,0.9 -2.4,1.7 -5,2.5 -8,2.5 -3.1,0 -5.5,-0.6 -7.4,-1.9 -1.3,-0.9 -2.2,-2 -3,-3.4 -0.7,-1.4 -1.1,-2.9 -1.1,-4.4 0,-2.4 1,-4.6 3,-6.4 3,-3 7.6,-4.5 13.7,-4.5 1.4,0 2.2,-0.1 2.6,-0.4 0.3,-0.3 0.5,-0.9 0.5,-1.9 0,-2.4 -0.2,-4.2 -0.8,-5.3 -0.5,-1.1 -1.3,-1.7 -2.5,-1.7 -0.7,0 -1.3,0.2 -1.9,0.6 -0.5,0.5 -1.2,1.2 -2,2.3 -2.1,3 -4.3,4.5 -6.5,4.5 -1.2,0 -2.1,-0.3 -2.8,-1 -0.8,-0.7 -1.1,-1.6 -1.1,-2.7 0,-1.1 0.4,-2.2 1.3,-3.4 0.9,-1.1 2.2,-2 3.7,-2.9 4.2,-2.2 8.6,-3.4 13.2,-3.4zm-2.3 20.3c-1,0 -1.9,0.4 -2.7,1.3 -0.8,0.8 -1.1,1.8 -1.1,3 0,1.1 0.2,2 0.8,2.7 0.5,0.7 1.2,1.1 2.1,1.1 1.9,0 2.8,-1.6 2.8,-4.8 0,-1.3 -0.1,-2.1 -0.4,-2.6 -0.3,-0.4 -0.8,-0.6 -1.5,-0.7z"/>
   <path id="5" class="fil3" d="M265.8 105.3c1.4,0 2.3,0.1 2.6,0.3 0.4,0.3 0.6,0.9 0.6,1.9 0,0.8 0.3,1.3 0.8,1.3 0.2,0 1,-0.5 2.4,-1.4 1,-0.6 2.2,-1.2 3.8,-1.7 1.6,-0.4 3,-0.7 4.2,-0.7 3,0 5.6,1.1 8,3.1 1.7,1.6 3.1,3.6 4.1,6 1,2.5 1.6,5.1 1.6,7.8 0,5.9 -2,10.8 -6,14.6 -3.1,2.9 -6.5,4.4 -10.5,4.4 -1.9,0 -4,-0.4 -6.1,-1.4 -0.4,-0.2 -0.7,-0.3 -1,-0.3 -0.7,0 -1,0.7 -1,2.1 0,1.9 0.6,3.2 1.8,4 1.2,0.8 1.8,1.3 2.1,1.6 0.2,0.3 0.3,0.7 0.3,1.3 0,1.5 -0.8,2.5 -2.4,3.3 -1.5,0.8 -3.7,1.1 -6.6,1.1 -5,0 -9.5,-1 -13.3,-3 -1.9,-1 -2.9,-2.3 -2.9,-3.8 0,-0.7 0.1,-1.3 0.4,-1.6 0.3,-0.4 0.9,-0.8 1.7,-1.2 1.2,-0.5 2,-1.5 2.3,-3 0.2,-1.5 0.4,-5.7 0.6,-12.7 -0.2,-5.7 -0.4,-9 -0.7,-9.7 -0.1,-0.2 -0.2,-0.4 -0.4,-0.4 -0.1,-0.1 -0.7,-0.2 -1.7,-0.4 -0.7,-0.2 -1.4,-0.5 -1.8,-1.1 -0.5,-0.5 -0.7,-1.2 -0.7,-1.9 0,-1 0.3,-1.8 1,-2.5 0.6,-0.7 1.7,-1.4 3.1,-2.1 5.8,-2.6 10.3,-3.9 13.7,-3.9zm3.5 13.2l-0.6 9.6c0,0.4 0,0.8 0,1.2 0,0.7 0.3,1.3 0.9,1.7 0.7,0.5 1.5,0.7 2.6,0.7 3.2,0 4.8,-2.6 4.8,-7.9 0,-3.5 -0.7,-5.9 -2,-7.3 -0.9,-0.9 -1.9,-1.3 -3,-1.3 -1.7,0 -2.6,1.1 -2.7,3.3z"/>
   <path class="fil3" d="M24.9 181.4c-0.7,0 -1.2,0.2 -1.4,0.7 -0.2,0.4 -0.3,1.4 -0.3,3.1 0,2.4 0.2,4.3 0.5,5.7 0.1,0.4 0.2,0.7 0.4,0.9 0.2,0.2 0.6,0.5 1.1,0.8 1.2,0.6 1.8,1.4 1.8,2.5 0,1.2 -0.8,2.1 -2.5,2.7 -1.6,0.5 -4.3,0.8 -8.1,0.8 -7.1,0 -10.7,-1.4 -10.7,-4.1 0,-0.4 0.1,-0.8 0.3,-1.1 0.2,-0.3 0.7,-0.7 1.5,-1.2 0.8,-0.5 1.4,-1.2 1.7,-1.9 0.3,-0.8 0.5,-2.1 0.6,-4 0.1,-1.3 0.1,-6.2 0.1,-14.7 0,-2.7 -0.1,-4.5 -0.4,-5.4 -0.2,-1 -0.8,-1.7 -1.7,-2.1 -0.8,-0.4 -1.4,-0.8 -1.7,-1.2 -0.3,-0.3 -0.4,-0.7 -0.4,-1.3 0,-0.7 0.2,-1.3 0.8,-1.8 0.5,-0.6 1.3,-1 2.3,-1.2 0.8,-0.2 2,-0.3 3.4,-0.3 0.6,0 2.2,0.1 4.8,0.3 0.4,0 1.2,0 2.2,0 1.8,0 4.1,-0.1 7,-0.3 1.8,-0.2 3.1,-0.2 3.8,-0.2 4.1,0 7.6,1 10.2,2.9 2.5,1.8 3.7,4.3 3.7,7.5 0,1.8 -0.4,3.4 -1.3,4.8 -0.8,1.5 -2,2.6 -3.5,3.3 -0.6,0.3 -0.9,0.7 -0.9,1.1 0,0.6 0.5,1 1.4,1.4 2,0.7 3.5,1.8 4.5,3.3 0.9,1.5 1.6,3.8 2,6.8 0.2,1.3 0.4,2.1 0.7,2.5 0.4,0.4 1.1,0.7 2.3,1.1 0.4,0.1 0.7,0.3 0.9,0.7 0.3,0.4 0.4,0.8 0.4,1.3 0,0.5 -0.2,1.2 -0.7,1.8 -0.4,0.6 -1,1 -1.8,1.4 -1.6,0.7 -3.8,1.1 -6.6,1.1 -3.8,0 -6.5,-1 -8.1,-3 -0.7,-0.8 -1.3,-2 -1.8,-3.3 -0.6,-1.4 -1.2,-3.5 -1.8,-6.3 -0.5,-1.8 -1,-3.1 -1.7,-3.9 -0.7,-0.7 -1.7,-1.1 -3,-1.2zm-1.6 -14.7l-0.4 6.7c0,0.1 0,0.2 0,0.3 0,0.7 0.1,1.1 0.3,1.4 0.2,0.2 0.7,0.3 1.3,0.3 1.7,0 2.9,-0.4 3.7,-1.3 0.7,-0.9 1.1,-2.3 1.1,-4.2 0,-3.7 -1.3,-5.6 -3.9,-5.6 -0.8,0 -1.3,0.2 -1.6,0.5 -0.3,0.4 -0.5,1 -0.5,1.9z"/>
   <path id="1" class="fil3" d="M63.1 158.6l14.9 0c3,0 5.2,-0.1 6.5,-0.2 1.4,-0.2 2.8,-0.4 4.1,-0.8 0.4,-0.1 0.7,-0.2 0.9,-0.2 1,0 1.9,0.6 2.7,1.7 1.3,1.7 1.9,3.8 1.9,6.3 0,1.3 -0.3,2.2 -0.8,3 -0.5,0.7 -1.3,1 -2.2,1 -0.6,0 -1.1,-0.1 -1.5,-0.3 -0.3,-0.3 -0.8,-0.9 -1.4,-1.8 -0.8,-1.3 -1.9,-2.1 -3.2,-2.6 -1.3,-0.4 -3.5,-0.6 -6.4,-0.6 -2.2,0 -3.6,0.4 -4.1,1.2 -0.2,0.4 -0.4,1 -0.4,1.7 -0.1,0.7 -0.1,2.5 -0.1,5.4 0,1.2 0.2,1.9 0.6,2.2 0.4,0.3 1.4,0.4 3,0.4 0.8,0 1.4,-0.2 1.8,-0.5 0.4,-0.3 0.6,-0.9 0.7,-1.8 0.1,-1.1 0.3,-1.9 0.4,-2.3 0.1,-0.4 0.4,-0.8 0.8,-1.1 0.4,-0.3 0.9,-0.5 1.4,-0.5 0.8,0 1.5,0.4 2,1.1 0.4,0.6 0.8,1.6 1.1,3 0.2,1.4 0.4,2.9 0.4,4.4 0,3.1 -0.5,5.5 -1.4,7.5 -0.6,1.1 -1.3,1.6 -2.4,1.6 -0.7,0 -1.1,-0.2 -1.4,-0.5 -0.2,-0.4 -0.4,-1.1 -0.5,-2.1 -0.3,-2.2 -1.6,-3.3 -3.9,-3.3 -0.8,0 -1.4,0.3 -1.7,0.8 -0.4,0.6 -0.5,1.6 -0.5,3.1 0,0.9 0.1,2.1 0.2,3.5 0.1,1.4 0.2,2.4 0.4,2.8 0.1,0.6 0.6,1 1.4,1.2 0.8,0.3 2.1,0.4 4,0.4 2.9,0 5.1,-0.4 6.5,-1.1 1.5,-0.8 2.7,-2.1 3.6,-4.1 0.6,-1.1 1,-1.8 1.5,-2.2 0.4,-0.4 1,-0.6 1.7,-0.6 0.8,0 1.4,0.4 2,1.1 0.5,0.7 0.8,1.5 0.8,2.6 0,1.1 -0.3,2.6 -0.9,4.3 -0.6,1.8 -1.4,3.3 -2.2,4.7 -0.5,0.6 -0.8,1 -1.1,1.3 -0.3,0.2 -0.7,0.3 -1.1,0.3 -0.4,0 -0.9,-0.1 -1.6,-0.2 -1.2,-0.2 -2.9,-0.3 -5,-0.4l-24.4 0c-1,0 -1.8,-0.2 -2.3,-0.7 -0.6,-0.4 -0.8,-1 -0.8,-1.8 0,-0.6 0.1,-1 0.3,-1.2 0.2,-0.3 0.8,-0.6 1.6,-1 0.6,-0.2 1,-0.5 1.3,-0.9 0.3,-0.4 0.5,-0.9 0.6,-1.6 0.7,-2.9 1,-6.8 1,-11.8 0,-7.4 -0.5,-12.1 -1.4,-14 -0.2,-0.4 -0.4,-0.7 -0.6,-0.8 -0.3,-0.2 -0.8,-0.4 -1.5,-0.6 -1.1,-0.3 -1.6,-1 -1.6,-2.2 0,-0.6 0.2,-1.1 0.5,-1.6 0.4,-0.5 0.9,-0.8 1.5,-1 0.7,-0.1 2.2,-0.2 4.3,-0.2z"/>
   <path id="2" class="fil3" d="M118.9 198l-3.9 0c-2.7,0 -4.7,0.1 -6,0.2 -1.1,0.1 -1.9,0.1 -2.4,0.1 -1.1,0 -2.1,-0.3 -2.8,-0.9 -0.6,-0.6 -1,-1.3 -1,-2.1 0,-0.6 0.2,-1 0.4,-1.3 0.3,-0.3 0.9,-0.8 1.8,-1.4 0.6,-0.4 1,-1 1.2,-1.8 0.2,-0.9 0.4,-2.6 0.7,-5.3 0.3,-4.2 0.5,-9.4 0.5,-15.5 0,-2.3 -0.1,-3.8 -0.4,-4.5 -0.3,-0.8 -1,-1.4 -2.1,-1.8 -1.3,-0.6 -1.9,-1.4 -1.9,-2.4 0,-0.9 0.3,-1.6 1.1,-2.1 0.8,-0.5 1.8,-0.8 2.9,-0.8 0.7,0 1.5,0 2.6,0.1 1.7,0.1 3.5,0.1 5.4,0.1 1.5,0 4.3,-0.1 8.6,-0.2 1.3,0 2.5,0 3.6,0 2.5,0 4.6,0.2 6.2,0.6 1.5,0.4 2.9,1.1 4.1,2.1 1.8,1.6 2.8,3.7 2.8,6.4 0,1.3 -0.3,2.6 -0.8,3.9 -0.6,1.2 -1.4,2.2 -2.3,3 -0.7,0.5 -1,1 -1,1.5 0,0.4 0.4,0.9 1.2,1.2 1.6,0.6 3,1.7 4.3,3.2 1.3,1.5 2,3.5 2,5.9 0,2.7 -1,5.3 -3,7.5 -2.7,3.1 -6.7,4.6 -11.9,4.6 -0.7,0 -2.5,-0.1 -5.3,-0.2 -2.5,-0.1 -4.1,-0.1 -4.6,-0.1zm2 -31.4l0 6c0,0.9 0.1,1.6 0.3,2 0.3,0.4 0.7,0.5 1.3,0.5 1.4,0 2.4,-0.4 3.1,-1.3 0.7,-0.9 1,-2.2 1,-4.1 0,-1.8 -0.3,-3.2 -1,-4.2 -0.7,-1 -1.7,-1.5 -3,-1.5 -0.6,0 -1.1,0.2 -1.4,0.6 -0.2,0.4 -0.3,1 -0.3,2zm0 16.7l0 2.7c0,2.5 0.1,4.2 0.5,5 0.4,0.9 1.1,1.3 2.2,1.3 2.9,0 4.4,-1.7 4.4,-5.2 0,-4.2 -1.6,-6.4 -4.9,-6.4 -0.8,0 -1.4,0.2 -1.8,0.6 -0.3,0.3 -0.4,1 -0.4,2z"/>
   <path id="3" class="fil3" d="M214.1 181.4c-0.8,0 -1.2,0.2 -1.4,0.7 -0.2,0.4 -0.3,1.4 -0.3,3.1 0,2.4 0.1,4.3 0.4,5.7 0.1,0.4 0.3,0.7 0.5,0.9 0.2,0.2 0.5,0.5 1.1,0.8 1.1,0.6 1.7,1.4 1.7,2.5 0,1.2 -0.8,2.1 -2.4,2.7 -1.6,0.5 -4.3,0.8 -8.2,0.8 -7.1,0 -10.7,-1.4 -10.7,-4.1 0,-0.4 0.1,-0.8 0.4,-1.1 0.2,-0.3 0.7,-0.7 1.4,-1.2 0.9,-0.5 1.4,-1.2 1.7,-1.9 0.3,-0.8 0.5,-2.1 0.6,-4 0.1,-1.3 0.2,-6.2 0.2,-14.7 0,-2.7 -0.1,-4.5 -0.4,-5.4 -0.3,-1 -0.9,-1.7 -1.8,-2.1 -0.8,-0.4 -1.4,-0.8 -1.7,-1.2 -0.2,-0.3 -0.4,-0.7 -0.4,-1.3 0,-0.7 0.3,-1.3 0.8,-1.8 0.6,-0.6 1.3,-1 2.3,-1.2 0.9,-0.2 2,-0.3 3.4,-0.3 0.7,0 2.3,0.1 4.8,0.3 0.5,0 1.3,0 2.3,0 1.7,0 4,-0.1 6.9,-0.3 1.9,-0.2 3.1,-0.2 3.9,-0.2 4.1,0 7.5,1 10.2,2.9 2.4,1.8 3.6,4.3 3.6,7.5 0,1.8 -0.4,3.4 -1.2,4.8 -0.9,1.5 -2.1,2.6 -3.5,3.3 -0.7,0.3 -1,0.7 -1,1.1 0,0.6 0.5,1 1.5,1.4 2,0.7 3.5,1.8 4.4,3.3 0.9,1.5 1.6,3.8 2,6.8 0.2,1.3 0.4,2.1 0.8,2.5 0.3,0.4 1.1,0.7 2.3,1.1 0.3,0.1 0.6,0.3 0.9,0.7 0.2,0.4 0.4,0.8 0.4,1.3 0,0.5 -0.3,1.2 -0.7,1.8 -0.5,0.6 -1.1,1 -1.8,1.4 -1.6,0.7 -3.9,1.1 -6.7,1.1 -3.7,0 -6.4,-1 -8,-3 -0.8,-0.8 -1.4,-2 -1.9,-3.3 -0.5,-1.4 -1.1,-3.5 -1.8,-6.3 -0.4,-1.8 -1,-3.1 -1.7,-3.9 -0.7,-0.7 -1.7,-1.1 -2.9,-1.2zm-1.7 -14.7l-0.3 6.7c0,0.1 0,0.2 0,0.3 0,0.7 0.1,1.1 0.3,1.4 0.2,0.2 0.6,0.3 1.2,0.3 1.7,0 2.9,-0.4 3.7,-1.3 0.8,-0.9 1.2,-2.3 1.2,-4.2 0,-3.7 -1.3,-5.6 -4,-5.6 -0.7,0 -1.3,0.2 -1.6,0.5 -0.3,0.4 -0.5,1 -0.5,1.9z"/>
   <path id="4" class="fil3" d="M262.2 160l14.4 12.5c1.3,1.2 2.3,1.8 2.9,1.8 1,0 1.5,-1.1 1.5,-3.2 0,-2.4 -0.2,-4.1 -0.5,-5 -0.2,-0.9 -0.8,-1.5 -1.8,-2 -0.7,-0.3 -1.3,-0.7 -1.6,-1.1 -0.3,-0.4 -0.4,-1 -0.4,-1.6 0,-1.7 1.1,-2.7 3.3,-3.2 0.9,-0.1 2.5,-0.2 4.7,-0.2 2.9,0 5,0.1 6.1,0.5 1.7,0.5 2.6,1.5 2.6,3 0,1.3 -0.7,2.2 -2.1,2.9 -0.6,0.2 -1,0.4 -1.2,0.6 -0.2,0.2 -0.4,0.5 -0.6,0.9 -0.5,1.3 -0.8,3.7 -0.8,7.2l0 9.4c0,1.5 0,3.5 0.1,6 0,3.3 -0.2,5.8 -0.7,7.3 -0.5,1.9 -1.4,2.8 -2.8,2.8 -0.6,0 -1.1,-0.1 -1.5,-0.4 -0.5,-0.2 -1.2,-0.8 -2.2,-1.7l-17.1 -15.3c-1.2,-1.1 -2.2,-1.7 -3,-1.7 -1.2,0 -1.8,1.7 -1.8,4.9 0,2.7 0.2,4.5 0.5,5.5 0.3,1 0.9,1.7 1.8,2.2 1.3,0.6 2,1.4 2,2.5 0,2.6 -2.9,4 -8.7,4 -2.6,0 -4.6,-0.4 -6,-1.1 -1.5,-0.6 -2.2,-1.6 -2.2,-2.9 0,-0.6 0.2,-1.1 0.4,-1.4 0.3,-0.4 0.9,-0.8 1.9,-1.4 0.9,-0.5 1.4,-1.4 1.6,-2.8 0.3,-2.5 0.5,-6.1 0.5,-10.7 0,-5 -0.3,-8.6 -0.9,-10.9 -0.2,-0.8 -0.5,-1.4 -0.8,-1.8 -0.3,-0.5 -0.9,-0.8 -1.6,-1.2 -0.9,-0.4 -1.5,-0.8 -1.8,-1.2 -0.3,-0.4 -0.5,-0.9 -0.5,-1.5 0,-1.9 1.6,-3 4.8,-3.5 1,-0.2 2.9,-0.2 5.6,-0.2 1.6,0 2.7,0.1 3.4,0.3 0.7,0.3 1.5,0.8 2.5,1.7z"/>
   <path class="fil4" d="M21.8 91.6l17.4 15.3c1.7,1.4 2.8,2.1 3.6,2.1 1.2,0 1.8,-1.3 1.8,-3.9 0,-2.9 -0.2,-4.9 -0.5,-6 -0.4,-1.1 -1.1,-1.9 -2.2,-2.4 -1,-0.4 -1.6,-0.9 -2,-1.4 -0.3,-0.5 -0.5,-1.2 -0.5,-2 0,-1.9 1.3,-3.2 4,-3.7 1.1,-0.3 3,-0.4 5.7,-0.4 3.6,0 6,0.2 7.4,0.6 2.1,0.7 3.2,1.9 3.2,3.8 0,1.5 -0.9,2.6 -2.6,3.4 -0.7,0.3 -1.2,0.6 -1.5,0.8 -0.2,0.2 -0.4,0.6 -0.6,1 -0.7,1.6 -1,4.5 -1,8.8l0 11.4c0,1.8 0,4.2 0,7.2 0,4.1 -0.2,7.1 -0.7,8.9 -0.6,2.3 -1.8,3.4 -3.5,3.4 -0.7,0 -1.3,-0.1 -1.8,-0.5 -0.6,-0.3 -1.4,-1 -2.6,-2l-20.8 -18.7c-1.5,-1.3 -2.7,-1.9 -3.6,-1.9 -1.5,0 -2.2,2 -2.2,5.9 0,3.2 0.2,5.5 0.6,6.7 0.3,1.1 1.1,2 2.2,2.6 1.6,0.8 2.3,1.8 2.3,3 0,3.3 -3.4,4.9 -10.4,4.9 -3.2,0 -5.6,-0.4 -7.4,-1.3 -1.7,-0.8 -2.6,-2 -2.6,-3.5 0,-0.8 0.2,-1.4 0.5,-1.8 0.3,-0.4 1.1,-0.9 2.2,-1.6 1.1,-0.7 1.8,-1.8 2,-3.5 0.4,-3 0.6,-7.3 0.6,-13 0,-6 -0.3,-10.4 -1,-13.1 -0.3,-1 -0.6,-1.8 -1,-2.3 -0.4,-0.5 -1.1,-0.9 -2,-1.4 -1,-0.5 -1.8,-1 -2.2,-1.5 -0.4,-0.5 -0.6,-1.1 -0.6,-1.8 0,-2.2 1.9,-3.6 5.8,-4.2 1.3,-0.2 3.6,-0.3 6.9,-0.3 1.8,0 3.2,0.2 4,0.4 0.9,0.3 1.9,1 3.1,2z"/>
   <path id="1" class="fil4" d="M80.9 102.8c4,0 7.5,1.1 10.3,3.1 1.5,1.1 2.6,2.4 3.2,3.8 0.5,1.4 0.8,3.3 0.8,5.8l0 5.2c0,3.7 0.2,6 0.8,7.1 0.2,0.5 0.5,0.8 0.7,1 0.2,0.1 0.7,0.2 1.5,0.3 0.7,0.2 1.1,0.7 1.1,1.5 0,1.1 -0.5,2.3 -1.4,3.5 -0.9,1.2 -2,2.3 -3.5,3.1 -1.7,1 -3.5,1.5 -5.5,1.5 -2.4,0 -4.3,-0.8 -5.8,-2.5 -0.5,-0.6 -0.9,-0.9 -1.3,-0.9 -0.5,0 -1.1,0.3 -1.9,0.9 -2.3,1.7 -5,2.5 -8,2.5 -3,0 -5.5,-0.6 -7.4,-1.9 -1.2,-0.9 -2.2,-2 -2.9,-3.4 -0.8,-1.4 -1.1,-2.9 -1.1,-4.4 0,-2.4 1,-4.6 2.9,-6.4 3.1,-3 7.7,-4.5 13.8,-4.5 1.3,0 2.2,-0.1 2.5,-0.4 0.4,-0.3 0.5,-0.9 0.5,-1.9 0,-2.4 -0.2,-4.2 -0.7,-5.3 -0.5,-1.1 -1.4,-1.7 -2.5,-1.7 -0.7,0 -1.4,0.2 -1.9,0.6 -0.6,0.4 -1.3,1.2 -2.1,2.3 -2,3 -4.2,4.5 -6.5,4.5 -1.1,0 -2.1,-0.4 -2.8,-1 -0.7,-0.7 -1.1,-1.6 -1.1,-2.7 0,-1.1 0.5,-2.2 1.4,-3.4 0.9,-1.1 2.1,-2.1 3.6,-2.9 4.3,-2.2 8.7,-3.4 13.3,-3.4zm-2.4 20.3c-1,0 -1.9,0.4 -2.6,1.3 -0.8,0.8 -1.2,1.8 -1.2,3 0,1.1 0.3,2 0.8,2.7 0.6,0.7 1.3,1 2.2,1 1.8,0 2.8,-1.5 2.8,-4.7 0,-1.3 -0.2,-2.1 -0.4,-2.6 -0.3,-0.4 -0.8,-0.7 -1.6,-0.7z"/>
   <path id="2" class="fil4" d="M138.8 101c0.6,0 1.1,0.3 1.5,1 0.5,0.6 0.7,1.4 0.7,2.3 0,1 -0.3,2.1 -0.9,3.3 -0.6,1.2 -1.3,2.1 -2.1,2.9 -0.6,0.4 -0.8,0.8 -0.8,1.1 0,0.1 0,0.3 0,0.8 0.1,0.5 0.1,1 0.1,1.4 0,2.8 -0.9,5.1 -2.8,7 -1.7,1.7 -3.8,3 -6.5,3.9 -2.6,0.9 -5.5,1.4 -8.7,1.4 -0.8,0 -1.5,0 -2.3,-0.1 -0.6,-0.1 -1.1,-0.1 -1.4,-0.1 -1.2,0 -1.9,0.6 -1.9,1.8 0,0.8 0.5,1.4 1.3,1.9 0.8,0.4 1.9,0.7 3.2,0.7 1,0 2.3,-0.2 4.2,-0.4 3.8,-0.5 6.6,-0.8 8.5,-0.8 2.7,0 4.8,0.4 6.4,1.4 1.2,0.6 2.1,1.6 2.8,2.9 0.8,1.2 1.1,2.6 1.1,4.1 0,2.3 -0.8,4.6 -2.6,6.8 -2,2.6 -5.1,4.6 -9.1,5.8 -3.1,1 -6.7,1.5 -10.8,1.5 -5.2,0 -9.4,-0.8 -12.6,-2.4 -1.5,-0.7 -2.7,-1.7 -3.6,-2.9 -0.9,-1.2 -1.3,-2.5 -1.3,-3.8 0,-0.9 0.2,-1.8 0.7,-2.5 0.5,-0.8 1.2,-1.3 1.9,-1.7 0.7,-0.3 1.1,-0.6 1.1,-0.9 0,-0.2 -0.3,-0.6 -0.9,-1.1 -1.9,-1.6 -2.8,-3.2 -2.8,-4.9 0,-1.1 0.5,-2.3 1.4,-3.4 0.8,-1.2 2,-2.2 3.3,-2.8 0.6,-0.3 0.8,-0.6 0.8,-0.8 0,-0.4 -0.3,-0.9 -1,-1.5 -2.4,-2.2 -3.6,-4.8 -3.6,-7.8 0,-1.6 0.4,-3.1 1.3,-4.5 0.8,-1.4 2,-2.6 3.5,-3.6 3.8,-2.5 7.9,-3.7 12.5,-3.7 1.8,0 3.9,0.2 6.1,0.7 2.1,0.4 3.6,0.6 4.4,0.6 2.5,0 5.1,-1 7.6,-3 0.6,-0.4 1,-0.6 1.3,-0.6zm-19 7.2c-1.2,0 -2.1,0.5 -2.8,1.4 -0.8,0.9 -1.1,2 -1.1,3.5 0,2.5 0.4,4.5 1.1,6.1 0.8,1.5 1.8,2.2 3.1,2.2 1.2,0 2.2,-0.4 2.9,-1.4 0.8,-0.9 1.1,-2.2 1.1,-3.8 0,-2.5 -0.4,-4.4 -1.1,-5.8 -0.8,-1.4 -1.8,-2.1 -3.2,-2.2zm-7.7 31.9c-0.6,0 -0.8,0.4 -0.8,1 0,1.4 0.7,2.5 2.2,3.4 1.5,0.8 3.4,1.3 5.8,1.3 2.3,0 4.1,-0.3 5.4,-0.9 1.3,-0.7 1.9,-1.5 1.9,-2.6 0,-0.6 -0.2,-1.1 -0.7,-1.5 -0.5,-0.4 -1.1,-0.6 -1.8,-0.6 -0.4,0 -0.9,0 -1.6,0.1 -1.3,0.2 -2.8,0.3 -4.4,0.3 -1.2,0 -2.3,0 -3.4,-0.1 -0.9,-0.1 -1.5,-0.2 -2,-0.3 -0.3,-0.1 -0.4,-0.1 -0.6,-0.1z"/>
   <path id="3" class="fil4" d="M177.8 123.3l-4.2 9.4c-0.7,1.6 -1.3,2.6 -1.7,3.2 -0.5,0.5 -1,0.8 -1.5,0.8 -0.5,0 -1,-0.2 -1.4,-0.7 -0.2,-0.2 -0.8,-1.3 -1.8,-3 -0.9,-1.8 -1.6,-3.4 -2.3,-4.8l-4.6 -10.4c-0.6,-1.4 -1.3,-2.1 -2,-2.1 -0.7,0 -1.1,0.6 -1.2,1.8 -0.2,2.8 -0.2,5.3 -0.2,7.7 0,2.4 0.1,4 0.3,4.9 0.2,0.5 0.4,0.9 0.6,1.1 0.3,0.3 1.1,0.7 2.2,1.3 0.8,0.4 1.2,1.1 1.2,2 0,2.7 -3.4,4 -10.1,4 -5.6,0 -8.4,-1.3 -8.4,-3.9 0,-0.6 0.1,-1.1 0.4,-1.4 0.3,-0.3 1,-0.7 2.3,-1.3 0.7,-0.3 1.3,-0.8 1.5,-1.4 0.3,-0.6 0.5,-1.8 0.7,-3.6 0.2,-1.8 0.4,-4.9 0.6,-9.2 0.2,-4.2 0.3,-7.9 0.3,-10.9 0,-3.8 -0.3,-6.4 -0.9,-7.7 -0.2,-0.5 -0.4,-0.9 -0.7,-1.1 -0.3,-0.2 -0.8,-0.5 -1.5,-0.9 -1.7,-0.8 -2.5,-1.8 -2.5,-3.1 0,-0.8 0.3,-1.6 0.9,-2.2 0.6,-0.7 1.4,-1.2 2.5,-1.5 1,-0.3 2.4,-0.5 4.1,-0.8 1.7,-0.2 3.2,-0.3 4.3,-0.3 3,0 5.2,0.2 6.4,0.7 0.6,0.3 1.1,0.6 1.4,1 0.4,0.4 0.9,1.2 1.5,2.4l7.3 13.5c0.8,1.4 1.4,2.3 1.7,2.7 0.3,0.3 0.7,0.5 1.2,0.5 0.5,0 0.9,-0.2 1.3,-0.6 0.3,-0.3 0.8,-1 1.3,-1.9l4.9 -9.7c0.6,-1.2 1,-2 1.2,-2.4 1.1,-2.3 2.3,-3.9 3.4,-4.7 1.4,-1 4,-1.5 7.8,-1.5 6.6,0 9.9,1.5 9.9,4.6 0,0.6 -0.2,1.2 -0.4,1.6 -0.3,0.4 -0.8,0.9 -1.6,1.5 -1.1,0.8 -1.7,2 -2,3.5 -0.6,3.2 -0.8,7.2 -0.8,11.8 0,5.9 0.3,11.2 0.8,15.7 0.2,1.1 0.4,1.8 0.7,2.2 0.3,0.4 1,1 2.2,1.8 0.9,0.5 1.3,1.3 1.3,2.2 0,1.7 -1.1,2.8 -3.3,3.5 -1.1,0.4 -2.3,0.6 -3.5,0.7 -1.2,0.2 -3.1,0.2 -5.7,0.2 -4,0 -6.9,-0.3 -8.8,-0.8 -2.2,-0.7 -3.3,-1.7 -3.3,-3.3 0,-0.5 0.2,-1 0.4,-1.3 0.3,-0.4 1.1,-1.1 2.2,-2 0.6,-0.5 1,-1.5 1.3,-2.9 0.2,-1.4 0.3,-3.7 0.3,-7.1 0,-1.9 -0.1,-3.1 -0.3,-3.7 -0.1,-0.6 -0.5,-0.9 -1.1,-0.9 -0.6,0 -1.3,0.5 -1.9,1.4 -0.6,0.9 -1.5,2.7 -2.7,5.4z"/>
   <path id="4" class="fil4" d="M226.5 102.8c4,0 7.5,1.1 10.3,3.1 1.5,1.1 2.6,2.4 3.2,3.8 0.5,1.4 0.8,3.3 0.8,5.8l0 5.2c0,3.7 0.2,6 0.7,7.1 0.3,0.5 0.6,0.8 0.8,1 0.2,0.1 0.7,0.2 1.5,0.3 0.7,0.2 1.1,0.7 1.1,1.5 0,1.1 -0.5,2.3 -1.4,3.5 -0.9,1.2 -2,2.3 -3.5,3.1 -1.7,1 -3.5,1.5 -5.5,1.5 -2.4,0 -4.3,-0.8 -5.8,-2.5 -0.5,-0.6 -0.9,-0.9 -1.3,-0.9 -0.5,0 -1.1,0.3 -1.9,0.9 -2.3,1.7 -5,2.5 -8,2.5 -3,0 -5.5,-0.6 -7.4,-1.9 -1.2,-0.9 -2.2,-2 -2.9,-3.4 -0.8,-1.4 -1.1,-2.9 -1.1,-4.4 0,-2.4 1,-4.6 2.9,-6.4 3.1,-3 7.7,-4.5 13.8,-4.5 1.3,0 2.2,-0.1 2.5,-0.4 0.4,-0.3 0.5,-0.9 0.5,-1.9 0,-2.4 -0.2,-4.2 -0.7,-5.3 -0.5,-1.1 -1.4,-1.7 -2.5,-1.7 -0.7,0 -1.4,0.2 -1.9,0.6 -0.6,0.4 -1.3,1.2 -2.1,2.3 -2,3 -4.2,4.5 -6.5,4.5 -1.1,0 -2.1,-0.4 -2.8,-1 -0.7,-0.7 -1.1,-1.6 -1.1,-2.7 0,-1.1 0.5,-2.2 1.4,-3.4 0.9,-1.1 2.1,-2.1 3.6,-2.9 4.3,-2.2 8.7,-3.4 13.3,-3.4zm-2.4 20.3c-1,0 -1.9,0.4 -2.6,1.3 -0.8,0.8 -1.2,1.8 -1.2,3 0,1.1 0.3,2 0.8,2.7 0.6,0.7 1.3,1 2.2,1 1.8,0 2.8,-1.5 2.8,-4.7 0,-1.3 -0.2,-2.1 -0.4,-2.6 -0.3,-0.4 -0.8,-0.7 -1.6,-0.7z"/>
   <path id="5" class="fil4" d="M264.3 103c1.4,0 2.3,0.2 2.7,0.4 0.3,0.3 0.5,0.9 0.5,1.8 0,0.9 0.3,1.4 0.9,1.4 0.2,0 1,-0.5 2.3,-1.4 1,-0.7 2.3,-1.2 3.8,-1.7 1.6,-0.4 3,-0.7 4.3,-0.7 2.9,0 5.6,1.1 7.9,3.1 1.8,1.6 3.2,3.6 4.2,5.9 1,2.5 1.5,5.2 1.5,7.9 0,5.9 -2,10.8 -6,14.6 -3,2.9 -6.5,4.4 -10.4,4.4 -2,0 -4,-0.5 -6.1,-1.4 -0.5,-0.2 -0.8,-0.3 -1.1,-0.3 -0.7,0 -1,0.7 -1,2.1 0,1.9 0.6,3.2 1.8,4 1.2,0.8 1.9,1.3 2.1,1.6 0.2,0.3 0.3,0.7 0.3,1.3 0,1.4 -0.8,2.5 -2.3,3.3 -1.6,0.7 -3.8,1.1 -6.6,1.1 -5.1,0 -9.5,-1 -13.4,-3 -1.9,-1.1 -2.9,-2.3 -2.9,-3.9 0,-0.6 0.2,-1.2 0.5,-1.5 0.3,-0.4 0.8,-0.8 1.7,-1.2 1.2,-0.5 1.9,-1.6 2.2,-3 0.3,-1.5 0.5,-5.7 0.6,-12.7 -0.2,-5.8 -0.4,-9 -0.6,-9.7 -0.1,-0.2 -0.2,-0.4 -0.4,-0.4 -0.2,-0.1 -0.8,-0.2 -1.8,-0.4 -0.7,-0.2 -1.3,-0.5 -1.8,-1.1 -0.4,-0.5 -0.7,-1.2 -0.7,-1.9 0,-1 0.3,-1.8 1,-2.5 0.7,-0.7 1.7,-1.4 3.2,-2.1 5.7,-2.6 10.3,-3.9 13.6,-4zm3.5 13.3l-0.5 9.6c-0.1,0.4 -0.1,0.8 -0.1,1.2 0,0.7 0.3,1.3 1,1.7 0.6,0.5 1.4,0.7 2.5,0.7 3.2,0 4.8,-2.6 4.8,-7.9 0,-3.5 -0.6,-5.9 -2,-7.3 -0.8,-0.9 -1.8,-1.3 -3,-1.3 -1.7,0 -2.6,1.1 -2.7,3.3z"/>
   <path class="fil4" d="M22.6 179.9c-0.7,0 -1.2,0.3 -1.4,0.7 -0.2,0.5 -0.3,1.5 -0.3,3.1 0,2.5 0.2,4.4 0.5,5.7 0.1,0.4 0.2,0.7 0.4,0.9 0.2,0.2 0.6,0.5 1.1,0.8 1.2,0.6 1.7,1.5 1.7,2.5 0,1.3 -0.8,2.2 -2.4,2.7 -1.6,0.5 -4.3,0.8 -8.1,0.8 -7.2,0 -10.7,-1.3 -10.7,-4 0,-0.5 0.1,-0.9 0.3,-1.1 0.2,-0.3 0.7,-0.7 1.4,-1.2 0.9,-0.6 1.5,-1.2 1.8,-2 0.3,-0.8 0.5,-2.1 0.6,-3.9 0.1,-1.4 0.1,-6.3 0.1,-14.7 0,-2.7 -0.1,-4.5 -0.4,-5.5 -0.3,-1 -0.8,-1.7 -1.7,-2.1 -0.9,-0.4 -1.4,-0.8 -1.7,-1.1 -0.3,-0.4 -0.5,-0.8 -0.5,-1.3 0,-0.7 0.3,-1.4 0.9,-1.9 0.5,-0.5 1.3,-0.9 2.3,-1.2 0.8,-0.2 1.9,-0.3 3.4,-0.3 0.6,0 2.2,0.1 4.7,0.3 0.5,0 1.3,0.1 2.3,0.1 1.8,0 4.1,-0.2 7,-0.4 1.8,-0.1 3.1,-0.2 3.8,-0.2 4.1,0 7.5,1 10.2,3 2.4,1.8 3.7,4.3 3.7,7.4 0,1.8 -0.5,3.4 -1.3,4.9 -0.9,1.4 -2,2.5 -3.5,3.3 -0.6,0.3 -0.9,0.6 -0.9,1.1 0,0.5 0.4,1 1.4,1.3 2,0.7 3.5,1.9 4.4,3.3 1,1.5 1.7,3.8 2.1,6.8 0.1,1.3 0.4,2.1 0.7,2.5 0.3,0.4 1.1,0.8 2.3,1.1 0.4,0.1 0.7,0.4 0.9,0.7 0.3,0.4 0.4,0.8 0.4,1.3 0,0.6 -0.2,1.2 -0.7,1.8 -0.5,0.6 -1.1,1.1 -1.8,1.4 -1.6,0.8 -3.8,1.2 -6.6,1.2 -3.8,0 -6.5,-1 -8.1,-3 -0.7,-0.9 -1.3,-2 -1.9,-3.4 -0.5,-1.3 -1.1,-3.4 -1.8,-6.3 -0.4,-1.8 -1,-3.1 -1.7,-3.8 -0.6,-0.8 -1.6,-1.2 -2.9,-1.3zm-1.7 -14.7l-0.3 6.8c0,0 0,0.1 0,0.2 0,0.7 0.1,1.2 0.3,1.4 0.2,0.2 0.6,0.3 1.2,0.3 1.7,0 3,-0.4 3.7,-1.3 0.8,-0.8 1.2,-2.2 1.2,-4.2 0,-3.7 -1.3,-5.5 -4,-5.5 -0.7,0 -1.2,0.1 -1.5,0.5 -0.3,0.3 -0.5,0.9 -0.6,1.8z"/>
   <path id="1" class="fil4" d="M60.8 157.1l14.8 0c3.1,0 5.2,-0.1 6.6,-0.2 1.4,-0.1 2.7,-0.4 4.1,-0.8 0.4,-0.1 0.7,-0.1 0.9,-0.1 1,0 1.9,0.5 2.7,1.6 1.2,1.8 1.9,3.9 1.9,6.3 0,1.3 -0.3,2.3 -0.8,3 -0.6,0.7 -1.3,1.1 -2.2,1.1 -0.6,0 -1.1,-0.1 -1.5,-0.4 -0.3,-0.3 -0.8,-0.8 -1.4,-1.7 -0.9,-1.3 -1.9,-2.2 -3.2,-2.6 -1.3,-0.5 -3.5,-0.7 -6.4,-0.7 -2.3,0 -3.6,0.4 -4.1,1.2 -0.2,0.4 -0.4,1 -0.4,1.7 -0.1,0.7 -0.1,2.5 -0.1,5.5 0,1.1 0.2,1.8 0.6,2.1 0.4,0.3 1.4,0.4 3,0.4 0.8,0 1.4,-0.1 1.8,-0.5 0.3,-0.3 0.6,-0.9 0.7,-1.8 0.1,-1.1 0.2,-1.8 0.4,-2.3 0.1,-0.4 0.4,-0.7 0.8,-1 0.4,-0.4 0.8,-0.6 1.4,-0.6 0.8,0 1.4,0.4 2,1.2 0.4,0.5 0.8,1.5 1,2.9 0.3,1.4 0.5,2.9 0.5,4.4 0,3.1 -0.5,5.6 -1.5,7.5 -0.5,1.1 -1.3,1.6 -2.3,1.6 -0.7,0 -1.1,-0.1 -1.4,-0.5 -0.2,-0.3 -0.4,-1 -0.6,-2.1 -0.3,-2.2 -1.5,-3.2 -3.8,-3.2 -0.8,0 -1.4,0.2 -1.7,0.8 -0.4,0.5 -0.5,1.5 -0.5,3 0,0.9 0,2.1 0.2,3.5 0.1,1.5 0.2,2.4 0.3,2.9 0.2,0.6 0.7,1 1.5,1.2 0.8,0.2 2.1,0.3 4,0.3 2.9,0 5,-0.4 6.5,-1.1 1.5,-0.7 2.7,-2.1 3.6,-4 0.5,-1.1 1,-1.9 1.4,-2.3 0.5,-0.4 1,-0.6 1.7,-0.6 0.8,0 1.5,0.4 2,1.1 0.6,0.7 0.8,1.6 0.8,2.6 0,1.2 -0.3,2.6 -0.9,4.4 -0.6,1.7 -1.3,3.2 -2.2,4.6 -0.4,0.6 -0.8,1.1 -1,1.3 -0.3,0.2 -0.7,0.3 -1.2,0.3 -0.3,0 -0.8,0 -1.5,-0.1 -1.3,-0.3 -2.9,-0.4 -5,-0.5l-24.5 0c-1,0 -1.7,-0.2 -2.3,-0.6 -0.5,-0.5 -0.8,-1.1 -0.8,-1.9 0,-0.5 0.2,-0.9 0.4,-1.2 0.2,-0.2 0.7,-0.5 1.6,-0.9 0.5,-0.3 1,-0.6 1.3,-0.9 0.2,-0.4 0.5,-0.9 0.6,-1.7 0.6,-2.9 1,-6.8 1,-11.7 0,-7.5 -0.5,-12.1 -1.4,-14.1 -0.2,-0.4 -0.4,-0.6 -0.7,-0.8 -0.2,-0.1 -0.7,-0.3 -1.4,-0.5 -1.1,-0.4 -1.7,-1.1 -1.7,-2.2 0,-0.7 0.2,-1.2 0.6,-1.7 0.4,-0.5 0.8,-0.8 1.4,-0.9 0.8,-0.2 2.2,-0.3 4.4,-0.3z"/>
   <path id="2" class="fil4" d="M116.5 196.5l-3.8 0c-2.8,0.1 -4.7,0.1 -6,0.2 -1.1,0.1 -1.9,0.1 -2.4,0.1 -1.2,0 -2.1,-0.2 -2.8,-0.8 -0.7,-0.6 -1,-1.3 -1,-2.2 0,-0.5 0.1,-0.9 0.4,-1.2 0.2,-0.4 0.8,-0.8 1.8,-1.5 0.6,-0.4 0.9,-1 1.2,-1.8 0.2,-0.8 0.4,-2.6 0.6,-5.3 0.4,-4.2 0.6,-9.3 0.6,-15.5 0,-2.2 -0.1,-3.7 -0.4,-4.5 -0.4,-0.7 -1.1,-1.3 -2.1,-1.8 -1.3,-0.5 -1.9,-1.3 -1.9,-2.4 0,-0.8 0.3,-1.5 1.1,-2.1 0.8,-0.5 1.7,-0.8 2.9,-0.8 0.7,0 1.5,0.1 2.5,0.1 1.7,0.1 3.6,0.1 5.5,0.1 1.5,0 4.3,0 8.5,-0.1 1.4,-0.1 2.6,-0.1 3.7,-0.1 2.5,0 4.6,0.2 6.1,0.6 1.6,0.4 3,1.1 4.1,2.1 1.9,1.6 2.9,3.8 2.9,6.4 0,1.4 -0.3,2.7 -0.9,3.9 -0.5,1.3 -1.3,2.3 -2.2,3 -0.7,0.6 -1,1.1 -1,1.5 0,0.5 0.4,0.9 1.2,1.2 1.6,0.7 3,1.7 4.3,3.2 1.3,1.6 2,3.5 2,5.9 0,2.8 -1,5.3 -3.1,7.6 -2.6,3 -6.6,4.5 -11.8,4.5 -0.7,0 -2.5,0 -5.3,-0.1 -2.5,-0.1 -4.1,-0.2 -4.7,-0.2zm2 -31.3l0 5.9c0,1 0.1,1.6 0.4,2 0.2,0.4 0.7,0.6 1.2,0.6 1.5,0 2.5,-0.5 3.2,-1.3 0.7,-0.9 1,-2.3 1,-4.1 0,-1.9 -0.3,-3.3 -1,-4.2 -0.7,-1 -1.7,-1.5 -3,-1.5 -0.6,0 -1.1,0.2 -1.4,0.5 -0.2,0.4 -0.4,1.1 -0.4,2.1zm0 16.6l0 2.7c0,2.6 0.2,4.2 0.6,5.1 0.3,0.8 1.1,1.2 2.2,1.2 2.9,0 4.4,-1.7 4.4,-5.1 0,-4.3 -1.6,-6.4 -4.9,-6.4 -0.9,0 -1.5,0.1 -1.8,0.5 -0.3,0.4 -0.5,1 -0.5,2z"/>
   <path id="3" class="fil4" d="M211.8 179.9c-0.8,0 -1.2,0.3 -1.4,0.7 -0.2,0.5 -0.4,1.5 -0.4,3.1 0,2.5 0.2,4.4 0.5,5.7 0.1,0.4 0.3,0.7 0.4,0.9 0.2,0.2 0.6,0.5 1.1,0.8 1.2,0.6 1.8,1.5 1.8,2.5 0,1.3 -0.8,2.2 -2.4,2.7 -1.6,0.5 -4.4,0.8 -8.2,0.8 -7.1,0 -10.7,-1.3 -10.7,-4 0,-0.5 0.1,-0.9 0.3,-1.1 0.2,-0.3 0.7,-0.7 1.5,-1.2 0.8,-0.6 1.4,-1.2 1.7,-2 0.3,-0.8 0.5,-2.1 0.6,-3.9 0.1,-1.4 0.2,-6.3 0.2,-14.7 0,-2.7 -0.2,-4.5 -0.4,-5.5 -0.3,-1 -0.9,-1.7 -1.8,-2.1 -0.8,-0.4 -1.4,-0.8 -1.7,-1.1 -0.3,-0.4 -0.4,-0.8 -0.4,-1.3 0,-0.7 0.3,-1.4 0.8,-1.9 0.6,-0.5 1.3,-0.9 2.3,-1.2 0.8,-0.2 2,-0.3 3.4,-0.3 0.7,0 2.2,0.1 4.8,0.3 0.5,0 1.2,0.1 2.3,0.1 1.7,0 4,-0.2 6.9,-0.4 1.8,-0.1 3.1,-0.2 3.8,-0.2 4.2,0 7.6,1 10.3,3 2.4,1.8 3.6,4.3 3.6,7.4 0,1.8 -0.4,3.4 -1.3,4.9 -0.8,1.4 -2,2.5 -3.5,3.3 -0.6,0.3 -0.9,0.6 -0.9,1.1 0,0.5 0.5,1 1.4,1.3 2.1,0.7 3.5,1.9 4.5,3.3 0.9,1.5 1.6,3.8 2,6.8 0.2,1.3 0.4,2.1 0.8,2.5 0.3,0.4 1,0.8 2.2,1.1 0.4,0.1 0.7,0.4 1,0.7 0.2,0.4 0.3,0.8 0.3,1.3 0,0.6 -0.2,1.2 -0.7,1.8 -0.4,0.6 -1,1.1 -1.8,1.4 -1.6,0.8 -3.8,1.2 -6.6,1.2 -3.7,0 -6.4,-1 -8.1,-3 -0.7,-0.9 -1.3,-2 -1.8,-3.4 -0.5,-1.3 -1.1,-3.4 -1.8,-6.3 -0.5,-1.8 -1,-3.1 -1.7,-3.8 -0.7,-0.8 -1.7,-1.2 -2.9,-1.3zm-1.7 -14.7l-0.3 6.8c0,0 0,0.1 0,0.2 0,0.7 0.1,1.2 0.3,1.4 0.2,0.2 0.6,0.3 1.2,0.3 1.7,0 2.9,-0.4 3.7,-1.3 0.8,-0.8 1.1,-2.2 1.1,-4.2 0,-3.7 -1.3,-5.5 -3.9,-5.5 -0.8,0 -1.3,0.1 -1.6,0.5 -0.3,0.3 -0.5,0.9 -0.5,1.8z"/>
   <path id="4" class="fil4" d="M259.9 158.5l14.3 12.6c1.4,1.2 2.4,1.8 3,1.8 1,0 1.5,-1.1 1.5,-3.3 0,-2.4 -0.2,-4 -0.5,-4.9 -0.3,-0.9 -0.9,-1.6 -1.8,-2 -0.7,-0.4 -1.3,-0.8 -1.6,-1.2 -0.3,-0.4 -0.4,-0.9 -0.4,-1.6 0,-1.6 1.1,-2.6 3.3,-3.1 0.9,-0.2 2.5,-0.3 4.7,-0.3 2.9,0 4.9,0.2 6.1,0.5 1.7,0.6 2.6,1.6 2.6,3.1 0,1.2 -0.7,2.2 -2.2,2.8 -0.5,0.3 -0.9,0.5 -1.1,0.7 -0.3,0.2 -0.4,0.5 -0.6,0.8 -0.5,1.3 -0.8,3.7 -0.8,7.3l0 9.4c0,1.4 0,3.4 0,5.9 0,3.4 -0.2,5.8 -0.6,7.3 -0.5,1.9 -1.4,2.8 -2.8,2.8 -0.6,0 -1.1,-0.1 -1.6,-0.3 -0.4,-0.3 -1.1,-0.9 -2.1,-1.8l-17.1 -15.3c-1.2,-1.1 -2.2,-1.6 -3,-1.6 -1.2,0 -1.8,1.6 -1.8,4.9 0,2.6 0.2,4.5 0.5,5.4 0.3,1 0.9,1.8 1.8,2.2 1.3,0.6 1.9,1.5 1.9,2.5 0,2.7 -2.8,4 -8.6,4 -2.6,0 -4.6,-0.3 -6,-1 -1.5,-0.7 -2.2,-1.7 -2.2,-2.9 0,-0.7 0.1,-1.2 0.4,-1.5 0.3,-0.3 0.9,-0.8 1.8,-1.3 0.9,-0.6 1.5,-1.5 1.7,-2.9 0.3,-2.5 0.5,-6 0.5,-10.7 0,-5 -0.3,-8.6 -0.9,-10.9 -0.2,-0.8 -0.5,-1.4 -0.8,-1.8 -0.3,-0.4 -0.9,-0.8 -1.6,-1.2 -0.9,-0.4 -1.5,-0.8 -1.8,-1.2 -0.4,-0.4 -0.5,-0.9 -0.5,-1.5 0,-1.8 1.5,-3 4.7,-3.5 1.1,-0.1 3,-0.2 5.7,-0.2 1.5,0 2.7,0.1 3.4,0.4 0.7,0.2 1.5,0.7 2.5,1.6z"/>
   <path id="svg_2_0" class="fil5" d="M168.1 205.6c-1.4,-7.1 -4,-13 -7,-18.4 -2.3,-4 -4.9,-7.8 -7.4,-11.7 -0.8,-1.3 -1.5,-2.7 -2.3,-4 -1.6,-2.7 -2.8,-5.9 -2.7,-10 0,-4 1.2,-7.1 2.9,-9.8 2.7,-4.3 7.3,-7.8 13.4,-8.7 5,-0.8 9.7,0.5 13.1,2.5 2.7,1.6 4.8,3.7 6.4,6.2 1.7,2.6 2.9,5.7 3,9.8 0,2 -0.3,4 -0.8,5.5 -0.5,1.7 -1.3,3 -2,4.4 -1.3,2.8 -3,5.4 -4.7,8 -5.1,7.6 -9.8,15.5 -11.9,26.2l0 0z"/>
   <circle id="svg_4_1" class="fil6" cx="168.1" cy="161.5" r="6.6"/>
  </g>
 </g>
</svg>
